<svg width="391" height="390" viewBox="0 0 391 390" fill="none" xmlns="http://www.w3.org/2000/svg">
<path d="M328.443 62.7247C333.115 65.6131 338.499 67.143 343.992 67.143C349.485 67.143 354.869 65.6131 359.542 62.7247C365.014 59.3418 369.233 54.2665 371.561 48.2687C373.888 42.2709 374.196 35.6778 372.437 29.4893C370.679 23.3009 366.95 17.8546 361.817 13.9767C356.683 10.0988 350.425 8.00073 343.992 8.00073C337.559 8.00073 331.301 10.0988 326.167 13.9767C321.034 17.8546 317.305 23.3009 315.547 29.4893C313.788 35.6778 314.096 42.2709 316.423 48.2687C318.751 54.2665 322.97 59.3418 328.443 62.7247V62.7247Z" fill="#EBEBEB"/>
<path d="M334.991 34.1881C334.991 35.9693 335.519 37.7106 336.509 39.1916C337.498 40.6727 338.905 41.827 340.55 42.5087C342.196 43.1903 344.007 43.3687 345.754 43.0212C347.501 42.6737 349.106 41.8159 350.365 40.5564C351.625 39.2969 352.482 37.6921 352.83 35.9451C353.177 34.1981 352.999 32.3873 352.317 30.7416C351.636 29.096 350.481 27.6894 349 26.6998C347.519 25.7102 345.778 25.182 343.997 25.182C342.814 25.1808 341.642 25.4129 340.549 25.865C339.456 26.3172 338.462 26.9805 337.626 27.817C336.789 28.6536 336.126 29.6469 335.674 30.7401C335.222 31.8334 334.989 33.0051 334.991 34.1881Z" fill="white"/>
<path d="M328.442 59.0142V62.7248C333.114 65.6132 338.499 67.1431 343.992 67.1431C349.485 67.1431 354.869 65.6132 359.541 62.7248V59.0236C359.593 56.9493 359.228 54.8857 358.47 52.9543C357.711 51.023 356.574 49.2628 355.125 47.7776C353.676 46.2924 351.945 45.1121 350.033 44.3062C348.121 43.5004 346.067 43.0852 343.992 43.0852C341.917 43.0852 339.863 43.5004 337.951 44.3062C336.039 45.1121 334.307 46.2924 332.858 47.7776C331.409 49.2628 330.272 51.023 329.514 52.9543C328.755 54.8857 328.391 56.9493 328.442 59.0236V59.0142Z" fill="white"/>
<path d="M79.6347 63.9889C83.4391 54.424 78.7693 43.5859 69.2043 39.7815C59.6394 35.9771 48.8013 40.6469 44.9969 50.2119C41.1925 59.7768 45.8623 70.6149 55.4273 74.4193C64.9922 78.2237 75.8303 73.5539 79.6347 63.9889Z" fill="#EBEBEB"/>
<path d="M71.8205 59.4129C68.9735 65.1069 62.3305 68.4664 62.3305 68.4664C62.3305 68.4664 55.6305 65.0974 52.8404 59.4129C50.4963 54.6678 51.9768 49.5621 55.6874 48.4423C60.9924 46.8385 62.3305 56.0818 62.3305 56.0818C62.3305 56.0818 63.6875 46.8385 68.9735 48.4423C72.6841 49.5621 74.1646 54.7248 71.8205 59.4129Z" fill="white"/>
<path fill-rule="evenodd" clip-rule="evenodd" d="M28.1817 164.525C27.0049 163.795 25.9895 162.732 24.3857 162.893C23.7878 162.95 23.9206 162.456 23.9112 162.124C23.9112 156.24 23.889 150.363 23.8447 144.492C23.8447 144.055 23.8447 143.704 24.3287 143.476C28.8175 141.189 30.744 136.729 33.4867 132.914C34.8908 131.018 35.8993 128.858 36.4519 126.564C37.0046 124.27 37.0903 121.889 36.7038 119.561C36.5045 118.233 37.1214 117.663 38.3171 117.369C39.7501 117.037 41.1641 117.426 41.6766 118.413C42.9761 120.81 43.8526 123.414 44.2674 126.109C44.5331 128.34 43.736 130.513 43.4702 132.752C43.2709 134.375 42.9008 135.97 42.5972 137.602C42.9957 137.887 43.4513 137.744 43.8688 137.744L58.7778 137.697C60.8656 137.697 61.9 138.295 62.1942 139.68C62.3451 140.519 62.2239 141.384 61.8482 142.149C61.4726 142.914 60.8623 143.538 60.1064 143.932C59.7363 144.112 59.0625 143.932 59.0245 144.53C58.9865 145.127 59.6698 145.061 59.9735 145.298C61.7766 146.523 61.454 149.094 59.3756 150.546C58.8822 150.907 57.9047 150.746 57.8857 151.495C57.8667 152.245 58.8347 152.074 59.1953 152.444C60.6568 153.877 59.945 156.554 57.7718 157.645C57.4759 157.737 57.1873 157.852 56.9082 157.987C56.6615 158.148 56.4147 158.338 56.9082 158.679C59.0625 160.207 59.0245 162.343 56.9082 163.908L56.2629 164.383C55.4786 164.853 54.5628 165.057 53.6531 164.962L30.279 165.047C29.9123 165.106 29.5374 165.09 29.177 165.001C28.8165 164.911 28.478 164.749 28.1817 164.525V164.525Z" fill="#EBEBEB"/>
<path fill-rule="evenodd" clip-rule="evenodd" d="M6.01282 154.228C6.01282 150.499 6.01282 146.76 6.01282 143.02C6.01282 142.261 6.07925 141.891 6.96183 141.891C11.5266 141.939 16.0723 141.891 20.6276 141.891C21.5766 141.891 21.662 142.185 21.662 142.982C21.662 150.499 21.6905 158.018 21.7474 165.54C21.7474 166.489 21.4912 166.765 20.5327 166.755C16.1103 166.755 11.6879 166.755 7.24653 166.803C6.14568 166.803 5.99384 166.442 6.00333 165.474C6.01282 161.706 6.01282 157.967 6.01282 154.228Z" fill="#EBEBEB"/>
<path fill-rule="evenodd" clip-rule="evenodd" d="M365.691 242.856C365.008 242.429 364.41 241.803 363.49 241.907C363.139 241.907 363.215 241.651 363.205 241.461C363.205 238.007 363.205 234.553 363.205 231.098C363.205 230.842 363.205 230.643 363.49 230.5C366.128 229.162 367.286 226.543 368.871 224.303C369.697 223.189 370.29 221.92 370.616 220.572C370.942 219.224 370.994 217.824 370.769 216.455C370.655 215.677 371.015 215.326 371.718 215.164C372.069 215.042 372.451 215.036 372.806 215.147C373.162 215.258 373.472 215.48 373.692 215.781C374.453 217.189 374.967 218.717 375.21 220.298C375.206 221.609 375.05 222.915 374.745 224.189C374.622 225.138 374.403 226.087 374.232 227.036C374.46 227.198 374.735 227.112 374.982 227.112H383.732C384.966 227.112 385.564 227.454 385.734 228.27C385.832 228.773 385.762 229.293 385.533 229.751C385.305 230.209 384.932 230.579 384.472 230.804C384.254 230.918 383.865 230.804 383.836 231.155C383.808 231.506 384.216 231.468 384.425 231.611C385.478 232.332 385.288 233.822 384.074 234.695C383.78 234.904 383.21 234.809 383.191 235.236C383.172 235.663 383.723 235.578 383.96 235.815C384.15 236.057 384.28 236.34 384.341 236.642C384.402 236.944 384.391 237.256 384.31 237.553C384.229 237.849 384.08 238.123 383.874 238.352C383.668 238.581 383.411 238.759 383.125 238.871C382.95 238.927 382.779 238.994 382.612 239.07C382.47 239.174 382.328 239.279 382.612 239.478C383.874 240.427 383.855 241.632 382.612 242.553L382.233 242.828C381.776 243.109 381.238 243.229 380.705 243.17H366.973C366.749 243.21 366.519 243.203 366.299 243.149C366.078 243.095 365.871 242.995 365.691 242.856V242.856Z" fill="#EBEBEB"/>
<path fill-rule="evenodd" clip-rule="evenodd" d="M352.614 236.811C352.614 234.619 352.614 232.417 352.614 230.225C352.614 229.779 352.613 229.561 353.202 229.57C355.878 229.57 358.554 229.57 361.23 229.57C361.752 229.57 361.838 229.741 361.838 230.206C361.838 234.635 361.838 239.064 361.838 243.492C361.838 244.052 361.686 244.213 361.126 244.213C358.526 244.213 355.935 244.213 353.335 244.213C352.689 244.213 352.604 243.995 352.604 243.435C352.651 241.196 352.623 239.003 352.614 236.811Z" fill="#EBEBEB"/>
<path d="M340.068 151.059H337.344C336.938 151.062 336.535 150.985 336.159 150.832C335.783 150.678 335.442 150.451 335.155 150.164C334.868 149.876 334.641 149.535 334.487 149.159C334.333 148.783 334.256 148.38 334.26 147.974C334.262 147.157 334.588 146.374 335.166 145.796C335.744 145.218 336.527 144.892 337.344 144.89H341.14L342.915 134.565H339.47C338.68 134.521 337.937 134.176 337.394 133.602C336.85 133.027 336.547 132.267 336.547 131.476C336.547 130.685 336.85 129.924 337.394 129.35C337.937 128.775 338.68 128.43 339.47 128.387H343.987L345.164 121.326C345.281 120.597 345.66 119.936 346.229 119.466C346.799 118.996 347.52 118.75 348.258 118.773C348.708 118.781 349.152 118.884 349.559 119.076C349.966 119.269 350.328 119.546 350.62 119.889C350.911 120.232 351.127 120.633 351.251 121.066C351.376 121.498 351.407 121.953 351.342 122.398L350.279 128.387H359.589L360.785 121.326C360.905 120.59 361.291 119.923 361.87 119.453C362.449 118.982 363.181 118.74 363.926 118.773C364.373 118.783 364.814 118.888 365.217 119.082C365.621 119.275 365.978 119.553 366.265 119.897C366.551 120.24 366.761 120.642 366.88 121.073C366.999 121.505 367.024 121.956 366.953 122.398L365.938 128.387H368.68C369.495 128.394 370.274 128.722 370.85 129.299C371.425 129.876 371.75 130.656 371.755 131.471C371.743 132.284 371.416 133.062 370.842 133.639C370.269 134.216 369.494 134.548 368.68 134.565H364.884L363.091 144.88H366.469C366.875 144.877 367.278 144.954 367.654 145.108C368.03 145.261 368.371 145.488 368.659 145.775C368.946 146.063 369.173 146.404 369.327 146.78C369.48 147.156 369.557 147.559 369.554 147.965C369.551 148.782 369.225 149.565 368.647 150.143C368.07 150.721 367.287 151.047 366.469 151.049H362.018L360.775 158.347C360.652 159.073 360.272 159.731 359.704 160.2C359.136 160.668 358.418 160.917 357.681 160.9C357.23 160.898 356.784 160.799 356.375 160.61C355.965 160.42 355.602 160.144 355.309 159.8C355.016 159.457 354.8 159.054 354.678 158.62C354.555 158.186 354.527 157.73 354.597 157.284L355.726 151.049H346.407L345.155 158.347C345.027 159.078 344.64 159.739 344.065 160.208C343.49 160.676 342.765 160.922 342.023 160.9C341.571 160.907 341.123 160.813 340.713 160.625C340.302 160.437 339.938 160.159 339.648 159.813C339.358 159.466 339.149 159.06 339.036 158.622C338.923 158.185 338.909 157.728 338.995 157.284L340.068 151.059ZM356.761 144.89L358.545 134.565H349.273L347.48 144.88L356.761 144.89Z" fill="#EBEBEB"/>
<path d="M61.6848 240.911C65.1753 239.225 69.0378 238.456 72.9079 238.676C76.7781 238.896 80.5284 240.098 83.8053 242.169C87.0821 244.24 89.7775 247.111 91.6373 250.512C93.497 253.914 94.4599 257.732 94.4351 261.609C94.3497 261.865 94.2643 265.946 91.3223 268.622C90.9877 268.898 90.6174 269.128 90.2215 269.305C89.5974 269.645 88.9001 269.829 88.1893 269.841C87.4785 269.852 86.7756 269.691 86.1407 269.372C85.1523 268.838 84.3484 268.017 83.8347 267.018L82.8857 265.044C82.4954 266.585 81.777 268.024 80.7796 269.263C79.7821 270.501 78.5291 271.509 77.1062 272.219C71.3552 275.066 64.2471 272.332 61.3052 266.354C58.3633 260.375 60.6124 253.21 66.3634 250.382C72.1144 247.554 79.0896 250.221 81.9366 256.18L82.1644 256.645L82.3068 256.94L86.5109 265.481H86.5678C86.7881 265.923 87.1141 266.304 87.5168 266.591C87.7171 266.677 87.9358 266.712 88.1529 266.692C88.37 266.672 88.5787 266.598 88.76 266.477L89.225 266.249C90.7719 264.987 91.123 262.273 91.123 261.58C91.2171 258.489 90.5283 255.423 89.1207 252.669C87.4109 249.207 84.7128 246.33 81.3678 244.402C78.0228 242.473 74.181 241.58 70.3283 241.835C66.4756 242.09 62.7851 243.482 59.7235 245.834C56.6619 248.187 54.3667 251.395 53.1282 255.052C51.8897 258.709 51.7635 262.651 52.7657 266.38C53.7678 270.109 55.8531 273.457 58.758 276C61.6629 278.544 65.2569 280.169 69.0854 280.67C72.9138 281.17 76.8049 280.525 80.2664 278.814C81.7577 278.145 83.1473 277.27 84.3946 276.214C84.5363 276.068 84.709 275.955 84.8999 275.884C85.0908 275.813 85.2951 275.786 85.498 275.804C85.7009 275.822 85.8971 275.885 86.0723 275.989C86.2476 276.093 86.3974 276.235 86.5109 276.404C86.6593 276.548 86.7743 276.723 86.8478 276.916C86.9212 277.11 86.9513 277.317 86.9359 277.523C86.9205 277.73 86.86 277.93 86.7587 278.11C86.6574 278.291 86.5177 278.447 86.3495 278.567C84.9268 279.792 83.3548 280.832 81.6709 281.661C78.991 283.039 76.0634 283.869 73.059 284.104C70.0547 284.338 67.0338 283.971 64.1726 283.025C61.3115 282.08 58.6674 280.573 56.3948 278.594C54.1221 276.615 52.2664 274.204 50.9359 271.5C49.6054 268.796 48.8268 265.854 48.6456 262.846C48.4643 259.838 48.8841 256.824 49.8803 253.98C50.8765 251.136 52.4292 248.519 54.4478 246.282C56.4664 244.044 58.9105 242.231 61.6373 240.949L61.6848 240.911ZM75.5973 269.201C79.6116 267.227 81.2913 262.055 79.1181 257.575C76.9449 253.096 71.7443 251.245 67.73 253.219C63.7157 255.193 62.1308 260.451 64.2946 264.864C66.4583 269.277 71.4975 271.194 75.5973 269.201Z" fill="#EBEBEB"/>
<path d="M195.82 389.754C303.512 389.754 390.813 378.507 390.813 364.633C390.813 350.76 303.512 339.513 195.82 339.513C88.1285 339.513 0.827148 350.76 0.827148 364.633C0.827148 378.507 88.1285 389.754 195.82 389.754Z" fill="#EBEBEB"/>
<path d="M56.3794 273.633C51.6344 273.804 46.2345 274.079 42.2677 270.966C38.6045 268.119 35.3304 263.82 35.8239 258.914C35.9567 257.509 36.2794 256.646 37.7788 257.243C40.066 258.192 41.8311 260.679 43.416 262.444C45.4266 264.752 47.6508 266.865 50.059 268.755C51.7672 270.065 53.6083 271.194 55.345 272.456C55.5601 272.608 55.7784 272.769 55.9998 272.94L56.2466 273.13H56.3794C56.4184 273.131 56.4566 273.141 56.4911 273.159C56.5257 273.177 56.5556 273.203 56.5787 273.234C56.5856 273.262 56.5856 273.292 56.5787 273.32C56.5871 273.353 56.5885 273.388 56.5829 273.423C56.5773 273.457 56.5648 273.49 56.5462 273.519C56.5276 273.548 56.5032 273.573 56.4745 273.593C56.4458 273.613 56.4135 273.626 56.3794 273.633V273.633Z" fill="#455A64"/>
<path d="M56.6165 273.32C52.4029 273.244 47.8571 273.434 44.4786 270.577C42.9367 269.208 41.6176 267.607 40.5687 265.832C40.0847 265.035 38.6707 262.672 39.2306 261.733C40.322 260.034 45.3422 266.971 46.035 267.635C48.6701 270.021 51.8771 271.685 55.3448 272.466C55.5599 272.618 55.7782 272.779 55.9996 272.95C53.5359 272.447 51.1726 271.539 49.0054 270.264C46.016 268.48 44.3553 265.842 42.0112 263.384C41.5082 262.852 39.9803 261.059 39.4109 262.169C39.0313 262.909 40.4359 265.225 40.749 265.718C41.7459 267.401 42.9904 268.924 44.4407 270.236C47.8002 273.168 52.3269 273.083 56.5785 273.244C56.597 273.266 56.61 273.292 56.6165 273.32V273.32Z" fill="white"/>
<path d="M59.0186 276.556L58.9047 277.116C58.9002 277.139 58.8901 277.161 58.8752 277.179C58.8603 277.197 58.8411 277.211 58.8193 277.22C58.7723 277.238 58.7206 277.238 58.6735 277.221C58.6265 277.203 58.5873 277.17 58.5631 277.126C58.5538 277.106 58.549 277.085 58.549 277.064C58.549 277.042 58.5538 277.021 58.5631 277.002C58.5631 277.002 58.5631 276.955 58.5631 276.926L58.62 276.765C58.62 276.765 58.62 276.765 58.62 276.708C57.7754 273.538 57.4433 270.236 56.5512 267.066C55.6591 263.896 54.6532 261.068 54.0173 257.975C53.6282 256.029 52.2711 246.245 56.5797 247.46C58.4777 248.01 59.7968 250.772 60.5275 252.423C61.4738 254.649 62.0106 257.028 62.1124 259.445C62.4161 265.405 60.2333 270.843 59.0186 276.556Z" fill="#455A64"/>
<path d="M60.4025 264.38C60.4874 262.144 60.2542 259.908 59.7097 257.737C59.5199 256.988 58.5804 253.391 57.3657 253.476C56.578 253.524 56.4167 255.08 56.4167 255.593C56.1415 257.775 56.8437 259.996 57.2708 262.112C58.1125 266.421 58.639 270.785 58.8461 275.171C58.8461 275.446 58.7702 275.731 58.7418 276.006C58.7133 276.281 58.6753 276.461 58.6469 276.699V276.936C58.6469 276.993 58.6469 277.05 58.6469 277.116C58.6692 277.16 58.7062 277.194 58.7513 277.213C58.7964 277.232 58.8468 277.235 58.8936 277.221C58.8936 277.04 58.9505 276.86 58.9695 276.68C58.9695 276.831 58.9695 276.974 58.9695 277.116L59.0549 276.661C59.0594 276.626 59.0594 276.591 59.0549 276.556C59.0549 276.31 59.0549 276.063 59.0549 275.826C59.7303 272.041 60.1803 268.219 60.4025 264.38ZM58.941 274.25C58.8272 271.688 58.5709 269.135 58.2103 266.592C57.9161 264.542 57.5365 262.511 57.1 260.49C56.8213 259.352 56.6372 258.193 56.5495 257.026C56.5495 256.143 56.6444 252.841 58.3432 254.881C59.5674 256.371 59.8711 259.531 60.0134 261.344C60.1605 263.367 60.1224 265.4 59.8995 267.417C59.6623 269.704 59.2827 271.982 58.941 274.25Z" fill="white"/>
<path d="M61.5984 289.709C61.5416 289.716 61.4843 289.716 61.4276 289.709C57.0431 289.491 51.1972 289.899 47.553 287.005C44.8673 284.86 42.2196 280.627 43.0642 277.04C44.0132 272.988 49.508 277.847 50.9505 279.014C54.7222 282.292 58.3087 285.777 61.6933 289.453L61.7502 289.539C61.7977 289.652 61.7028 289.69 61.5984 289.709Z" fill="#455A64"/>
<path d="M61.7501 289.586L61.0004 289.111C58.1534 287.289 55.3063 285.315 52.6112 283.284C51.9279 282.762 46.993 278.369 46.2433 279.934C45.7973 280.883 47.4296 282.781 47.9515 283.474C48.8852 284.643 50.0079 285.647 51.2731 286.445C54.196 288.267 57.7453 288.665 61.0479 289.538L61.5129 289.652L61.5983 289.709C61.7027 289.69 61.7881 289.652 61.7501 289.586ZM53.0857 287.09C51.6853 286.455 50.4019 285.589 49.2896 284.528C48.5589 283.835 45.9586 281.206 46.6514 280.134C47.0215 279.555 47.3252 279.868 48.018 280.21C48.3458 280.365 48.6628 280.543 48.967 280.741C49.7072 281.225 50.381 281.785 51.0643 282.326C52.2695 283.275 53.4842 284.224 54.7369 285.173C56.7678 286.653 58.8651 288.02 61.0099 289.387C58.3622 288.532 55.5911 288.181 53.0857 287.09V287.09Z" fill="white"/>
<path d="M69.5991 280.684C68.4526 285.704 65.8397 290.269 62.0925 293.8C62.0686 293.823 62.0392 293.839 62.007 293.847C61.965 293.86 61.9198 293.859 61.8786 293.843C61.8374 293.828 61.8025 293.799 61.7793 293.762C61.7479 293.728 61.7305 293.684 61.7305 293.638C61.7305 293.592 61.7479 293.548 61.7793 293.515L61.9976 293.287C62.7283 287.327 63.5255 281.405 64.1328 275.427C64.2847 274.022 65.3855 265.064 68.1376 266.516C69.8364 267.417 69.9502 271.09 70.0926 272.741C70.3371 275.398 70.1707 278.078 69.5991 280.684V280.684Z" fill="#455A64"/>
<path d="M68.0148 272.693C67.8725 272.19 67.6068 271.678 67.0658 272.029C65.9935 272.703 65.5664 276.917 65.3956 278.084C64.6553 282.886 63.4976 287.508 62.3587 292.215L62.074 293.41L61.7988 293.761C61.822 293.799 61.857 293.828 61.8982 293.843C61.9394 293.858 61.9845 293.86 62.0266 293.847C62.0225 293.806 62.0225 293.765 62.0266 293.724C62.1405 293.572 62.2733 293.41 62.3777 293.249C64.2555 290.672 65.7218 287.82 66.7242 284.793C67.3507 282.878 67.7768 280.903 67.9959 278.9C68.2331 277.049 68.5748 274.497 68.0148 272.693ZM62.3967 292.926L62.2354 293.164C62.2828 293.002 62.3303 292.85 62.3777 292.68C63.51 289.098 64.4072 285.446 65.0634 281.747C65.3861 279.849 65.5854 277.951 66.0124 276.11C66.1833 275.322 66.5629 273.064 67.2177 272.703C67.8725 272.342 67.863 273.215 67.9294 273.718C67.9959 274.221 67.9294 274.743 67.9294 275.085C68.0172 281.467 66.0802 287.713 62.3967 292.926V292.926Z" fill="white"/>
<path d="M62.8243 306.65H61.9512C61.9512 305.881 61.9512 305.103 61.8943 304.344C61.7899 301.231 61.6665 298.109 61.4767 294.996C61.3723 293.221 61.2489 291.466 61.0686 289.719C61.0645 289.659 61.0645 289.599 61.0686 289.539C61.0686 289.397 61.0686 289.254 61.0686 289.112C61.0686 288.97 61.0686 288.799 61.0022 288.647C60.6062 284.698 59.591 280.835 57.9938 277.202C57.4339 275.997 56.8266 274.81 56.1907 273.634L56.0009 273.302C56.0041 273.273 56.0041 273.245 56.0009 273.216C55.944 273.093 55.8776 272.979 55.8111 272.865C55.7447 272.751 55.7067 272.694 55.6593 272.609C53.6284 269.04 51.3128 265.624 49.1111 262.17C48.4784 261.183 47.8458 260.196 47.2131 259.209C47.1685 259.153 47.1303 259.093 47.0992 259.028L46.9569 258.81C44.1952 254.454 41.4811 250.051 38.6056 245.771C38.5012 245.619 38.7574 245.477 38.8618 245.638C40.7598 248.485 42.8097 251.266 44.7931 254.075C45.0683 254.445 45.3246 254.824 45.5903 255.194C46.1217 255.935 46.6437 256.675 47.1562 257.415C48.2001 258.905 49.225 260.385 50.2309 261.894C53.1805 266.081 55.8743 270.441 58.2975 274.953C58.4683 275.294 58.6297 275.636 58.8005 275.987C58.9713 276.338 59.0093 276.414 59.0947 276.633L59.4363 277.382C61.2212 281.777 62.2202 286.45 62.3878 291.19L62.4447 292.187C62.4447 292.329 62.4447 292.491 62.4447 292.642C62.4396 292.725 62.4396 292.807 62.4447 292.889C62.4447 292.993 62.4447 293.098 62.4447 293.212C62.4447 293.278 62.4447 293.364 62.4447 293.449C62.4447 293.724 62.4447 294.009 62.4447 294.303C62.5681 297.416 62.6535 300.529 62.7199 303.632C62.7484 304.657 62.7863 305.653 62.8243 306.65Z" fill="#455A64"/>
<path d="M36.6597 250.221C34.2682 246.994 31.1839 240.342 34.7617 236.878C35.4083 236.216 36.2744 235.813 37.1971 235.745C38.1198 235.677 39.0356 235.948 39.7725 236.507C41.6705 237.855 42.4866 240.408 43.0845 242.524C44.7073 248.171 45.7797 253.912 47.8296 259.455C47.8296 259.455 48.0004 259.929 48.0478 260.052C48.0953 260.176 47.9055 260.214 47.858 260.1L47.6587 259.559C43.7773 256.864 39.5068 254.074 36.6597 250.221Z" fill="#455A64"/>
<path d="M337.639 259.265C337.24 262.473 336.633 265.633 335.988 268.755C335.617 270.539 335.228 272.323 334.868 274.126C334.469 276.1 333.919 278.112 334.422 280.096C334.43 280.187 334.43 280.279 334.422 280.371C334.394 280.403 334.358 280.428 334.317 280.442C334.277 280.456 334.233 280.459 334.191 280.452C334.149 280.444 334.11 280.426 334.077 280.398C334.044 280.371 334.019 280.335 334.004 280.295C334.01 280.251 334.01 280.206 334.004 280.162V280.115C333.713 279.591 333.481 279.038 333.311 278.463C332.697 276.951 332.168 275.404 331.726 273.832C330.797 270.624 330.274 267.311 330.17 263.972C330.091 260.982 330.41 257.995 331.119 255.089C331.689 252.764 332.505 249.3 334.232 247.497C335.807 245.893 337.079 248.446 337.563 249.775C338.502 252.831 338.009 256.247 337.639 259.265Z" fill="#455A64"/>
<path d="M334.772 252.479C333.605 252.479 332.76 256.275 332.343 257.879C331.693 260.445 331.359 263.081 331.346 265.728C331.362 270.468 332.18 275.172 333.766 279.64C333.823 279.82 333.88 280.01 333.946 280.19C333.952 280.235 333.952 280.279 333.946 280.323C333.96 280.365 333.985 280.402 334.018 280.43C334.051 280.459 334.092 280.478 334.135 280.484C334.178 280.491 334.222 280.486 334.263 280.469C334.303 280.453 334.338 280.425 334.364 280.39C334.288 280.001 334.231 279.612 334.184 279.222C334.136 278.833 334.108 278.511 334.079 278.16C333.922 274.301 334.163 270.437 334.801 266.629C335.427 262.226 336.319 252.489 334.772 252.479ZM333.937 278.976C333.994 279.488 334.079 280.001 334.174 280.513C334.051 280.134 333.937 279.763 333.823 279.393C332.539 275.398 331.798 271.249 331.621 267.056C331.545 264.704 331.717 262.35 332.134 260.033C332.373 258.787 332.69 257.558 333.083 256.351C333.244 255.848 334.089 252.698 334.81 252.849C335.313 252.963 335.436 255.801 335.446 255.858C335.446 256.427 335.446 256.997 335.446 257.576C335.446 258.743 335.351 259.92 335.256 261.087C335.028 263.621 334.668 266.145 334.364 268.679C333.817 272.082 333.674 275.539 333.937 278.976V278.976Z" fill="white"/>
<path d="M356.002 268.1C353.867 272.276 350.261 275.474 346.512 278.217C344.519 279.688 342.45 281.064 340.42 282.478C338.537 283.651 336.776 285.009 335.162 286.53L334.963 286.748C334.547 287.208 334.181 287.711 333.871 288.248C333.871 288.295 333.814 288.314 333.777 288.314C333.739 288.314 333.729 288.438 333.701 288.495C333.672 288.551 333.615 288.495 333.625 288.495C333.634 288.495 333.625 288.352 333.625 288.286C333.608 288.262 333.6 288.234 333.6 288.205C333.6 288.176 333.608 288.148 333.625 288.124V288.058V287.849C334.232 282.971 337.648 278.036 340.533 274.278C343.418 270.52 346.987 267.199 351.447 265.472C352.567 265.045 355.11 263.858 356.259 264.769C357.407 265.68 356.458 267.218 356.002 268.1Z" fill="#455A64"/>
<path d="M352.699 268.119C351.674 267.104 348.684 269.619 347.954 270.207C345.714 272.029 343.641 274.046 341.757 276.233C338.534 279.609 335.864 283.472 333.842 287.678V287.678L333.738 287.811C333.734 287.881 333.734 287.95 333.738 288.02C333.734 288.042 333.734 288.064 333.738 288.086C333.718 288.109 333.708 288.137 333.708 288.167C333.708 288.197 333.718 288.225 333.738 288.248L333.88 288.077C334.25 287.621 334.649 287.175 335.047 286.739L335.246 286.52C338.159 283.598 341.256 280.866 344.518 278.34C346.752 276.535 348.814 274.527 350.677 272.342C351.085 271.782 353.553 268.973 352.699 268.119ZM351.75 270.359C349.225 274.553 344.85 277.609 341.13 280.665C338.571 282.667 336.209 284.911 334.079 287.365C336.049 283.619 338.509 280.153 341.396 277.059C342.978 275.245 344.657 273.518 346.426 271.887C347.382 270.995 348.403 270.177 349.482 269.438C350.126 268.989 350.82 268.616 351.55 268.328C352.974 267.91 352.186 269.637 351.759 270.359H351.75Z" fill="white"/>
<path d="M333.215 298.194C333.193 298.232 333.162 298.263 333.123 298.285C333.085 298.307 333.041 298.318 332.997 298.317L333.054 298.393C333.067 298.407 333.075 298.426 333.075 298.445C333.075 298.464 333.067 298.483 333.054 298.497C333.048 298.505 333.04 298.512 333.031 298.516C333.022 298.52 333.012 298.523 333.002 298.523C332.992 298.523 332.982 298.52 332.973 298.516C332.964 298.512 332.956 298.505 332.95 298.497C328.992 294.473 325.177 289.577 323.203 284.262C322.356 282.013 321.878 279.641 321.789 277.239C321.789 275.598 321.666 272.286 323.071 271.09C325.918 268.679 328.48 278.891 328.86 280.428C329.562 283.275 330.027 286.122 330.672 288.912C331.374 291.997 332.314 295.024 333.234 298.051C333.247 298.099 333.24 298.15 333.215 298.194Z" fill="#455A64"/>
<path d="M333.216 298.194C333.055 297.937 332.912 297.672 332.77 297.406C330.375 293.125 328.656 288.499 327.674 283.693C327.243 281.262 326.608 278.871 325.776 276.547C325.539 275.987 324.827 273.804 323.878 274.905C323.394 275.484 323.802 279.603 323.992 280.665C324.469 283.088 325.241 285.443 326.288 287.679C328.001 291.447 330.178 294.986 332.77 298.213L332.998 298.497C333.011 298.483 333.019 298.465 333.019 298.445C333.019 298.426 333.011 298.407 332.998 298.393C332.974 298.371 332.955 298.346 332.941 298.317C332.994 298.33 333.05 298.325 333.1 298.302C333.149 298.28 333.19 298.242 333.216 298.194V298.194ZM327.522 289.415C326.374 287.251 325.461 284.97 324.798 282.611C324.541 281.675 324.342 280.724 324.201 279.764C324.081 279.007 324.017 278.243 324.011 277.477C324.011 275.579 324.172 275.133 324.485 275.066C324.798 275 324.95 275.228 325.501 276.347C325.834 277.074 326.097 277.83 326.288 278.606C326.583 279.707 326.829 280.817 327.076 281.928C327.551 284.148 328.025 286.388 328.651 288.571C329.562 291.704 330.883 294.704 332.58 297.491C330.655 294.947 328.947 292.245 327.475 289.415H327.522Z" fill="white"/>
<path d="M345.904 288.409C345.441 290.373 344.557 292.212 343.313 293.8C340.96 297.045 337.961 299.75 335.389 302.815C335.009 303.271 334.639 303.764 334.279 304.22C334.279 304.267 333.937 304.951 333.946 304.894C333.956 304.837 333.994 304.618 334.079 304.182C334.487 302.028 335.835 295.546 337.524 292.224C338.529 290.124 339.788 288.154 341.273 286.36C342.004 285.534 343.712 283.759 344.993 284.148C346.274 284.537 346.103 287.375 345.904 288.409Z" fill="#455A64"/>
<path d="M343.864 287.09C342.488 286.236 338.948 292.566 338.473 293.382C336.69 296.409 335.312 299.657 334.374 303.043C334.26 303.413 334.165 303.792 334.07 304.181C333.975 304.571 333.928 304.874 333.928 304.893C333.928 304.912 334.231 304.276 334.269 304.21L334.45 303.963C334.753 303.574 335.067 303.185 335.399 302.815C336.936 300.509 338.521 298.231 340.011 295.887C341.102 294.215 342.054 292.457 342.858 290.63C343.048 290.212 344.414 287.46 343.864 287.09ZM343.475 288.874C341.52 294.378 337.524 298.725 334.478 303.612L334.336 303.849C334.336 303.707 334.412 303.555 334.459 303.413C335.281 300.638 336.362 297.947 337.686 295.375C338.504 293.813 339.413 292.302 340.409 290.848C340.92 290.027 341.485 289.241 342.099 288.494C342.383 288.181 343.2 287.356 343.475 287.498C343.75 287.64 343.551 288.513 343.427 288.874H343.475Z" fill="white"/>
<path d="M359.713 242.961C355.622 252.347 344.908 256.712 340.258 265.737C340.116 266.012 339.983 266.297 339.85 266.582C339.838 266.61 339.819 266.635 339.795 266.654C339.77 266.673 339.742 266.686 339.711 266.691C339.681 266.695 339.65 266.692 339.621 266.681C339.592 266.671 339.566 266.653 339.546 266.629C339.529 266.608 339.52 266.581 339.52 266.553C339.52 266.526 339.529 266.499 339.546 266.477C339.574 266.406 339.606 266.336 339.641 266.269C340.543 260.497 342.471 254.933 345.335 249.841C347.689 245.523 350.896 241.471 355.347 239.193C356.448 238.634 358.583 237.447 359.817 238.377C361.051 239.307 360.216 241.803 359.713 242.961Z" fill="#455A64"/>
<path d="M356.031 243.369C355.509 242.98 354.722 243.445 354.276 243.672C353.163 244.255 352.124 244.969 351.182 245.798C349.25 247.499 347.583 249.479 346.238 251.673C343.819 255.364 341.862 259.339 340.411 263.507C340.107 264.456 339.832 265.405 339.604 266.354C339.604 266.468 339.557 266.591 339.519 266.705C339.54 266.728 339.566 266.746 339.596 266.757C339.625 266.767 339.657 266.77 339.688 266.765C339.719 266.761 339.748 266.748 339.773 266.73C339.798 266.711 339.819 266.686 339.832 266.657C339.955 266.382 340.088 266.117 340.221 265.841V265.765C341.015 263.893 341.991 262.104 343.134 260.422C345.015 257.878 347.057 255.456 349.246 253.172C350.119 252.233 357.834 244.678 356.031 243.369ZM355.376 245.533C354.143 247.744 352.216 249.537 350.537 251.416C348.857 253.295 347.12 255.212 345.459 257.11C344.13 258.635 342.933 260.27 341.882 261.998C341.003 263.433 340.256 264.945 339.651 266.515C340.079 264.916 340.611 263.346 341.246 261.818V261.77C342.398 259.056 343.723 256.419 345.213 253.874L345.26 253.779C346.506 251.502 348.023 249.383 349.777 247.469C350.746 246.442 351.825 245.526 352.994 244.735C354.342 243.862 355.519 243.302 355.841 243.729C356.164 244.156 355.747 244.887 355.376 245.533V245.533Z" fill="white"/>
<path d="M345.449 253.96C344.215 256.608 343.048 259.284 341.881 261.979C341.34 263.241 340.789 264.503 340.258 265.775V265.851C340.068 266.307 339.869 266.8 339.67 267.218C337.904 271.336 335.959 275.55 334.877 279.915C334.344 282.231 334.027 284.592 333.928 286.966C333.928 287.204 333.928 287.45 333.928 287.697C333.928 287.83 333.928 287.963 333.928 288.096C333.923 288.172 333.923 288.248 333.928 288.324C333.862 290.383 333.928 292.442 333.928 294.454C333.976 297.254 334.213 300.034 334.479 302.805C334.47 302.887 334.47 302.97 334.479 303.052C334.479 303.176 334.479 303.299 334.479 303.422C334.479 303.546 334.479 303.555 334.479 303.622V303.973C334.573 304.865 334.649 305.757 334.725 306.658H333.871C333.325 303.932 332.98 301.169 332.837 298.393C332.832 298.336 332.832 298.279 332.837 298.222C332.837 297.956 332.837 297.681 332.837 297.415C332.837 297.149 332.837 296.751 332.789 296.419C332.789 295.621 332.742 294.824 332.723 294.037C332.493 289.403 332.811 284.759 333.672 280.2C333.672 280.077 333.738 279.953 333.767 279.83C333.762 279.776 333.762 279.722 333.767 279.669C333.767 279.583 333.767 279.498 333.824 279.403L333.938 278.985C334.004 278.729 334.08 278.473 334.146 278.226L334.213 278.008C335.53 274.107 337.116 270.302 338.958 266.62C339.271 265.936 339.575 265.272 339.907 264.608C340.087 264.228 340.268 263.858 340.438 263.488L341.273 261.808V261.761C342.583 259.123 343.94 256.513 345.24 253.865C345.297 253.742 345.506 253.837 345.449 253.96Z" fill="#455A64"/>
<path d="M0.75 306.393L49.5196 306.165L98.2892 306.08L195.819 305.918L293.349 306.08L342.118 306.155L390.888 306.393L342.118 306.63L293.349 306.706L195.819 306.867L98.2892 306.706L49.5196 306.62L0.75 306.393Z" fill="#263238"/>
<path d="M278.649 0.782959H112.971C110.749 0.804045 108.553 1.26263 106.508 2.13252C104.463 3.00241 102.61 4.26657 101.053 5.85281C99.4971 7.43906 98.2685 9.31632 97.4378 11.3774C96.6071 13.4385 96.1904 15.643 96.2117 17.8651V358.939C96.1712 363.426 97.9137 367.746 101.056 370.949C104.199 374.152 108.484 375.976 112.971 376.021H278.649C283.139 375.979 287.428 374.156 290.574 370.953C293.72 367.749 295.466 363.429 295.428 358.939V17.8556C295.466 13.367 293.719 9.04706 290.573 5.84555C287.427 2.64404 283.138 0.823057 278.649 0.782959V0.782959ZM284.951 348.396C284.951 357.373 278.232 364.633 269.937 364.633H121.712C113.398 364.633 106.679 357.373 106.679 348.396V30.7811C106.679 12.4937 113.398 11.6017 121.712 11.6017H151.397C153.124 11.6017 154.538 13.5661 154.538 15.9956V17.049C154.538 22.743 157.651 22.743 161.485 22.743H230.145C234.008 22.743 237.092 22.743 237.092 17.049V15.9956C237.092 13.5661 238.487 11.6017 240.243 11.6017H269.937C278.232 11.6017 284.951 14.0406 284.951 30.7811V348.396Z" fill="#263238"/>
<path d="M205.177 15.6442H186.453C186.3 15.6455 186.149 15.6164 186.008 15.5586C185.867 15.5009 185.739 15.4157 185.631 15.3079C185.523 15.2001 185.438 15.072 185.381 14.931C185.323 14.7899 185.294 14.6388 185.295 14.4864V14.4864C185.295 14.1793 185.417 13.8849 185.634 13.6677C185.851 13.4506 186.146 13.3286 186.453 13.3286H205.177C205.484 13.3286 205.778 13.4506 205.995 13.6677C206.212 13.8849 206.334 14.1793 206.334 14.4864C206.336 14.6388 206.307 14.7899 206.249 14.931C206.191 15.072 206.106 15.2001 205.998 15.3079C205.89 15.4157 205.762 15.5009 205.621 15.5586C205.48 15.6164 205.329 15.6455 205.177 15.6442Z" fill="white"/>
<path d="M284.961 30.7812V348.396C284.961 357.373 278.232 364.633 269.938 364.633H121.712C113.399 364.633 106.68 357.373 106.68 348.396V30.7812C106.68 12.4938 113.399 11.6017 121.712 11.6017H151.397C153.124 11.6017 154.538 13.5661 154.538 15.9956V17.049C154.538 22.7431 157.651 22.7431 161.485 22.7431H230.146C234.008 22.7431 237.102 22.7431 237.102 17.049V15.9956C237.102 13.5661 238.488 11.6017 240.243 11.6017H269.938C278.232 11.6017 284.961 14.0406 284.961 30.7812Z" fill="white"/>
<path d="M284.953 30.7812V37.5666H106.672V30.7812C106.672 12.4938 113.4 11.6017 121.714 11.6017H151.408C153.135 11.6017 154.54 13.5661 154.54 15.9956V17.049C154.54 22.7431 157.662 22.7431 161.487 22.7431H230.147C234.01 22.7431 237.104 22.7431 237.104 17.049V15.9956C237.104 13.5661 238.499 11.6017 240.254 11.6017H269.939C278.234 11.6017 284.953 14.0406 284.953 30.7812Z" fill="#F21564"/>
<path d="M146.285 18.7383L145.991 19.023C145.942 19.0814 145.888 19.1353 145.83 19.1843C145.097 18.4515 144.104 18.0387 143.068 18.036C142.552 18.0331 142.041 18.1341 141.565 18.333C141.089 18.5319 140.657 18.8247 140.297 19.1938C140.251 19.1355 140.2 19.0815 140.145 19.0324L139.86 18.7477C139.974 18.6339 140.098 18.5295 140.221 18.4251C140.478 18.2133 140.758 18.0318 141.056 17.8841C141.407 17.7088 141.781 17.5842 142.166 17.514C142.356 17.514 142.537 17.4666 142.726 17.4381H143.21H143.59C143.941 17.4775 144.285 17.5604 144.615 17.6849C144.851 17.7731 145.08 17.881 145.298 18.0075C145.535 18.1395 145.757 18.2953 145.962 18.4725L146.266 18.7383H146.285Z" fill="white"/>
<path d="M141.208 20.0859L140.781 19.6114C141.084 19.3078 141.443 19.0669 141.839 18.9025C142.235 18.7382 142.659 18.6536 143.087 18.6536C143.516 18.6536 143.94 18.7382 144.336 18.9025C144.732 19.0669 145.091 19.3078 145.393 19.6114L144.938 20.0669C144.69 19.817 144.394 19.62 144.068 19.4878C143.741 19.3557 143.392 19.2912 143.04 19.2982C142.35 19.3111 141.692 19.5938 141.208 20.0859V20.0859Z" fill="white"/>
<path d="M144.47 20.5604L144.015 21.0064C143.761 20.7576 143.421 20.6179 143.066 20.6173C142.889 20.6162 142.713 20.651 142.55 20.7195C142.387 20.788 142.24 20.8888 142.117 21.0159L141.661 20.5604C141.845 20.3756 142.064 20.229 142.305 20.129C142.546 20.0289 142.805 19.9774 143.066 19.9774C143.327 19.9774 143.585 20.0289 143.826 20.129C144.067 20.229 144.286 20.3756 144.47 20.5604V20.5604Z" fill="white"/>
<path d="M143.473 21.4045C143.473 21.5126 143.43 21.6163 143.354 21.6927C143.278 21.7691 143.174 21.8121 143.066 21.8121C142.958 21.8121 142.854 21.7691 142.778 21.6927C142.701 21.6163 142.658 21.5126 142.658 21.4045C142.658 21.2964 142.701 21.1928 142.778 21.1163C142.854 21.0399 142.958 20.9969 143.066 20.9969C143.174 20.9969 143.278 21.0399 143.354 21.1163C143.43 21.1928 143.473 21.2964 143.473 21.4045Z" fill="white"/>
<path d="M119.482 20.7788C120.132 20.7788 120.659 20.252 120.659 19.6021C120.659 18.9521 120.132 18.4253 119.482 18.4253C118.833 18.4253 118.306 18.9521 118.306 19.6021C118.306 20.252 118.833 20.7788 119.482 20.7788Z" fill="white"/>
<path d="M122.025 19.6115C122.025 19.3765 122.095 19.1468 122.226 18.9515C122.357 18.7562 122.543 18.6042 122.76 18.5147C122.977 18.4252 123.216 18.4022 123.447 18.4488C123.677 18.4953 123.888 18.6093 124.054 18.7761C124.219 18.943 124.332 19.1552 124.376 19.386C124.421 19.6167 124.396 19.8555 124.305 20.0721C124.214 20.2887 124.06 20.4733 123.864 20.6025C123.667 20.7317 123.437 20.7997 123.202 20.7978C122.889 20.7953 122.59 20.6692 122.369 20.447C122.149 20.2248 122.025 19.9245 122.025 19.6115Z" fill="white"/>
<path d="M126.931 20.7788C127.581 20.7788 128.107 20.252 128.107 19.6021C128.107 18.9521 127.581 18.4253 126.931 18.4253C126.281 18.4253 125.754 18.9521 125.754 19.6021C125.754 20.252 126.281 20.7788 126.931 20.7788Z" fill="white"/>
<path d="M129.466 19.6116C129.466 19.3769 129.535 19.1476 129.666 18.9525C129.796 18.7574 129.981 18.6054 130.198 18.5156C130.415 18.4258 130.653 18.4023 130.884 18.4481C131.114 18.4939 131.325 18.6068 131.491 18.7727C131.657 18.9386 131.77 19.15 131.816 19.3801C131.861 19.6102 131.838 19.8488 131.748 20.0655C131.658 20.2823 131.506 20.4675 131.311 20.5979C131.116 20.7282 130.887 20.7978 130.652 20.7978C130.337 20.7978 130.036 20.6728 129.813 20.4504C129.591 20.2279 129.466 19.9262 129.466 19.6116V19.6116Z" fill="white"/>
<path d="M133.184 19.6116C133.184 19.3769 133.253 19.1476 133.384 18.9525C133.514 18.7574 133.699 18.6054 133.916 18.5156C134.133 18.4258 134.371 18.4023 134.601 18.4481C134.831 18.4939 135.043 18.6068 135.209 18.7727C135.375 18.9386 135.488 19.15 135.533 19.3801C135.579 19.6102 135.556 19.8488 135.466 20.0655C135.376 20.2823 135.224 20.4675 135.029 20.5979C134.834 20.7282 134.604 20.7978 134.37 20.7978C134.055 20.7978 133.754 20.6728 133.531 20.4504C133.309 20.2279 133.184 19.9262 133.184 19.6116V19.6116Z" fill="white"/>
<path d="M271.57 22.1736H261.966V17.7133H271.57V22.1736ZM262.441 21.6991H271.096V18.2162H262.441V21.6991Z" fill="white"/>
<path d="M268.961 18.4822H262.764V21.4241H268.961V18.4822Z" fill="white"/>
<path d="M272.443 18.7665H271.589V21.1485H272.443V18.7665Z" fill="white"/>
<path d="M133.765 330.706H132.418V336.932H129.884V333.762H125.395V336.932H122.861V330.706H121.504L127.634 324.367L133.765 330.706Z" fill="#EBEBEB"/>
<path d="M270.146 324.367H255.37V326.483H270.146V324.367Z" fill="#EBEBEB"/>
<path d="M270.146 329.595H255.37V331.712H270.146V329.595Z" fill="#EBEBEB"/>
<path d="M270.146 334.816H255.37V336.932H270.146V334.816Z" fill="#EBEBEB"/>
<path d="M133.479 71.1427C132.6 71.6932 131.639 72.1 130.632 72.3479C128.201 72.9547 125.63 72.622 123.433 71.4165C121.236 70.2109 119.574 68.221 118.78 65.8442C117.986 63.4673 118.117 60.8783 119.148 58.5941C120.179 56.3099 122.033 54.4985 124.341 53.5215C126.649 52.5445 129.24 52.4739 131.598 53.3237C133.955 54.1735 135.905 55.8813 137.059 58.106C138.213 60.3306 138.485 62.9086 137.821 65.3252C137.158 67.7418 135.607 69.8192 133.479 71.1427Z" fill="#DBDBDB"/>
<path d="M131.287 61.5487C131.287 62.1471 131.11 62.732 130.778 63.2296C130.445 63.7273 129.973 64.1153 129.42 64.3447C128.868 64.5741 128.26 64.6346 127.673 64.5186C127.086 64.4025 126.546 64.1151 126.122 63.6927C125.699 63.2703 125.41 62.7317 125.292 62.1451C125.174 61.5585 125.232 60.9501 125.46 60.3968C125.688 59.8434 126.074 59.37 126.571 59.0362C127.068 58.7024 127.652 58.5233 128.25 58.5214C128.649 58.5201 129.043 58.5975 129.412 58.7491C129.78 58.9007 130.115 59.1235 130.397 59.4047C130.679 59.6859 130.903 60.0201 131.056 60.388C131.208 60.7559 131.287 61.1504 131.287 61.5487V61.5487Z" fill="white"/>
<path d="M133.482 69.9086V71.1518C132.603 71.7023 131.642 72.1091 130.635 72.357C129.353 72.672 128.021 72.7277 126.717 72.5207C125.413 72.3137 124.164 71.8483 123.043 71.1518V69.9086C123 69.1966 123.103 68.4835 123.346 67.8129C123.589 67.1423 123.966 66.5285 124.455 66.0092C124.944 65.49 125.534 65.0762 126.189 64.7934C126.843 64.5105 127.549 64.3646 128.262 64.3646C128.975 64.3646 129.681 64.5105 130.336 64.7934C130.991 65.0762 131.581 65.49 132.069 66.0092C132.558 66.5285 132.936 67.1423 133.179 67.8129C133.422 68.4835 133.525 69.1966 133.482 69.9086V69.9086Z" fill="white"/>
<path d="M213.898 53.3107H150.666V58.5207H213.898V53.3107Z" fill="#EBEBEB"/>
<path d="M205.86 62.0035H150.666V65.4579H205.86V62.0035Z" fill="#EBEBEB"/>
<path d="M241.923 68.6562H150.666V72.1107H241.923V68.6562Z" fill="#EBEBEB"/>
<path d="M106.679 205.703L284.931 205.703V80.8796L106.679 80.8796L106.679 205.703Z" fill="#EBEBEB"/>
<path d="M127.49 116.353C127.49 119.274 128.356 122.129 129.979 124.557C131.601 126.985 133.908 128.878 136.606 129.996C139.304 131.113 142.273 131.406 145.138 130.836C148.002 130.266 150.633 128.86 152.698 126.795C154.764 124.73 156.17 122.098 156.74 119.234C157.309 116.37 157.017 113.4 155.899 110.702C154.782 108.004 152.889 105.698 150.461 104.075C148.032 102.453 145.177 101.587 142.257 101.587C138.341 101.589 134.587 103.146 131.818 105.914C129.049 108.683 127.493 112.438 127.49 116.353V116.353Z" fill="#DBDBDB"/>
<path d="M185.826 178.542H284.96L235.393 111.362L185.826 178.542Z" fill="#C7C7C7"/>
<path d="M146.974 178.864H228.807L187.895 135.115L146.974 178.864Z" fill="#DBDBDB"/>
<path d="M284.932 178.807H106.68V205.702H284.932V178.807Z" fill="#DBDBDB"/>
<path d="M133.481 271.526C132.6 272.069 131.639 272.472 130.634 272.721C128.208 273.319 125.646 272.979 123.459 271.771C121.272 270.562 119.621 268.573 118.836 266.201C118.052 263.829 118.19 261.248 119.225 258.973C120.259 256.699 122.113 254.898 124.417 253.93C126.72 252.963 129.304 252.9 131.653 253.754C134.001 254.607 135.941 256.315 137.085 258.536C138.229 260.758 138.494 263.329 137.826 265.737C137.158 268.144 135.606 270.211 133.481 271.526V271.526Z" fill="#DBDBDB"/>
<path d="M131.287 261.922C131.287 262.521 131.11 263.106 130.777 263.604C130.444 264.102 129.971 264.49 129.418 264.719C128.865 264.948 128.256 265.008 127.669 264.891C127.082 264.774 126.543 264.486 126.119 264.063C125.696 263.639 125.407 263.1 125.291 262.513C125.174 261.925 125.234 261.317 125.463 260.764C125.692 260.21 126.08 259.738 126.578 259.405C127.076 259.072 127.661 258.895 128.26 258.895C129.063 258.895 129.833 259.214 130.4 259.781C130.968 260.349 131.287 261.119 131.287 261.922V261.922Z" fill="white"/>
<path d="M133.482 270.273V271.526C132.6 272.07 131.64 272.473 130.635 272.722C129.353 273.039 128.021 273.096 126.717 272.889C125.412 272.682 124.163 272.215 123.043 271.517V270.273C123 269.562 123.103 268.848 123.346 268.178C123.589 267.507 123.966 266.893 124.455 266.374C124.944 265.855 125.534 265.441 126.189 265.158C126.843 264.875 127.549 264.729 128.262 264.729C128.975 264.729 129.681 264.875 130.336 265.158C130.991 265.441 131.581 265.855 132.069 266.374C132.558 266.893 132.936 267.507 133.179 268.178C133.422 268.848 133.525 269.562 133.482 270.273V270.273Z" fill="white"/>
<path d="M231.987 253.684H150.666V258.894H231.987V253.684Z" fill="#EBEBEB"/>
<path d="M254.478 262.378H150.666V265.832H254.478V262.378Z" fill="#EBEBEB"/>
<path d="M186.026 269.03H150.666V272.484H186.026V269.03Z" fill="#EBEBEB"/>
<path d="M284.932 281.253H106.68V311.745H284.932V281.253Z" fill="#EBEBEB"/>
<path d="M156.17 311.744H128.383C129.408 308.881 131.293 306.404 133.78 304.653C136.267 302.901 139.235 301.962 142.276 301.962C145.318 301.962 148.285 302.901 150.772 304.653C153.259 306.404 155.145 308.881 156.17 311.744V311.744Z" fill="#DBDBDB"/>
<path d="M118.657 220.327C118.38 219.193 118.446 218.001 118.846 216.904C119.246 215.807 119.963 214.854 120.905 214.164C121.848 213.474 122.973 213.08 124.14 213.03C125.307 212.981 126.462 213.278 127.46 213.885C128.457 214.492 129.252 215.382 129.744 216.441C130.236 217.5 130.403 218.681 130.224 219.835C130.044 220.989 129.527 222.063 128.736 222.923C127.946 223.783 126.918 224.389 125.784 224.664C125.031 224.848 124.249 224.882 123.483 224.763C122.717 224.645 121.983 224.377 121.321 223.974C120.659 223.571 120.083 223.041 119.625 222.416C119.168 221.79 118.839 221.08 118.657 220.327Z" fill="#EBEBEB"/>
<path fill-rule="evenodd" clip-rule="evenodd" d="M123.586 221.276C123.434 221.181 123.292 221.039 123.083 221.058C122.874 221.077 123.026 221.001 123.026 220.953V218.6C123.02 218.572 123.024 218.543 123.036 218.518C123.048 218.492 123.068 218.471 123.092 218.458C123.69 218.154 123.947 217.565 124.317 217.053C124.505 216.8 124.641 216.512 124.716 216.205C124.791 215.899 124.804 215.58 124.753 215.269C124.753 215.098 124.81 215.013 124.971 214.975C125.051 214.948 125.137 214.948 125.218 214.973C125.298 214.999 125.368 215.049 125.417 215.117C125.59 215.439 125.706 215.789 125.759 216.151C125.757 216.449 125.722 216.745 125.655 217.034C125.655 217.252 125.569 217.461 125.531 217.679C125.588 217.679 125.645 217.679 125.702 217.679H127.695C127.97 217.679 128.113 217.765 128.151 217.945C128.172 218.061 128.155 218.18 128.102 218.285C128.049 218.389 127.963 218.474 127.856 218.524C127.856 218.524 127.724 218.524 127.714 218.6C127.705 218.676 127.799 218.676 127.847 218.704C128.084 218.875 128.046 219.207 127.762 219.407C127.695 219.454 127.572 219.407 127.562 219.53C127.553 219.653 127.686 219.606 127.743 219.663C127.786 219.718 127.815 219.783 127.828 219.852C127.842 219.921 127.838 219.992 127.819 220.06C127.8 220.127 127.765 220.189 127.717 220.241C127.669 220.292 127.609 220.331 127.543 220.356L127.429 220.403C127.429 220.403 127.363 220.403 127.429 220.498C127.493 220.531 127.547 220.58 127.584 220.641C127.621 220.702 127.641 220.773 127.641 220.844C127.641 220.916 127.621 220.986 127.584 221.047C127.547 221.108 127.493 221.158 127.429 221.191L127.344 221.257C127.238 221.32 127.115 221.347 126.993 221.333H123.871C123.822 221.344 123.771 221.344 123.722 221.334C123.673 221.325 123.627 221.305 123.586 221.276V221.276Z" fill="white"/>
<path fill-rule="evenodd" clip-rule="evenodd" d="M120.624 219.852V218.353C120.624 218.248 120.624 218.201 120.757 218.201H122.588C122.702 218.201 122.721 218.248 122.721 218.353V221.361C122.721 221.494 122.721 221.532 122.56 221.532H120.785C120.643 221.532 120.624 221.475 120.624 221.351C120.634 220.886 120.624 220.393 120.624 219.852Z" fill="white"/>
<path d="M131.051 220.327C130.774 219.193 130.84 218.001 131.24 216.904C131.641 215.807 132.357 214.854 133.3 214.164C134.242 213.474 135.368 213.08 136.535 213.03C137.701 212.981 138.857 213.278 139.854 213.885C140.852 214.492 141.647 215.382 142.139 216.441C142.631 217.5 142.798 218.681 142.618 219.835C142.439 220.989 141.921 222.063 141.131 222.923C140.341 223.783 139.313 224.389 138.178 224.664C137.425 224.848 136.644 224.882 135.878 224.763C135.112 224.645 134.377 224.377 133.715 223.974C133.053 223.571 132.477 223.041 132.02 222.416C131.563 221.79 131.234 221.08 131.051 220.327V220.327Z" fill="#F21564"/>
<path d="M139.826 219.663C139.109 220.874 138.067 221.861 136.818 222.51C135.565 221.862 134.519 220.876 133.8 219.663C133.06 218.163 133.534 216.55 134.702 216.19C136.381 215.687 136.818 218.61 136.818 218.61C136.818 218.61 137.245 215.687 138.925 216.19C140.064 216.55 140.529 218.163 139.826 219.663Z" fill="white"/>
<path d="M235.395 218.154H151.645V221.561H235.395V218.154Z" fill="#EBEBEB"/>
<path d="M106.68 238.501L128.962 238.33L151.245 238.263L195.811 238.14L240.367 238.263L262.649 238.32L284.932 238.501L262.649 238.671L240.367 238.738L195.811 238.852L151.245 238.738L128.962 238.671L106.68 238.501Z" fill="#EBEBEB"/>
<path d="M44.1592 125.768H241.629V39.5978H44.1592V125.768Z" fill="#455A64"/>
<path d="M267.043 125.768H241.629V99.3004L267.043 125.768Z" fill="#455A64"/>
<path d="M225.916 54.4972H59.8867V56.139H225.916V54.4972Z" fill="white"/>
<path d="M175.486 63.3325H59.8867V64.9743H175.486V63.3325Z" fill="white"/>
<path d="M205.939 81.022H59.8867V82.6638H205.939V81.022Z" fill="white"/>
<path d="M225.916 89.8674H59.8867V91.5092H225.916V89.8674Z" fill="white"/>
<path d="M225.916 98.7021H59.8867V100.344H225.916V98.7021Z" fill="white"/>
<path d="M158.612 107.547H59.8867V109.189H158.612V107.547Z" fill="white"/>
<path d="M44.1592 329.881H241.629V271.204H44.1592V329.881Z" fill="#F21564"/>
<path d="M267.043 329.881H241.629V303.422L267.043 329.881Z" fill="#F21564"/>
<path d="M205.939 285.144H59.8867V286.786H205.939V285.144Z" fill="white"/>
<path d="M225.916 293.98H59.8867V295.622H225.916V293.98Z" fill="white"/>
<path d="M225.916 302.824H59.8867V304.466H225.916V302.824Z" fill="white"/>
<path d="M158.612 311.669H59.8867V313.311H158.612V311.669Z" fill="white"/>
<path d="M347.484 144.141H150.014V220.137H347.484V144.141Z" fill="#DBDBDB"/>
<path d="M124.597 220.137H150.011V193.67L124.597 220.137Z" fill="#DBDBDB"/>
<path d="M318.565 183.819H166.05V185.461H318.565V183.819Z" fill="white"/>
<path d="M299.879 192.663H166.05V194.305H299.879V192.663Z" fill="white"/>
<path d="M305.326 166.129H166.05V167.771H305.326V166.129Z" fill="white"/>
<path d="M329.061 157.294H166.05V158.936H329.061V157.294Z" fill="white"/>
<path d="M307.367 201.499H166.05V203.141H307.367V201.499Z" fill="white"/>
<path d="M308.241 70.2702C314.324 68.4196 317.503 64.3199 317.228 58.5025C313.432 57.4396 309.693 54.2699 309.693 49.5059V48.4525C309.647 47.2645 309.85 46.0802 310.289 44.9753C310.727 43.8704 311.392 42.8691 312.24 42.0357C313.087 41.2023 314.1 40.555 315.212 40.1353C316.324 39.7155 317.512 39.5326 318.699 39.5982C324.507 39.5982 328.189 44.087 328.189 51.2236V52.5522C328.189 61.5393 325.816 67.7363 321.546 71.855C318.101 75.4233 312.948 77.5491 309.104 77.5491C306.333 77.5491 305.014 75.9643 305.014 73.848C305.071 71.9879 306.39 70.7922 308.241 70.2702ZM277.569 70.2702C283.652 68.4196 286.822 64.3199 286.556 58.5025C282.76 57.4396 279.021 54.2699 279.021 49.5059V48.4525C278.976 47.2662 279.178 46.0836 279.616 44.98C280.053 43.8765 280.716 42.8762 281.561 42.0431C282.407 41.2099 283.417 40.5622 284.527 40.1413C285.637 39.7203 286.822 39.5354 288.008 39.5982C293.835 39.5982 297.498 44.087 297.498 51.2236V52.5522C297.498 61.5393 295.116 67.7363 291.016 71.855C287.438 75.4233 282.285 77.5491 278.584 77.5491C275.804 77.5491 274.352 75.9643 274.352 73.848C274.39 71.9879 275.709 70.7922 277.569 70.2702Z" fill="#455A64"/>
<path d="M151.37 261.609L151.418 261.78C151.807 263.279 154.644 274.421 158.374 289.13C158.649 290.193 158.934 291.275 159.218 292.385C165.434 316.841 173.729 349.402 177.648 364.833H186.104C186.104 365.013 186.104 365.203 186.104 365.383C186.113 365.2 186.113 365.016 186.104 364.833H248.112C241.725 339.969 225.535 274.867 222.669 263.365C222.612 263.137 222.555 262.919 222.517 262.738L222.233 261.609H151.37Z" fill="#AD6359"/>
<path d="M151.37 261.609L151.418 261.78L157.861 290.079L158.63 293.439L174.944 364.861H186.085C186.085 365.041 186.085 365.231 186.085 365.412C186.094 365.228 186.094 365.044 186.085 364.861H248.473L222.679 263.393L222.527 262.767L222.242 261.637L151.37 261.609Z" fill="#263238"/>
<path d="M222.268 261.751L195.126 364.861H186.111C186.12 364.953 186.12 365.045 186.111 365.136C186.116 365.045 186.116 364.953 186.111 364.861H174.941L158.628 293.467L157.859 290.079L151.396 261.78L151.349 261.609H222.221L222.268 261.751Z" fill="#37474F"/>
<path d="M219.943 261.61C219.943 261.657 219.943 261.78 219.943 261.97C219.943 262.16 219.943 262.606 219.867 263.09C219.81 263.802 219.743 264.76 219.639 265.937C219.633 265.962 219.633 265.988 219.639 266.013C219.595 266.608 219.538 267.262 219.468 267.977C219.354 269.173 219.231 270.502 219.088 271.963C219.041 272.447 218.984 272.96 218.927 273.482C218.922 273.557 218.922 273.634 218.927 273.709C218.927 274.013 218.851 274.317 218.823 274.658C218.794 275 218.728 275.494 218.671 275.921C218.614 276.348 218.557 276.965 218.491 277.496C218.367 278.559 218.234 279.66 218.102 280.78L217.959 281.871C217.76 283.437 217.532 285.041 217.304 286.692C217.2 287.404 217.086 288.115 216.991 288.837C216.896 289.558 216.735 290.459 216.612 291.276C216.612 291.57 216.526 291.873 216.479 292.168C215.995 295.176 215.454 298.308 214.846 301.468C214.761 301.952 214.657 302.417 214.552 302.882C214.305 304.154 214.049 305.425 213.774 306.678C213.641 307.333 213.489 307.997 213.347 308.652C213.205 309.307 213.11 309.762 212.967 310.313C212.341 313.084 211.648 315.845 210.889 318.55C210.728 319.138 210.557 319.727 210.396 320.315C210.234 320.904 210.025 321.587 209.836 322.213C209.57 323.162 209.295 324.064 209.001 324.965C208.706 325.867 208.498 326.493 208.241 327.243C208.165 327.49 208.07 327.737 207.985 327.974C207.9 328.211 207.824 328.448 207.729 328.686L207.634 328.733L207.406 328.809L207.159 328.904C207.068 328.932 206.98 328.967 206.894 329.008C206.419 329.188 205.726 329.454 204.844 329.834L203.961 330.204C203.477 330.422 202.936 330.64 202.357 330.916L201.598 331.267L201.437 331.343L200.716 331.684L199.15 332.434C198.068 332.966 196.891 333.554 195.638 334.209C195.012 334.522 194.367 334.864 193.74 335.224L192.716 335.784C191.691 336.344 190.618 336.951 189.498 337.597L188.749 338.043C188.749 338.043 188.749 338.043 188.692 338.043H188.635L187.828 338.508L187.23 338.859C187.23 338.859 187.23 339.001 187.23 339.267C187.22 339.358 187.22 339.451 187.23 339.542C187.225 339.64 187.225 339.738 187.23 339.836C187.23 340.093 187.23 340.415 187.23 340.785C187.23 341.156 187.23 341.241 187.23 341.507C187.23 341.915 187.23 342.351 187.173 342.845C187.173 342.987 187.173 343.139 187.173 343.281C187.168 343.376 187.168 343.471 187.173 343.566C187.173 343.936 187.173 344.335 187.173 344.752C187.173 344.847 187.173 344.942 187.173 345.037C187.173 345.132 187.173 345.369 187.173 345.53V345.673C187.173 345.825 187.173 345.986 187.173 346.147C187.173 346.508 187.173 346.878 187.173 347.267C187.173 348.083 187.107 348.928 187.069 349.829C187.069 350.048 187.069 350.266 187.069 350.475C187.069 350.987 187.069 351.5 187.069 352.031C187.069 352.563 187.069 353.047 187.002 353.569C186.936 354.09 187.002 354.442 186.946 354.878C186.889 355.315 186.946 355.533 186.946 355.827C186.946 356.34 186.946 356.843 186.879 357.365C186.822 358.75 186.765 360.145 186.718 361.531C186.718 362.575 186.642 363.647 186.594 364.748H115.343C115.552 362.008 115.763 359.269 115.979 356.529C116.216 353.474 116.453 350.427 116.662 347.409C116.671 347.229 116.671 347.049 116.662 346.869C117.611 335.072 118.465 323.665 119.281 313.226C119.585 309.253 119.882 305.435 120.173 301.772C120.173 301.155 120.259 300.538 120.316 299.921C120.439 298.27 120.581 296.637 120.695 295.043C120.913 292.338 121.122 289.757 121.303 287.328C121.359 286.644 121.416 285.961 121.473 285.306C121.843 280.504 122.176 276.281 122.422 272.77C122.422 272.115 122.517 271.479 122.555 270.872C123.039 264.912 123.305 261.515 123.305 261.515H165.906L219.943 261.61Z" fill="#AD6359"/>
<path d="M112.069 364.862H186.092C186.092 363.808 186.177 362.726 186.225 361.644C186.225 360.259 186.329 358.864 186.386 357.478C186.472 355.096 186.567 352.733 186.652 350.55C186.652 350.342 186.652 350.123 186.652 349.905C186.709 348.415 186.756 347.011 186.813 345.748V345.606C186.813 344.904 186.842 344.249 186.899 343.642C186.894 343.547 186.894 343.452 186.899 343.357C186.899 342.408 186.965 341.535 187.003 340.861C187.003 340.51 187.003 340.187 187.003 339.912C186.998 339.814 186.998 339.716 187.003 339.618C186.993 339.526 186.993 339.434 187.003 339.343C187.003 339.077 187.003 338.935 187.003 338.935L187.601 338.583L188.408 338.118L189.271 337.625C190.391 336.98 191.463 336.372 192.488 335.812C193.513 335.252 194.51 334.721 195.449 334.237C196.702 333.582 197.879 332.994 198.961 332.462L200.527 331.713L201.248 331.371L201.409 331.305L202.168 330.963L203.772 330.251L204.655 329.881C205.537 329.501 206.23 329.236 206.705 329.055C206.79 329.014 206.879 328.979 206.97 328.951L207.217 328.856L207.445 328.78L207.54 328.733C207.635 328.495 207.71 328.258 207.796 328.021C207.881 327.784 207.986 327.527 208.062 327.271C208.327 326.531 208.574 325.772 208.811 325.013C209.106 324.064 209.381 323.191 209.646 322.26C209.836 321.644 210.017 321.008 210.206 320.362C210.396 319.717 210.539 319.186 210.7 318.597C211.459 315.893 212.152 313.131 212.778 310.36C212.921 309.809 213.044 309.25 213.158 308.699C213.272 308.149 213.452 307.38 213.585 306.725C213.851 305.463 214.116 304.201 214.354 302.929C215.151 298.972 215.825 295.071 216.413 291.323C216.536 290.507 216.669 289.69 216.793 288.884C216.916 288.077 217.001 287.451 217.106 286.739C217.333 285.088 217.561 283.484 217.761 281.918L217.903 280.827C218.036 279.707 218.169 278.606 218.292 277.543C218.358 277.012 218.415 276.48 218.472 275.968C218.529 275.455 218.577 275.123 218.624 274.706C218.672 274.288 218.691 274.079 218.729 273.757C218.723 273.681 218.723 273.605 218.729 273.529C218.785 273.007 218.833 272.494 218.89 272.01C219.032 270.549 219.156 269.22 219.269 268.025C219.326 267.313 219.393 266.658 219.44 266.06C219.434 266.035 219.434 266.009 219.44 265.984C219.535 264.817 219.611 263.868 219.668 263.137C219.668 262.653 219.725 262.283 219.744 262.017C219.763 261.752 219.744 261.704 219.744 261.657H123.391C123.391 261.657 106.309 287.584 114.784 321.663C114.784 321.644 113.161 348.69 112.069 364.862Z" fill="#263238"/>
<path d="M178.169 342.673C181.424 340.415 184.936 338.517 188.38 336.571C191.825 334.626 195.479 332.671 199.152 330.963C206.393 327.773 213.84 325.075 221.444 322.887C221.634 322.82 221.767 323.133 221.577 323.219C214.317 326.332 207.275 329.909 200.053 333.107C196.428 334.721 192.765 336.268 189.13 337.852C185.495 339.437 181.946 341.269 178.283 342.797C178.15 342.854 178.084 342.73 178.169 342.673Z" fill="#37474F"/>
<path d="M198.031 307.162C198.126 303.603 198.372 300.045 198.553 296.486C198.97 288.087 199.293 279.65 200.071 271.28C200.083 271.219 200.115 271.165 200.163 271.125C200.21 271.086 200.27 271.064 200.332 271.064C200.394 271.064 200.454 271.086 200.501 271.125C200.549 271.165 200.581 271.219 200.593 271.28C200.697 277.771 200.451 284.291 200.318 290.782C200.251 294.037 200.156 297.283 200.071 300.529C199.892 303.632 199.87 306.742 200.005 309.848C200.175 312.182 200.697 316.738 203.744 317.013C206.591 317.279 208.204 314.166 208.925 311.898C210.747 306.118 211.402 299.874 211.991 293.866C212.342 290.308 212.693 286.758 212.94 283.181C213.264 279.533 213.384 275.871 213.3 272.21C213.3 271.982 213.642 271.992 213.651 272.21C213.851 275.883 214.354 279.527 214.477 283.209C214.6 286.891 214.61 290.545 214.373 294.199C214.135 297.852 213.851 301.231 213.329 304.704C212.97 307.884 212.211 311.006 211.07 313.995C210.007 316.453 208.223 318.74 205.423 319.262C205.085 319.325 204.742 319.36 204.398 319.366C204.398 320.116 204.266 320.875 204.209 321.625C204.133 322.802 203.981 323.969 203.829 325.136C203.66 326.286 203.419 327.424 203.108 328.543C202.859 329.675 202.457 330.767 201.912 331.789C201.891 331.822 201.86 331.847 201.824 331.86C201.788 331.874 201.748 331.876 201.711 331.865C201.673 331.854 201.64 331.832 201.617 331.801C201.593 331.77 201.58 331.733 201.58 331.694C201.558 330.571 201.65 329.448 201.855 328.344C202.016 327.196 202.178 326.038 202.415 324.909C202.652 323.779 202.852 322.688 203.079 321.568C203.231 320.828 203.336 320.059 203.478 319.3C202.585 319.147 201.744 318.774 201.031 318.213C200.318 317.653 199.757 316.924 199.397 316.092C198.069 313.35 197.964 310.114 198.031 307.162Z" fill="#37474F"/>
<path d="M120.972 305.084C126.068 305.444 131.098 306.099 136.203 305.492C141.023 305.002 145.618 303.204 149.489 300.291C157.888 293.772 161.57 283.114 163.848 273.112C163.862 273.071 163.889 273.037 163.926 273.015C163.962 272.993 164.005 272.985 164.048 272.991C164.09 272.998 164.128 273.02 164.156 273.052C164.184 273.085 164.199 273.126 164.199 273.169C163.25 281.842 161.352 290.811 155.791 297.786C153.378 300.858 150.328 303.37 146.851 305.15C143.158 306.867 139.116 307.699 135.046 307.58C130.271 307.542 125.52 306.905 120.905 305.682C120.866 305.677 120.828 305.665 120.793 305.646C120.759 305.627 120.728 305.601 120.704 305.571C120.679 305.54 120.661 305.504 120.65 305.466C120.639 305.428 120.635 305.389 120.64 305.349C120.644 305.31 120.656 305.272 120.675 305.238C120.694 305.203 120.72 305.172 120.751 305.148C120.781 305.123 120.817 305.105 120.855 305.094C120.893 305.083 120.932 305.079 120.972 305.084V305.084Z" fill="#37474F"/>
<path d="M186.101 364.861C186.101 365.042 186.101 365.231 186.101 365.412C186.111 365.228 186.111 365.045 186.101 364.861H186.462C186.823 359.281 187.658 342.417 187.715 338.602V338.033C187.715 337.881 187.117 338.099 187.098 338.242C187.079 338.384 187.098 338.574 187.041 338.801C186.652 342.446 185.712 355.485 185.484 359.841C185.409 361.511 185.333 363.181 185.285 364.861H186.101Z" fill="#37474F"/>
<path d="M208.348 168.606H201.154C200.68 165.095 199.636 159.372 197.909 156.316C197.909 156.316 199.513 164.06 198.858 168.606H192.528C191.978 163.709 190.488 154.827 186.625 148.554C186.805 149.218 189.985 161.232 189.225 168.606H133.538C131.07 156.857 132.978 144.065 132.01 146.855C129.419 154.305 128.669 163.368 128.517 168.606H122.311C122.138 165.639 122.307 162.662 122.814 159.733C123.63 155.832 120.432 163.529 120.024 168.606H116.104C116.104 168.606 115.317 151.866 121.447 139.927C129.58 124.05 124.816 118.166 128.157 100.78C131.953 81.0031 157.956 57.0691 183.939 82.085C186.037 84.1063 198.981 88.0827 198.241 113.089C197.823 127.229 195.147 134.708 200.006 141.977C206.032 151.049 208.614 161.014 208.348 168.606Z" fill="#263238"/>
<path d="M113.531 166.272C112.855 160.251 113.407 154.156 115.154 148.354C115.995 145.425 117.071 142.569 118.371 139.813C118.997 138.447 119.766 137.09 120.43 135.789C121.111 134.5 121.694 133.161 122.176 131.785C124.16 126.261 124.777 120.302 125.526 114.37C125.896 111.39 126.295 108.401 126.902 105.45C127.494 102.49 128.413 99.6065 129.645 96.8516C127.747 102.546 127.386 108.553 126.874 114.503C126.646 117.493 126.361 120.491 125.925 123.49C125.497 126.511 124.785 129.485 123.799 132.373C123.27 133.819 122.636 135.224 121.901 136.577C121.18 137.934 120.478 139.187 119.813 140.525C118.487 143.172 117.348 145.908 116.406 148.715C115.456 151.526 114.726 154.407 114.224 157.332C113.949 158.795 113.749 160.271 113.626 161.754C113.578 163.282 113.512 164.81 113.531 166.272Z" fill="#263238"/>
<path d="M198.211 113.118C198.335 115.519 198.164 117.92 198.211 120.311C198.259 122.703 198.268 125.056 198.477 127.429C198.68 129.773 199.076 132.097 199.663 134.375C199.796 134.945 199.996 135.495 200.157 136.055L200.28 136.473L200.413 136.824C200.518 137.061 200.65 137.308 200.783 137.555C201.343 138.56 201.989 139.576 202.615 140.601C203.849 142.66 205.063 144.767 206.117 146.959C207.174 149.149 208.06 151.417 208.764 153.745C209.466 156.074 209.949 158.463 210.207 160.881C210.449 163.286 210.449 165.708 210.207 168.113C210.036 163.353 209.123 158.65 207.502 154.172C205.839 149.738 203.714 145.492 201.163 141.502C200.546 140.477 199.91 139.462 199.322 138.361C199.17 138.077 199.028 137.792 198.895 137.488C198.762 137.184 198.771 137.146 198.714 136.995L198.582 136.549C198.42 135.96 198.221 135.372 198.107 134.774C197.556 132.391 197.238 129.959 197.158 127.514C197.083 125.098 197.166 122.679 197.405 120.273C197.604 117.872 197.946 115.462 198.211 113.118Z" fill="#263238"/>
<path d="M173.405 162.447C205.52 177.242 239.171 176.843 252.467 175.107C263.656 173.645 323.424 129.061 324.26 123.224C325.209 116.581 299.585 96.8705 284.525 101.587C282.949 102.081 242.977 139.927 239.655 140.496C233.582 141.559 202.976 143.116 189.728 144.292C167.683 146.39 157.243 155.007 173.405 162.447Z" fill="#D3766A"/>
<path d="M170.896 164.136C180.833 170.087 203.504 177.052 203.504 177.052L226.556 140.42C226.556 140.42 189.022 139.965 169.615 146.798C161.881 149.54 160.856 158.11 170.896 164.136Z" fill="#455A64"/>
<path d="M167.833 147.966C167.833 148.63 167.569 149.267 167.099 149.737C166.629 150.207 165.992 150.471 165.328 150.471C165.13 150.473 164.932 150.451 164.739 150.405C165.521 149.243 166.577 148.291 167.814 147.634C167.824 147.728 167.833 147.852 167.833 147.966ZM190.04 150.471C190.535 150.471 191.02 150.324 191.432 150.049C191.844 149.774 192.165 149.382 192.355 148.924C192.544 148.467 192.594 147.963 192.497 147.477C192.4 146.991 192.162 146.545 191.811 146.194C191.461 145.844 191.015 145.605 190.529 145.508C190.043 145.412 189.539 145.461 189.081 145.651C188.623 145.841 188.232 146.162 187.957 146.574C187.681 146.986 187.534 147.47 187.534 147.966C187.537 148.629 187.802 149.265 188.271 149.735C188.74 150.204 189.376 150.469 190.04 150.471V150.471ZM214.714 150.471C215.209 150.469 215.693 150.321 216.103 150.044C216.514 149.768 216.834 149.376 217.022 148.918C217.21 148.46 217.258 147.957 217.161 147.471C217.063 146.986 216.824 146.54 216.473 146.191C216.122 145.841 215.676 145.604 215.19 145.508C214.704 145.412 214.201 145.462 213.744 145.652C213.286 145.842 212.896 146.163 212.621 146.575C212.346 146.987 212.199 147.471 212.199 147.966C212.199 148.303 212.267 148.637 212.399 148.947C212.53 149.257 212.723 149.538 212.966 149.772C213.209 150.006 213.497 150.188 213.812 150.308C214.127 150.429 214.463 150.484 214.799 150.471H214.714ZM177.636 163.653C176.972 163.653 176.335 163.917 175.865 164.387C175.395 164.857 175.131 165.494 175.131 166.158C175.126 166.244 175.126 166.329 175.131 166.414C176.374 167.012 177.693 167.62 179.069 168.208C179.505 167.902 179.832 167.465 180.002 166.96C180.173 166.455 180.178 165.91 180.017 165.402C179.857 164.894 179.538 164.451 179.108 164.136C178.678 163.822 178.159 163.652 177.627 163.653H177.636ZM202.311 168.673C202.808 168.675 203.295 168.529 203.71 168.254C204.125 167.979 204.449 167.587 204.641 167.127C204.833 166.668 204.884 166.162 204.788 165.673C204.692 165.185 204.453 164.736 204.102 164.383C203.75 164.031 203.302 163.79 202.814 163.692C202.326 163.595 201.82 163.644 201.36 163.834C200.9 164.024 200.506 164.346 200.23 164.76C199.953 165.174 199.805 165.66 199.805 166.158C199.805 166.495 199.872 166.828 200.004 167.138C200.135 167.449 200.327 167.729 200.568 167.964C200.81 168.198 201.096 168.382 201.41 168.504C201.724 168.626 202.059 168.683 202.396 168.673H202.311Z" fill="white"/>
<path d="M170.887 164.137C180.833 170.097 203.505 177.043 203.505 177.043L208.316 169.394L173.535 145.584C172.188 145.963 170.868 146.371 169.654 146.798C161.891 149.531 160.856 158.167 170.887 164.137Z" fill="#263238"/>
<path d="M198.713 173.683C201.778 167.989 204.91 162.409 208.307 156.933C209.997 154.2 211.727 151.496 213.498 148.819C215.273 146.143 217.294 143.638 219.06 140.943C219.155 140.8 219.382 140.943 219.278 141.104C217.38 143.704 215.88 146.58 214.163 149.284C212.445 151.989 210.708 154.703 209.01 157.436C205.612 162.874 202.205 168.322 198.941 173.845C198.846 173.997 198.665 173.835 198.713 173.683Z" fill="#263238"/>
<path d="M222.24 261.609L212.57 215.772C212.57 215.772 222.297 200.863 214.695 187.937C210.852 181.389 190.97 157.417 179.288 148.791C165.546 138.627 152.364 147.975 147.24 154.94C136.971 168.881 126.779 201.679 123.239 261.657L222.24 261.609Z" fill="#455A64"/>
<path d="M162.812 147.965C162.811 147.468 162.956 146.98 163.232 146.566C163.507 146.151 163.899 145.827 164.358 145.635C164.818 145.443 165.324 145.392 165.812 145.488C166.301 145.584 166.75 145.823 167.102 146.174C167.455 146.526 167.695 146.974 167.793 147.462C167.891 147.95 167.842 148.456 167.652 148.916C167.462 149.376 167.139 149.77 166.725 150.046C166.312 150.323 165.825 150.471 165.327 150.471C164.662 150.471 164.024 150.207 163.552 149.738C163.081 149.268 162.815 148.631 162.812 147.965V147.965ZM140.606 186.875C141.101 186.875 141.586 186.728 141.998 186.453C142.41 186.177 142.731 185.786 142.92 185.328C143.11 184.87 143.16 184.367 143.063 183.881C142.966 183.395 142.728 182.948 142.377 182.598C142.027 182.247 141.58 182.009 141.094 181.912C140.608 181.815 140.105 181.865 139.647 182.055C139.189 182.244 138.798 182.565 138.522 182.977C138.247 183.389 138.1 183.874 138.1 184.369C138.11 185.028 138.378 185.657 138.847 186.12C139.315 186.583 139.947 186.844 140.606 186.846V186.875ZM165.327 186.875C165.822 186.873 166.306 186.724 166.717 186.448C167.127 186.172 167.447 185.78 167.635 185.322C167.823 184.864 167.872 184.36 167.774 183.875C167.676 183.389 167.437 182.944 167.086 182.595C166.735 182.245 166.289 182.007 165.803 181.911C165.317 181.816 164.814 181.866 164.357 182.056C163.9 182.246 163.509 182.567 163.234 182.978C162.959 183.39 162.812 183.874 162.812 184.369C162.82 185.031 163.089 185.662 163.56 186.126C164.031 186.59 164.666 186.849 165.327 186.846V186.875ZM190.002 186.875C190.497 186.875 190.981 186.728 191.393 186.453C191.805 186.177 192.127 185.786 192.316 185.328C192.506 184.87 192.555 184.367 192.459 183.881C192.362 183.395 192.124 182.948 191.773 182.598C191.423 182.247 190.976 182.009 190.49 181.912C190.004 181.815 189.501 181.865 189.043 182.055C188.585 182.244 188.194 182.565 187.918 182.977C187.643 183.389 187.496 183.874 187.496 184.369C187.506 185.035 187.779 185.669 188.256 186.133C188.733 186.598 189.374 186.854 190.04 186.846L190.002 186.875ZM212.208 184.341C212.209 184.858 212.37 185.362 212.669 185.784C212.968 186.205 213.391 186.523 213.879 186.694C213.452 186.002 212.901 185.205 212.246 184.312L212.208 184.341ZM152.933 168.701C153.431 168.701 153.917 168.554 154.33 168.277C154.744 168.001 155.066 167.608 155.257 167.149C155.447 166.689 155.497 166.184 155.4 165.696C155.303 165.208 155.063 164.76 154.712 164.408C154.36 164.056 153.912 163.817 153.424 163.72C152.936 163.623 152.43 163.673 151.971 163.863C151.511 164.053 151.119 164.376 150.842 164.789C150.566 165.203 150.418 165.689 150.418 166.186C150.422 166.517 150.491 166.845 150.622 167.149C150.752 167.453 150.941 167.729 151.178 167.96C151.416 168.191 151.696 168.373 152.004 168.495C152.311 168.617 152.64 168.678 152.971 168.673L152.933 168.701ZM177.607 168.701C178.105 168.703 178.592 168.557 179.007 168.282C179.422 168.007 179.746 167.615 179.938 167.155C180.129 166.696 180.181 166.19 180.085 165.702C179.989 165.213 179.75 164.764 179.399 164.411C179.047 164.059 178.599 163.818 178.111 163.721C177.623 163.623 177.117 163.672 176.657 163.862C176.197 164.052 175.803 164.374 175.527 164.788C175.25 165.202 175.102 165.689 175.102 166.186C175.106 166.52 175.176 166.849 175.308 167.156C175.44 167.462 175.632 167.739 175.872 167.97C176.112 168.201 176.396 168.383 176.707 168.503C177.018 168.624 177.35 168.682 177.683 168.673L177.607 168.701ZM140.53 223.26C141.028 223.262 141.515 223.116 141.929 222.841C142.344 222.565 142.668 222.173 142.86 221.714C143.052 221.255 143.103 220.749 143.007 220.26C142.911 219.772 142.672 219.323 142.321 218.97C141.969 218.617 141.521 218.377 141.033 218.279C140.545 218.181 140.039 218.231 139.579 218.421C139.119 218.611 138.726 218.933 138.449 219.347C138.172 219.761 138.024 220.247 138.024 220.745C138.028 221.078 138.098 221.408 138.23 221.714C138.362 222.02 138.554 222.297 138.794 222.529C139.035 222.76 139.318 222.941 139.629 223.062C139.94 223.183 140.272 223.24 140.606 223.231L140.53 223.26ZM165.251 223.26C165.749 223.26 166.235 223.112 166.649 222.836C167.062 222.56 167.384 222.167 167.575 221.707C167.765 221.248 167.815 220.742 167.718 220.254C167.621 219.766 167.381 219.318 167.03 218.967C166.678 218.615 166.23 218.375 165.742 218.278C165.254 218.181 164.749 218.231 164.289 218.422C163.829 218.612 163.437 218.934 163.16 219.348C162.884 219.761 162.737 220.248 162.737 220.745C162.74 221.079 162.81 221.41 162.943 221.716C163.076 222.023 163.269 222.301 163.51 222.532C163.751 222.764 164.036 222.945 164.348 223.065C164.66 223.185 164.993 223.241 165.327 223.231L165.251 223.26ZM189.926 223.26C190.423 223.262 190.911 223.116 191.325 222.841C191.74 222.565 192.064 222.173 192.256 221.714C192.448 221.255 192.499 220.749 192.403 220.26C192.307 219.772 192.068 219.323 191.717 218.97C191.365 218.617 190.917 218.377 190.429 218.279C189.941 218.181 189.435 218.231 188.975 218.421C188.515 218.611 188.122 218.933 187.845 219.347C187.568 219.761 187.42 220.247 187.42 220.745C187.424 221.082 187.495 221.414 187.629 221.723C187.764 222.032 187.959 222.311 188.204 222.543C188.448 222.774 188.736 222.955 189.052 223.073C189.367 223.192 189.703 223.245 190.04 223.231L189.926 223.26ZM213.081 218.79C212.718 219.081 212.442 219.468 212.286 219.907C212.13 220.347 212.1 220.821 212.198 221.276C212.297 221.732 212.521 222.151 212.844 222.486C213.168 222.821 213.579 223.06 214.03 223.174L213.081 218.79ZM130.432 201.319C130.223 202.363 130.015 203.416 129.815 204.498C130.11 204.264 130.349 203.967 130.513 203.629C130.677 203.29 130.763 202.919 130.764 202.543C130.764 202.113 130.649 201.69 130.432 201.319ZM152.971 205.048C153.469 205.048 153.956 204.901 154.369 204.624C154.783 204.347 155.105 203.954 155.296 203.494C155.486 203.034 155.535 202.527 155.437 202.039C155.339 201.551 155.099 201.103 154.746 200.752C154.393 200.4 153.944 200.162 153.456 200.066C152.968 199.97 152.462 200.021 152.002 200.213C151.543 200.405 151.151 200.728 150.876 201.143C150.6 201.558 150.454 202.045 150.456 202.543C150.456 202.873 150.521 203.199 150.648 203.504C150.774 203.809 150.96 204.085 151.194 204.318C151.427 204.551 151.704 204.735 152.01 204.86C152.315 204.986 152.641 205.05 152.971 205.048V205.048ZM177.645 205.048C178.144 205.05 178.631 204.904 179.046 204.628C179.461 204.353 179.785 203.96 179.977 203.5C180.168 203.04 180.219 202.534 180.122 202.045C180.025 201.556 179.785 201.107 179.433 200.755C179.081 200.403 178.632 200.163 178.143 200.066C177.655 199.97 177.148 200.02 176.688 200.212C176.228 200.403 175.836 200.727 175.56 201.142C175.284 201.557 175.138 202.045 175.14 202.543C175.14 202.875 175.206 203.204 175.334 203.511C175.463 203.817 175.651 204.095 175.887 204.328C176.124 204.561 176.405 204.745 176.713 204.869C177.021 204.992 177.351 205.053 177.683 205.048H177.645ZM202.32 205.048C202.818 205.05 203.305 204.904 203.72 204.628C204.135 204.353 204.459 203.96 204.651 203.5C204.842 203.04 204.893 202.534 204.796 202.045C204.699 201.556 204.46 201.107 204.107 200.755C203.755 200.403 203.306 200.163 202.817 200.066C202.329 199.97 201.822 200.02 201.362 200.212C200.902 200.403 200.51 200.727 200.234 201.142C199.959 201.557 199.812 202.045 199.814 202.543C199.815 202.878 199.884 203.21 200.015 203.518C200.146 203.826 200.337 204.106 200.578 204.339C200.818 204.572 201.103 204.755 201.415 204.877C201.727 204.999 202.061 205.057 202.396 205.048H202.32ZM140.53 259.607C141.028 259.609 141.515 259.463 141.929 259.188C142.344 258.912 142.668 258.52 142.86 258.061C143.052 257.602 143.103 257.096 143.007 256.607C142.911 256.119 142.672 255.67 142.321 255.317C141.969 254.964 141.521 254.724 141.033 254.626C140.545 254.528 140.039 254.578 139.579 254.768C139.119 254.958 138.726 255.28 138.449 255.694C138.172 256.108 138.024 256.594 138.024 257.092C138.024 257.428 138.091 257.76 138.222 258.07C138.352 258.38 138.544 258.66 138.784 258.894C139.025 259.129 139.31 259.312 139.623 259.435C139.936 259.557 140.27 259.616 140.606 259.607H140.53ZM165.251 259.607C165.749 259.607 166.235 259.459 166.649 259.183C167.062 258.907 167.384 258.514 167.575 258.054C167.765 257.595 167.815 257.089 167.718 256.601C167.621 256.114 167.381 255.665 167.03 255.314C166.678 254.962 166.23 254.722 165.742 254.625C165.254 254.528 164.749 254.578 164.289 254.769C163.829 254.959 163.437 255.281 163.16 255.695C162.884 256.108 162.737 256.595 162.737 257.092C162.736 257.429 162.804 257.762 162.935 258.072C163.066 258.382 163.258 258.663 163.5 258.898C163.741 259.132 164.028 259.316 164.342 259.438C164.656 259.559 164.991 259.617 165.327 259.607H165.251ZM189.926 259.607C190.423 259.609 190.911 259.463 191.325 259.188C191.74 258.912 192.064 258.52 192.256 258.061C192.448 257.602 192.499 257.096 192.403 256.607C192.307 256.119 192.068 255.67 191.717 255.317C191.365 254.964 190.917 254.724 190.429 254.626C189.941 254.528 189.435 254.578 188.975 254.768C188.515 254.958 188.122 255.28 187.845 255.694C187.568 256.108 187.42 256.594 187.42 257.092C187.42 257.431 187.488 257.767 187.621 258.079C187.754 258.391 187.949 258.673 188.193 258.908C188.438 259.143 188.728 259.326 189.045 259.446C189.362 259.566 189.701 259.621 190.04 259.607H189.926ZM214.6 259.607C215.097 259.607 215.584 259.459 215.997 259.183C216.411 258.907 216.733 258.514 216.923 258.054C217.114 257.595 217.163 257.089 217.066 256.601C216.969 256.114 216.73 255.665 216.378 255.314C216.026 254.962 215.578 254.722 215.09 254.625C214.603 254.528 214.097 254.578 213.637 254.769C213.178 254.959 212.785 255.281 212.509 255.695C212.233 256.108 212.085 256.595 212.085 257.092C212.084 257.44 212.155 257.784 212.294 258.103C212.432 258.422 212.636 258.708 212.891 258.945C213.146 259.181 213.447 259.362 213.775 259.476C214.104 259.59 214.453 259.634 214.799 259.607H214.6ZM128.25 241.424C128.745 241.424 129.229 241.277 129.641 241.002C130.053 240.726 130.375 240.335 130.564 239.877C130.754 239.419 130.803 238.916 130.707 238.43C130.61 237.944 130.371 237.497 130.021 237.147C129.671 236.797 129.224 236.558 128.738 236.461C128.252 236.365 127.749 236.414 127.291 236.604C126.833 236.793 126.442 237.115 126.166 237.527C125.891 237.939 125.744 238.423 125.744 238.918C125.744 239.583 126.008 240.22 126.478 240.69C126.948 241.16 127.585 241.424 128.25 241.424V241.424ZM152.924 241.424C153.419 241.422 153.902 241.273 154.313 240.997C154.724 240.721 155.043 240.329 155.232 239.871C155.42 239.413 155.468 238.909 155.37 238.424C155.273 237.939 155.033 237.493 154.682 237.144C154.332 236.794 153.885 236.556 153.4 236.461C152.914 236.365 152.411 236.415 151.953 236.605C151.496 236.795 151.105 237.116 150.83 237.528C150.556 237.939 150.409 238.423 150.409 238.918C150.409 239.252 150.475 239.583 150.605 239.891C150.734 240.198 150.924 240.477 151.163 240.71C151.401 240.944 151.684 241.127 151.995 241.25C152.306 241.372 152.637 241.431 152.971 241.424H152.924ZM177.598 241.424C178.094 241.424 178.578 241.277 178.99 241.002C179.402 240.726 179.723 240.335 179.913 239.877C180.102 239.419 180.152 238.916 180.055 238.43C179.959 237.944 179.72 237.497 179.37 237.147C179.019 236.797 178.573 236.558 178.087 236.461C177.601 236.365 177.097 236.414 176.639 236.604C176.181 236.793 175.79 237.115 175.515 237.527C175.24 237.939 175.093 238.423 175.093 238.918C175.092 239.255 175.16 239.588 175.291 239.897C175.422 240.207 175.615 240.487 175.856 240.721C176.098 240.955 176.384 241.137 176.698 241.258C177.012 241.379 177.347 241.435 177.683 241.424H177.598ZM202.272 241.424C202.768 241.424 203.252 241.277 203.664 241.002C204.076 240.726 204.397 240.335 204.587 239.877C204.777 239.419 204.826 238.916 204.729 238.43C204.633 237.944 204.394 237.497 204.044 237.147C203.693 236.797 203.247 236.558 202.761 236.461C202.275 236.365 201.771 236.414 201.313 236.604C200.856 236.793 200.464 237.115 200.189 237.527C199.914 237.939 199.767 238.423 199.767 238.918C199.768 239.258 199.837 239.593 199.971 239.905C200.105 240.217 200.301 240.498 200.547 240.732C200.792 240.966 201.083 241.148 201.4 241.267C201.718 241.386 202.057 241.439 202.396 241.424H202.272Z" fill="white"/>
<path d="M181.244 215.981C185.849 215.193 190.505 214.749 195.176 214.653C197.491 214.653 199.797 214.729 202.113 214.861C203.271 214.928 204.419 214.966 205.577 214.985C206.785 215.047 207.996 214.961 209.183 214.729C209.203 214.726 209.223 214.731 209.24 214.742C209.257 214.753 209.269 214.77 209.274 214.789C209.28 214.809 209.279 214.829 209.271 214.848C209.263 214.866 209.249 214.881 209.231 214.89C208.139 215.232 207.026 215.505 205.9 215.706C204.802 215.856 203.696 215.935 202.588 215.943C200.234 215.943 197.842 215.943 195.517 215.943C190.772 215.943 186.027 216.01 181.282 216.389C181.073 216.38 181.026 216.057 181.244 215.981Z" fill="#263238"/>
<path d="M171.146 222.899C174.747 221.53 178.422 220.368 182.155 219.416C184.053 218.951 185.951 218.591 187.849 218.278C188.798 218.126 189.671 218.002 190.582 217.879C191.493 217.756 192.603 217.746 193.609 217.604C193.714 217.604 193.752 217.746 193.609 217.765C192.66 217.926 191.711 218.249 190.829 218.477L187.982 219.132C186.084 219.578 184.252 220.081 182.383 220.47C178.634 221.333 174.904 222.216 171.184 223.203C171.061 223.26 171.004 222.966 171.146 222.899Z" fill="#263238"/>
<path d="M156.444 152.122C157.061 153.954 167.832 164.345 176.108 161.679C181.925 159.781 176.99 148.392 176.99 148.392L179.135 131.083L156.568 119.694C156.568 119.694 156.188 151.344 156.444 152.122Z" fill="#D3766A"/>
<path d="M156.444 130.751C158.563 134.793 161.49 138.355 165.044 141.217C168.599 144.079 172.704 146.179 177.104 147.387L179.145 131.045L156.568 119.657C156.568 119.657 156.511 124.639 156.444 130.751Z" fill="#263238"/>
<path d="M198.004 101.977C205.54 129.498 189.881 137.166 183.94 138.779C178.54 140.25 159.978 144.568 149.633 117.901C139.289 91.234 149.728 79.0487 161.885 75.0439C174.042 71.039 190.469 74.4175 198.004 101.977Z" fill="#D3766A"/>
<path d="M190.344 98.9493C189.684 98.9873 189.022 98.9873 188.361 98.9493C187.662 99.031 186.955 98.8809 186.349 98.5223C186.18 98.3752 186.065 98.1758 186.022 97.9557C185.979 97.7356 186.01 97.5075 186.112 97.3075C186.371 96.9387 186.724 96.6457 187.135 96.4588C187.545 96.272 187.998 96.1981 188.446 96.2446C189.371 96.2049 190.277 96.5092 190.99 97.0987C191.137 97.2424 191.24 97.4251 191.287 97.6253C191.334 97.8255 191.324 98.0351 191.256 98.2293C191.188 98.4235 191.066 98.5944 190.905 98.722C190.744 98.8495 190.549 98.9284 190.344 98.9493V98.9493Z" fill="#263238"/>
<path d="M171.069 103.248C171.715 103.039 172.284 102.745 172.901 102.479C173.582 102.296 174.182 101.892 174.609 101.331C174.721 101.134 174.759 100.903 174.716 100.68C174.672 100.457 174.55 100.257 174.372 100.116C173.994 99.8701 173.557 99.7297 173.106 99.7096C172.656 99.6896 172.208 99.7907 171.809 100.002C170.941 100.314 170.216 100.931 169.769 101.739C169.68 101.93 169.648 102.142 169.676 102.351C169.705 102.559 169.793 102.755 169.931 102.915C170.068 103.074 170.249 103.19 170.451 103.25C170.653 103.309 170.868 103.308 171.069 103.248V103.248Z" fill="#263238"/>
<path d="M176.402 108.648C176.402 108.582 176.279 108.772 176.298 108.848C176.772 110.746 177 112.995 175.406 114.01C175.358 114.01 175.406 114.134 175.406 114.105C177.494 113.355 177.162 110.366 176.402 108.648Z" fill="#263238"/>
<path d="M174.268 107.025C171.146 107.462 172.246 113.668 175.141 113.27C178.035 112.871 176.887 106.655 174.268 107.025Z" fill="#263238"/>
<path d="M173.11 107.567C172.626 108.013 172.209 108.734 171.564 108.914C170.918 109.094 170.131 108.572 169.533 108.032C169.466 107.975 169.419 108.032 169.438 108.126C169.628 109.313 170.301 110.461 171.611 110.404C172.921 110.347 173.452 109.161 173.509 107.918C173.547 107.68 173.3 107.386 173.11 107.567Z" fill="#263238"/>
<path d="M187.431 106.38C187.431 106.304 187.602 106.446 187.612 106.522C187.877 108.42 188.504 110.632 190.354 110.983C190.411 110.983 190.421 111.087 190.354 111.087C188.229 111.154 187.374 108.259 187.431 106.38Z" fill="#263238"/>
<path d="M188.817 104.074C191.873 103.315 193.164 109.493 190.336 110.195C187.508 110.897 186.246 104.71 188.817 104.074Z" fill="#263238"/>
<path d="M190.183 104.207C190.743 104.434 191.35 104.928 191.938 104.842C192.527 104.757 192.982 103.979 193.277 103.248C193.277 103.172 193.371 103.248 193.39 103.296C193.675 104.463 193.542 105.773 192.441 106.238C191.341 106.703 190.477 105.81 189.955 104.691C189.86 104.491 189.965 104.121 190.183 104.207Z" fill="#263238"/>
<path d="M180.22 124.316C180.742 124.715 181.282 125.265 181.994 125.265C182.712 125.151 183.4 124.893 184.016 124.506C184.028 124.498 184.042 124.495 184.057 124.496C184.071 124.497 184.085 124.503 184.095 124.513C184.106 124.523 184.113 124.535 184.116 124.55C184.119 124.564 184.117 124.578 184.111 124.591C183.882 125.008 183.546 125.356 183.137 125.598C182.728 125.84 182.261 125.968 181.785 125.967C181.377 125.915 180.993 125.742 180.683 125.472C180.372 125.202 180.148 124.846 180.039 124.449C179.992 124.326 180.144 124.259 180.22 124.316Z" fill="#263238"/>
<path d="M186.926 115.86C186.926 115.86 187.875 118.65 188.122 120.007C188.122 120.131 187.828 120.254 187.372 120.368C186.247 120.808 185.023 120.929 183.833 120.716C182.644 120.503 181.537 119.966 180.634 119.163C180.612 119.139 180.598 119.108 180.596 119.075C180.594 119.042 180.603 119.01 180.622 118.983C180.641 118.956 180.669 118.937 180.7 118.928C180.732 118.919 180.766 118.922 180.796 118.935C182.743 119.787 184.913 119.987 186.983 119.504C186.983 119.115 185.218 114.759 185.427 114.759C186.496 114.649 187.576 114.687 188.635 114.873C186.85 108.999 184.136 103.485 182.438 97.5822C182.427 97.5389 182.432 97.4932 182.451 97.4531C182.471 97.413 182.504 97.381 182.545 97.3629C182.585 97.3448 182.631 97.3416 182.674 97.354C182.717 97.3663 182.754 97.3934 182.779 97.4304C186.034 103.03 188.236 109.768 190.238 115.765C190.485 116.477 187.515 115.984 186.926 115.86Z" fill="#263238"/>
<path d="M187.051 119.761C186.523 121.02 185.68 122.122 184.602 122.959C184.003 123.404 183.279 123.646 182.533 123.652C180.911 123.652 180.502 122.267 180.464 121.004C180.448 120.329 180.512 119.653 180.654 118.993C182.65 119.922 184.891 120.192 187.051 119.761V119.761Z" fill="#263238"/>
<path d="M184.602 122.959C184.003 123.403 183.278 123.646 182.533 123.652C180.91 123.652 180.502 122.266 180.464 121.004C182.134 120.739 184.042 121.412 184.602 122.959Z" fill="#FF9BBC"/>
<path d="M150.741 119.107C152.404 117.966 153.741 116.413 154.623 114.6C155.505 112.786 155.9 110.775 155.77 108.763C160.333 105.894 164.045 101.857 166.523 97.0708C166.428 97.6781 165.697 102.034 165.26 104.245C182.476 98.2665 185.911 83.889 185.911 83.889C192.554 88.7574 194.224 92.2498 195.325 93.9485C195.325 93.9485 193.826 83.0634 187.135 76.6291C178.964 68.7523 155.505 69.8247 146.565 83.0539C136.98 97.3175 150.741 119.107 150.741 119.107Z" fill="#263238"/>
<path d="M154.367 116.895C154.367 116.895 146.632 109.246 143.054 112.15C139.477 115.054 146.404 126.935 151.396 127.827C152.029 127.985 152.687 128.013 153.33 127.91C153.974 127.807 154.59 127.575 155.142 127.227C155.693 126.88 156.169 126.424 156.539 125.888C156.91 125.352 157.169 124.746 157.299 124.107L154.367 116.895Z" fill="#D3766A"/>
<path d="M145.121 115.509C145.045 115.509 145.054 115.623 145.121 115.642C148.642 116.373 150.919 119.097 152.713 122.029C151.517 120.985 150.065 120.567 148.651 122.029C148.585 122.105 148.651 122.228 148.775 122.19C149.318 121.903 149.937 121.79 150.547 121.868C151.157 121.946 151.728 122.211 152.181 122.627C152.931 123.326 153.606 124.102 154.193 124.942C154.402 125.208 154.905 124.942 154.725 124.639C154.728 124.617 154.728 124.594 154.725 124.572C154.004 120.368 149.686 115.111 145.121 115.509Z" fill="#263238"/>
<path d="M336.876 200.267C351.217 162.986 332.62 121.139 295.34 106.799C258.059 92.4583 216.212 111.055 201.872 148.335C187.532 185.616 206.128 227.463 243.408 241.803C280.689 256.144 322.536 237.547 336.876 200.267Z" fill="#F21564"/>
<path d="M333.255 207.136L301.292 239.099L346.276 252.129L333.255 207.136Z" fill="#F21564"/>
<path d="M269.442 127.154C277.497 127.208 285.405 129.311 292.423 133.267C299.44 137.222 305.334 142.898 309.551 149.761C313.768 156.624 316.169 164.447 316.527 172.495C316.885 180.542 315.188 188.547 311.597 195.757C311.199 196.165 307.289 203.691 299.355 205.978C298.478 206.199 297.573 206.292 296.669 206.253C295.193 206.31 293.725 206.008 292.39 205.376C291.055 204.743 289.892 203.797 289.001 202.619C287.653 200.732 286.903 198.484 286.847 196.166V191.591C284.707 194.109 282.048 196.133 279.052 197.526C276.056 198.918 272.794 199.646 269.49 199.658C256.204 199.658 245.413 188.089 245.413 174.234C245.413 160.378 256.175 149.085 269.49 149.085C282.804 149.085 293.3 160.473 293.3 174.234V195.757H293.443C293.451 196.798 293.729 197.818 294.249 198.718C294.541 199.066 294.916 199.336 295.338 199.501C295.761 199.667 296.219 199.724 296.669 199.667H297.742C301.775 198.718 305.011 193.973 305.543 192.673C308.553 187.002 310.081 180.663 309.984 174.243C309.971 166.221 307.579 158.383 303.111 151.72C298.643 145.057 292.3 139.869 284.884 136.811C277.467 133.754 269.311 132.964 261.445 134.542C253.58 136.12 246.359 139.994 240.696 145.676C235.032 151.358 231.181 158.591 229.629 166.462C228.077 174.333 228.894 182.487 231.976 189.893C235.058 197.3 240.267 203.626 246.944 208.072C253.622 212.518 261.468 214.884 269.49 214.87C272.889 214.986 276.288 214.625 279.587 213.798C281.333 213.39 283.212 214.197 283.383 216.085C283.531 216.491 283.588 216.925 283.549 217.355C283.51 217.785 283.377 218.201 283.158 218.574C282.94 218.947 282.641 219.266 282.285 219.51C281.929 219.755 281.523 219.917 281.096 219.986C277.318 220.963 273.43 221.457 269.528 221.457C263.336 221.457 257.205 220.237 251.485 217.868C245.765 215.498 240.568 212.026 236.19 207.648C231.812 203.27 228.339 198.072 225.97 192.352C223.6 186.632 222.381 180.501 222.381 174.31C222.381 168.118 223.6 161.988 225.97 156.268C228.339 150.547 231.812 145.35 236.19 140.972C240.568 136.594 245.765 133.121 251.485 130.752C257.205 128.383 263.336 127.163 269.528 127.163L269.442 127.154ZM269.442 192.635C278.733 192.635 286.667 184.569 286.667 174.205C286.667 163.842 278.733 155.643 269.442 155.643C260.151 155.643 252.36 163.985 252.36 174.205C252.36 184.426 260.028 192.664 269.442 192.664V192.635Z" fill="white"/>
<path d="M143.188 184.066C147.515 218.562 154.329 265.832 172.427 269.477C202.178 275.446 228.969 280.979 248.034 279.802C254.858 279.384 249.268 231.621 241.961 231.402C232.471 231.08 191.208 225.708 188.674 222.036C187.241 219.948 176.773 199.554 162.263 172.421C147.126 144.084 141.802 172.981 143.188 184.066Z" fill="#D3766A"/>
<path d="M245.577 279.792C264.168 279.792 287.333 280.874 305.364 270.207C307.404 269.077 309.002 267.291 309.901 265.139C318.081 260.508 318.347 255.251 318.347 255.251C324.648 248.608 324.183 243.189 324.183 243.189C324.183 243.189 333.73 237.647 331.329 231.326C328.672 224.218 315.784 233.395 305.611 234.116C282.313 235.749 248.727 231.564 241.961 231.364L245.577 279.792Z" fill="#D3766A"/>
<path d="M282.398 252.992C289.25 252.376 295.988 251.948 302.717 250.402C310.1 248.712 316.952 245.846 323.936 243.094C323.958 243.084 323.982 243.077 324.006 243.076C324.03 243.075 324.055 243.078 324.077 243.086C324.1 243.094 324.121 243.106 324.14 243.122C324.158 243.138 324.173 243.158 324.183 243.18C324.194 243.201 324.2 243.225 324.201 243.249C324.203 243.274 324.199 243.298 324.192 243.321C324.184 243.344 324.171 243.365 324.155 243.383C324.139 243.401 324.12 243.416 324.098 243.426C312.188 250.411 296.187 253.941 282.427 253.306C282.095 253.287 282.057 253.068 282.398 252.992Z" fill="#263238"/>
<path d="M281.344 267.199C287.987 266.25 299.612 264.447 318.251 255.052C318.308 255.052 318.384 255.118 318.317 255.156C307.033 262.872 294.915 266.677 281.391 267.494C280.974 267.541 280.898 267.304 281.344 267.199Z" fill="#263238"/>
<path d="M280.918 274.896C292.135 272.817 298.949 270.084 309.843 265.168C309.9 265.168 309.967 265.235 309.9 265.273C298.095 272.162 293.036 273.33 280.937 275.294C280.519 275.313 280.481 274.896 280.918 274.896Z" fill="#263238"/>
<path d="M277.434 234.306C274.322 233.357 274.815 231.677 280.281 229.627C285.748 227.577 309.017 224.113 307.119 216.085C305.221 208.056 272.433 213.447 263.626 217.546C254.819 221.646 242.008 231.364 242.008 231.364C248.556 231.601 264.49 233.689 277.434 234.306Z" fill="#D3766A"/>
<path d="M142.949 221.637L177.787 194.467C177.787 194.467 168.715 174.225 162.11 163.719C153.369 149.835 146.166 149.816 143.025 169.688C140.88 182.984 142.949 221.637 142.949 221.637Z" fill="#455A64"/>
<path d="M143.119 184.341C143.118 184.744 143.019 185.14 142.833 185.497C142.646 185.853 142.377 186.16 142.047 186.391C142.047 185.005 142.047 183.658 142.113 182.339C142.425 182.571 142.678 182.874 142.853 183.221C143.027 183.569 143.119 183.952 143.119 184.341V184.341ZM165.326 186.846C165.821 186.845 166.305 186.696 166.715 186.42C167.126 186.143 167.446 185.751 167.634 185.293C167.822 184.835 167.87 184.332 167.773 183.847C167.675 183.361 167.436 182.916 167.085 182.566C166.734 182.217 166.288 181.979 165.802 181.883C165.316 181.787 164.813 181.837 164.356 182.027C163.898 182.217 163.508 182.538 163.233 182.95C162.958 183.362 162.811 183.846 162.811 184.341C162.811 184.671 162.876 184.997 163.003 185.302C163.129 185.607 163.315 185.883 163.548 186.116C163.782 186.349 164.059 186.533 164.364 186.658C164.669 186.784 164.996 186.848 165.326 186.846ZM152.989 168.673C153.486 168.673 153.973 168.525 154.386 168.249C154.8 167.973 155.122 167.58 155.312 167.12C155.503 166.661 155.553 166.155 155.456 165.667C155.358 165.18 155.119 164.731 154.767 164.38C154.416 164.028 153.967 163.789 153.48 163.692C152.992 163.594 152.486 163.644 152.027 163.835C151.567 164.025 151.174 164.347 150.898 164.761C150.622 165.174 150.474 165.661 150.474 166.158C150.474 166.822 150.736 167.459 151.204 167.93C151.671 168.401 152.306 168.668 152.97 168.673H152.989ZM142.863 219.587C142.92 220.764 142.958 221.485 142.967 221.618C143.096 221.292 143.153 220.942 143.135 220.591C143.117 220.241 143.024 219.899 142.863 219.587ZM152.989 205.048C153.487 205.048 153.973 204.901 154.387 204.624C154.801 204.347 155.123 203.954 155.313 203.494C155.503 203.034 155.553 202.528 155.455 202.039C155.357 201.551 155.117 201.103 154.764 200.752C154.411 200.401 153.962 200.162 153.474 200.066C152.985 199.97 152.479 200.021 152.02 200.213C151.561 200.405 151.168 200.729 150.893 201.143C150.618 201.558 150.472 202.045 150.474 202.543C150.474 203.206 150.737 203.842 151.205 204.311C151.672 204.781 152.307 205.046 152.97 205.048H152.989Z" fill="white"/>
<path d="M173.517 197.798C173.84 197.437 177.313 194.524 177.627 194.391C176.507 192.037 175.349 189.646 174.248 187.33C173.698 186.144 173.166 184.948 172.654 183.753C172.141 182.557 171.373 180.905 170.879 179.786C170.794 179.596 171.022 179.482 171.116 179.653C171.914 181.114 172.464 182.225 173.157 183.449C173.641 184.341 174.106 185.261 174.552 186.172L174.381 185.394C174.058 183.999 173.859 182.595 173.432 181.209C173.375 181.038 173.65 180.972 173.698 181.143C174.039 182.538 174.552 183.866 174.922 185.252C175.251 186.288 175.499 187.347 175.662 188.422C176.611 190.396 177.674 192.408 178.509 194.391C176.945 195.661 175.3 196.828 173.584 197.883C173.536 197.959 173.47 197.855 173.517 197.798Z" fill="#263238"/>
<path d="M143.9 215.573C148.693 211.274 153.542 207.031 158.572 203.036C161.103 201.037 163.633 199.072 166.164 197.143C168.736 195.245 171.507 193.556 174.041 191.601C174.183 191.487 174.344 191.724 174.202 191.819C171.573 193.641 169.153 195.833 166.61 197.798C164.067 199.762 161.533 201.745 159.018 203.738C153.988 207.724 148.939 211.701 144.005 215.8C143.929 215.914 143.777 215.696 143.9 215.573Z" fill="#263238"/>
<path d="M142.466 222.169C141.517 216.475 141.204 192.313 141.992 186.486C141.997 186.474 142.005 186.463 142.016 186.456C142.027 186.448 142.04 186.444 142.053 186.444C142.067 186.444 142.08 186.448 142.091 186.456C142.102 186.463 142.11 186.474 142.115 186.486C142.58 192.313 142.827 215.526 142.922 221.22C143.007 221.144 147.003 218.221 148.16 217.471C148.331 217.367 148.474 217.566 148.322 217.689C146.479 219.32 144.522 220.817 142.466 222.169V222.169Z" fill="#263238"/>
<path d="M282.246 97.5444C290.284 97.8386 302.298 94.3083 307.869 96.4151C309.267 96.8817 310.477 97.7865 311.319 98.9951C312.162 100.204 312.593 101.652 312.548 103.125C312.548 103.125 317.9 99.2431 322.664 101.995C325.113 103.409 325.008 108.562 325.008 108.562C325.008 108.562 329.431 105.639 333.549 108.344C336.795 110.498 336.197 115.348 336.197 115.348C336.197 115.348 341.758 114.513 344.368 117.777C349.654 124.42 334.185 154.105 320.842 152.995C314.626 152.483 318.802 145.403 318.802 145.403C318.802 145.403 310.346 154.096 304.139 151.097C297.933 148.098 303.912 139.225 303.912 139.225C303.912 139.225 295.646 147.576 289.525 143.78C283.157 139.832 290.645 132.022 290.645 132.022C290.645 132.022 282.72 136.292 278.706 132.316C272.063 125.749 288.538 118.413 290.388 111.077L281.487 101.862L282.246 97.5444Z" fill="#D3766A"/>
<path d="M294.706 96.4817C287.114 95.5327 283.375 83.5752 276.248 81.6297C266.606 79.0009 270.022 93.1697 281.467 101.882L291.546 107.092L294.706 96.4817Z" fill="#D3766A"/>
<path d="M336.197 116.136C336.197 116.113 336.206 116.091 336.222 116.075C336.238 116.059 336.26 116.05 336.282 116.05C336.305 116.05 336.327 116.059 336.343 116.075C336.359 116.091 336.368 116.113 336.368 116.136C333.663 127.154 327.305 138.428 318.602 145.802C318.318 146.048 317.796 145.688 318.061 145.356C325.578 136.084 331.528 127.22 336.197 116.136Z" fill="#263238"/>
<path d="M325.15 108.458C325.198 108.344 325.407 108.458 325.369 108.563C322.522 119.894 315.015 132.392 303.978 139.719C303.598 139.965 303.029 139.814 303.418 139.491C310.393 134.063 320.984 118.461 325.15 108.458Z" fill="#263238"/>
<path d="M289.656 132.297C299.962 124.867 306.862 114.883 312.432 103.609C312.508 103.467 312.708 103.609 312.679 103.723C311.445 109.986 307.118 116.8 303.312 121.811C299.863 126.54 295.232 130.28 289.884 132.658C289.704 132.753 289.428 132.459 289.656 132.297Z" fill="#263238"/>
</svg>
