<svg width="40" height="40" viewBox="0 0 40 40" fill="none" xmlns="http://www.w3.org/2000/svg">
<g filter="url(#filter0_d_484_3438)">
<circle cx="20" cy="20" r="14" fill="#FD8926"/>
<circle cx="20" cy="20" r="13.5" stroke="white"/>
</g>
<mask id="path-3-inside-1_484_3438" fill="white">
<path fill-rule="evenodd" clip-rule="evenodd" d="M24.119 17.6263L21.018 20.1231C20.4312 20.5832 19.6085 20.5832 19.0217 20.1231L15.894 17.6263"/>
</mask>
<path d="M24.805 18.4784C25.2755 18.0995 25.3499 17.4109 24.971 16.9404C24.5921 16.4698 23.9036 16.3955 23.433 16.7743L24.805 18.4784ZM21.018 20.1231L21.6929 20.9839C21.6966 20.981 21.7003 20.978 21.704 20.9751L21.018 20.1231ZM19.0217 20.1231L18.3392 20.978L18.3468 20.9839L19.0217 20.1231ZM16.5765 16.7715C16.1043 16.3946 15.4161 16.4718 15.0392 16.9439C14.6623 17.416 14.7395 18.1043 15.2116 18.4812L16.5765 16.7715ZM23.433 16.7743L20.332 19.2711L21.704 20.9751L24.805 18.4784L23.433 16.7743ZM20.3431 19.2623C20.1525 19.4116 19.8871 19.4116 19.6966 19.2623L18.3468 20.9839C19.3299 21.7547 20.7098 21.7547 21.6929 20.9839L20.3431 19.2623ZM19.7041 19.2682L16.5765 16.7715L15.2116 18.4812L18.3392 20.9779L19.7041 19.2682Z" fill="white" mask="url(#path-3-inside-1_484_3438)"/>
<path d="M26.4475 17.4001C26.4469 17.4108 26.4466 17.4215 26.4466 17.4322V22.178C26.4466 22.1887 26.4469 22.1994 26.4475 22.2101C26.4971 23.0542 26.2007 23.8814 25.6283 24.499C25.0568 25.1158 24.26 25.4697 23.4235 25.4799H16.5725C14.8079 25.4799 13.566 24.0571 13.566 22.178V17.4322C13.566 15.5531 14.8079 14.1303 16.5725 14.1303H23.4235C24.26 14.1405 25.0568 14.4945 25.6283 15.1112C26.2007 15.7288 26.4971 16.556 26.4475 17.4001Z" stroke="white" stroke-width="1.09384" stroke-linecap="round" stroke-linejoin="round"/>
<defs>
<filter id="filter0_d_484_3438" x="0" y="0" width="40" height="40" filterUnits="userSpaceOnUse" color-interpolation-filters="sRGB">
<feFlood flood-opacity="0" result="BackgroundImageFix"/>
<feColorMatrix in="SourceAlpha" type="matrix" values="0 0 0 0 0 0 0 0 0 0 0 0 0 0 0 0 0 0 127 0" result="hardAlpha"/>
<feOffset/>
<feGaussianBlur stdDeviation="3"/>
<feComposite in2="hardAlpha" operator="out"/>
<feColorMatrix type="matrix" values="0 0 0 0 0 0 0 0 0 0 0 0 0 0 0 0 0 0 0.13 0"/>
<feBlend mode="normal" in2="BackgroundImageFix" result="effect1_dropShadow_484_3438"/>
<feBlend mode="normal" in="SourceGraphic" in2="effect1_dropShadow_484_3438" result="shape"/>
</filter>
</defs>
</svg>
