<svg width="297" height="310" viewBox="0 0 297 310" fill="none" xmlns="http://www.w3.org/2000/svg">
<path d="M13.06 238.122H99.7993L102.589 183.14H10.2705L13.06 238.122Z" fill="#EBEBEB"/>
<path d="M93.4417 208.288H17.0617L16.0122 189.2H94.6672L93.4417 208.288ZM17.6981 207.611H92.8053L93.9496 189.877H16.7164L17.6981 207.611Z" fill="#DBDBDB"/>
<path d="M92.4053 230.27H19.2819L18.4153 213.022H93.4819L92.4053 230.27ZM19.8913 229.593H91.7689L92.7642 213.698H19.0924L19.8913 229.593Z" fill="#DBDBDB"/>
<path d="M64.0296 200.847H47.8409L47.2451 196.241H64.6255L64.0296 200.847ZM48.4571 200.171H63.4406L63.8604 196.918H48.017L48.4571 200.171Z" fill="#DBDBDB"/>
<path d="M64.0296 223.952H47.8409L47.2451 219.353H64.6255L64.0296 223.952ZM48.4571 223.276H63.4406L63.8604 220.029H48.017L48.4571 223.276Z" fill="#DBDBDB"/>
<path d="M25.0916 238.122L24.252 244.108L22.5526 256.148H19.2417V238.122H25.0916Z" fill="#EBEBEB"/>
<path d="M25.0916 238.122L24.252 244.108H19.2417V238.122H25.0916Z" fill="#DBDBDB"/>
<path d="M87.7751 238.122L88.6147 244.108L90.3074 256.148H93.6183V238.122H87.7751Z" fill="#EBEBEB"/>
<path d="M87.7751 238.122L88.6147 244.108H93.6183V238.122H87.7751Z" fill="#DBDBDB"/>
<path d="M179.788 23.0766H147.817V66.9867H179.788V23.0766Z" fill="#EBEBEB"/>
<path d="M215.361 23.0766H183.39V66.9867H215.361V23.0766Z" fill="#EBEBEB"/>
<path d="M179.788 70.585H147.817V114.495H179.788V70.585Z" fill="#EBEBEB"/>
<path d="M215.361 70.585H183.39V114.495H215.361V70.585Z" fill="#EBEBEB"/>
<path d="M253.189 23.0766H221.218V66.9867H253.189V23.0766Z" fill="#EBEBEB"/>
<path d="M288.762 23.0766H256.791V66.9867H288.762V23.0766Z" fill="#EBEBEB"/>
<path d="M253.189 70.585H221.218V114.495H253.189V70.585Z" fill="#EBEBEB"/>
<path d="M288.762 70.585H256.791V114.495H288.762V70.585Z" fill="#EBEBEB"/>
<path d="M259.872 304.386C277.2 304.386 291.247 301.086 291.247 297.014C291.247 292.942 277.2 289.641 259.872 289.641C242.544 289.641 228.496 292.942 228.496 297.014C228.496 301.086 242.544 304.386 259.872 304.386Z" fill="#EBEBEB"/>
<path d="M157.202 291.488C217.308 291.488 266.034 285.368 266.034 277.818C266.034 270.269 217.308 264.149 157.202 264.149C97.0954 264.149 48.3696 270.269 48.3696 277.818C48.3696 285.368 97.0954 291.488 157.202 291.488Z" fill="#EBEBEB"/>
<path d="M143.132 309.074C203.238 309.074 251.964 302.954 251.964 295.404C251.964 287.855 203.238 281.735 143.132 281.735C83.0258 281.735 34.3 287.855 34.3 295.404C34.3 302.954 83.0258 309.074 143.132 309.074Z" fill="#EBEBEB"/>
<path d="M6.52612 256.147L40.8129 255.978L75.0996 255.924L143.673 255.809L212.247 255.924L246.533 255.978L280.82 256.147L246.533 256.31L212.247 256.371L143.673 256.486L75.0996 256.371L40.8129 256.31L6.52612 256.147Z" fill="#263238"/>
<path d="M143.234 86.4937C148.53 49.8776 123.11 15.8968 86.4581 10.5956C49.8058 5.29431 15.7999 30.68 10.5039 67.2961C5.20784 103.912 30.6271 137.893 67.2794 143.194C103.932 148.496 137.938 123.11 143.234 86.4937Z" fill="#F21564"/>
<path opacity="0.1" d="M143.866 81.2372C145.445 45.972 118.106 16.1057 82.8049 14.529C47.5034 12.9522 17.6063 40.2622 16.028 75.5274C14.4497 110.793 41.7877 140.659 77.0893 142.236C112.391 143.812 142.288 116.502 143.866 81.2372Z" fill="black"/>
<path d="M139.804 81.6501C141.605 48.6287 116.269 20.4005 83.214 18.6006C50.1587 16.8006 21.9014 42.1106 20.0996 75.1319C18.2978 108.153 43.6338 136.381 76.6892 138.181C109.745 139.981 138.002 114.671 139.804 81.6501Z" fill="white"/>
<path d="M138.535 65.6745C111.235 82.1983 66.3727 109.3 41.3009 124.16C34.2127 118.189 28.6065 110.658 24.9226 102.158L107.85 25.3763C115.598 29.4504 122.359 35.1688 127.66 42.1304C132.961 49.0919 136.673 57.128 138.535 65.6745Z" fill="#EBEBEB"/>
<path d="M139.849 80.4532C139.631 87.1158 138.292 93.6942 135.888 99.9124L61.1258 135.239C57.8675 134.163 54.7095 132.806 51.6875 131.181C74.2677 118.161 115.535 94.4406 139.849 80.4532Z" fill="#EBEBEB"/>
<path d="M80.5304 22.8534H79.3726V31.9303H80.5304V22.8534Z" fill="#C7C7C7"/>
<path d="M52.6565 29.997L51.6538 30.5753L56.1969 38.4361L57.1996 37.8578L52.6565 29.997Z" fill="#C7C7C7"/>
<path d="M32.0894 50.1083L31.5105 51.1099L39.3794 55.6484L39.9583 54.6467L32.0894 50.1083Z" fill="#C7C7C7"/>
<path d="M33.4473 77.8086H24.3611V78.9652H33.4473V77.8086Z" fill="#C7C7C7"/>
<path d="M39.3809 101.116L31.512 105.655L32.0909 106.656L39.9598 102.118L39.3809 101.116Z" fill="#C7C7C7"/>
<path d="M56.1948 118.331L51.6558 126.194L52.6587 126.772L57.1977 118.908L56.1948 118.331Z" fill="#C7C7C7"/>
<path d="M80.5304 124.844H79.3726V133.92H80.5304V124.844Z" fill="#C7C7C7"/>
<path d="M103.704 118.331L102.701 118.909L107.245 126.77L108.247 126.192L103.704 118.331Z" fill="#C7C7C7"/>
<path d="M120.51 101.104L119.931 102.105L127.8 106.644L128.379 105.642L120.51 101.104Z" fill="#C7C7C7"/>
<path d="M135.542 77.8086H126.455V78.9652H135.542V77.8086Z" fill="#C7C7C7"/>
<path d="M127.805 50.1282L119.936 54.6667L120.515 55.6683L128.384 51.1298L127.805 50.1282Z" fill="#C7C7C7"/>
<path d="M107.248 30.0065L102.709 37.8697L103.712 38.4475L108.251 30.5843L107.248 30.0065Z" fill="#C7C7C7"/>
<path d="M80.8214 26.959L82.7916 82.4282L77.1042 82.3538L79.2776 26.9455L80.8214 26.959Z" fill="#F21564"/>
<path d="M115.406 59.0393L78.0522 82.8611L75.3372 77.8695L114.668 57.6866L115.406 59.0393Z" fill="#263238"/>
<path d="M79.9483 80.3247C81.0215 80.3247 81.8915 79.4556 81.8915 78.3835C81.8915 77.3114 81.0215 76.4423 79.9483 76.4423C78.8751 76.4423 78.0051 77.3114 78.0051 78.3835C78.0051 79.4556 78.8751 80.3247 79.9483 80.3247Z" fill="#F21564"/>
<path d="M211.184 200.658C214.67 202.396 218.117 204.202 221.556 206.015C224.996 207.828 228.415 209.688 231.848 211.527C235.28 213.367 238.673 215.268 242.065 217.175L247.143 220.05C248.822 221.03 250.528 221.991 252.187 222.992C250.44 222.126 248.72 221.226 246.98 220.34L241.814 217.635C238.368 215.822 234.955 213.955 231.523 212.123C228.09 210.29 224.705 208.375 221.313 206.468C217.92 204.561 214.535 202.64 211.184 200.658Z" fill="#A6A6A6"/>
<path d="M249.296 200.658C246.189 202.444 243.04 204.168 239.892 205.886C236.744 207.604 233.568 209.268 230.413 210.952C227.258 212.637 224.055 214.26 220.853 215.883L216.046 218.298C214.434 219.076 212.83 219.88 211.205 220.645C212.755 219.745 214.333 218.886 215.89 218L220.629 215.416C223.785 213.705 226.96 212.035 230.108 210.35C233.257 208.666 236.473 207.043 239.669 205.426C242.864 203.81 246.053 202.2 249.296 200.658Z" fill="#A6A6A6"/>
<path d="M172.483 200.658C175.97 202.396 179.416 204.202 182.855 206.015C186.295 207.828 189.714 209.688 193.147 211.527C196.58 213.367 199.972 215.268 203.357 217.175L208.442 220.05C210.121 221.03 211.827 221.991 213.486 222.992C211.739 222.126 210.019 221.226 208.279 220.34L203.113 217.635C199.667 215.822 196.255 213.955 192.822 212.123C189.389 210.29 185.997 208.375 182.612 206.468C179.226 204.561 175.834 202.64 172.483 200.658Z" fill="#A6A6A6"/>
<path d="M210.588 200.658C207.48 202.444 204.332 204.168 201.184 205.886C198.035 207.604 194.853 209.268 191.705 210.952C188.556 212.637 185.347 214.26 182.145 215.883L177.337 218.298C175.726 219.076 174.121 219.88 172.496 220.645C174.047 219.745 175.624 218.886 177.182 218L181.921 215.416C185.076 213.705 188.252 212.035 191.4 210.35C194.548 208.666 197.765 207.043 200.96 205.426C204.156 203.81 207.352 202.2 210.588 200.658Z" fill="#A6A6A6"/>
<path d="M179.558 195.308L177.506 207.591L163.62 282.526H161.378L171.48 207.591L172.97 195.308H179.558Z" fill="#A6A6A6"/>
<path d="M172.97 195.308H179.558L177.507 207.591H171.481L172.97 195.308Z" fill="#263238"/>
<path d="M223.182 282.526H220.941L207.054 207.591L205.002 195.308H211.59L213.08 207.591L223.182 282.526Z" fill="#A6A6A6"/>
<path d="M211.59 195.308L213.08 207.591H207.054L205.002 195.308H211.59Z" fill="#263238"/>
<path d="M264.848 282.526H262.607L248.714 207.591L246.662 195.308H253.25L254.746 207.591L264.848 282.526Z" fill="#A6A6A6"/>
<path d="M254.746 207.591H248.714L246.662 195.308H253.25L254.746 207.591Z" fill="#263238"/>
<path d="M261.293 201.077H159.51V190.364H197.608L210.419 108.015H257.414L261.293 201.077Z" fill="#A6A6A6"/>
<path d="M261.294 201.077H255.749L252.134 108.015H257.415L261.294 201.077Z" fill="#DBDBDB"/>
<path d="M190.588 131.668C195.517 136.193 203.053 137.079 209.444 136.545C215.964 135.99 223.134 134.286 228.517 130.41C230.946 128.743 232.864 126.434 234.056 123.741C235.254 120.833 235.024 118.005 232.918 115.767C231.225 113.961 227.975 112.98 227.691 111.133C227.407 109.287 228.68 107.603 228.829 105.77C229.072 102.631 227.102 100.609 224.698 98.9587C219.004 95.0425 219.424 88.6779 215.477 83.3346C213.236 80.2976 207.386 74.9476 198.997 79.0599C195.801 80.6223 193.973 84.0448 193.093 87.4334C192.057 91.4172 193.946 96.1653 192.531 100.061C191.319 103.382 188.936 104.241 187.791 107.704C187.311 109.206 187.223 110.883 189.2 113.954C189.917 115.063 190.764 116.795 190.486 118.283C190.1 120.352 187.927 121.604 187.48 123.768C186.891 126.744 188.414 129.673 190.588 131.668Z" fill="#263238"/>
<path d="M232.206 124.816C235.158 123.856 235.815 119.453 233.56 117.6C232.138 116.423 230.222 116.071 228.821 114.894C226.478 112.966 227.961 110.68 228.706 108.326C230.324 103.22 226.634 100.501 222.801 98.0862C219.89 96.2465 218.983 93.7777 218.312 90.5176C218.312 90.4703 218.38 90.45 218.394 90.5176C219.003 92.8984 219.7 95.2184 221.664 96.8552C223.262 98.2079 225.232 98.9587 226.796 100.352C229.416 102.686 230.127 105.547 229.037 108.834C228.726 109.781 228.028 110.903 227.995 111.891C227.92 114.211 229.782 115.117 231.549 115.949C232.903 116.626 234.413 117.356 235.104 118.79C236.153 120.961 234.603 124.37 232.301 124.972C232.159 125.026 232.091 124.857 232.206 124.816Z" fill="#263238"/>
<path d="M230.919 127.373C232.599 125.953 234.454 124.62 235.239 122.469C236.397 119.29 234.041 117.397 231.854 115.611C230.906 114.847 230.093 114.062 229.938 112.797C229.714 110.91 230.825 109.118 230.764 107.217C230.608 102.685 225.835 100.67 223.133 97.748C220.432 94.826 219.071 90.9842 217.622 87.2439C217.622 87.1627 217.717 87.1154 217.744 87.1966C219.585 91.9312 221.745 96.3546 225.787 99.6148C228.611 101.887 231.624 104.349 231.102 108.36C230.974 109.341 230.554 110.288 230.425 111.262C230.215 113.21 230.906 114.339 232.335 115.489C233.763 116.639 235.28 117.694 235.781 119.48C236.763 122.95 233.628 125.844 231.102 127.63C231.068 127.643 231.031 127.645 230.996 127.635C230.961 127.624 230.931 127.603 230.91 127.573C230.889 127.544 230.878 127.508 230.88 127.471C230.882 127.435 230.896 127.401 230.919 127.373Z" fill="#263238"/>
<path d="M186.524 122.781C187.669 120.393 189.91 118.939 188.752 115.976C187.973 113.947 186.558 112.432 186.612 110.126C186.747 108.265 187.513 106.506 188.786 105.141C190.296 103.301 192.036 101.759 192.99 99.5066C194.026 97.0716 194.236 94.3864 194.473 91.7892C194.473 91.7351 194.561 91.7418 194.561 91.7892C194.439 95.286 194.182 98.8978 192.056 101.854C190.946 103.389 189.497 104.661 188.407 106.209C186.443 109.003 186.904 111.62 188.407 114.461C189.084 115.767 189.761 117.079 189.361 118.587C188.962 120.095 187.791 121.184 187.059 122.51C183.958 128.151 191.068 133.467 196.213 133.548C196.444 133.548 196.477 133.907 196.213 133.907C192.381 133.961 187.852 131.201 186.403 127.644C186.081 126.87 185.926 126.037 185.947 125.199C185.968 124.361 186.165 123.537 186.524 122.781Z" fill="#263238"/>
<path d="M187.141 125.425C186.802 123.18 187.974 121.712 188.745 119.784C189.957 116.747 187.757 114.326 187.053 111.451C186.846 110.505 186.83 109.528 187.005 108.575C187.181 107.623 187.545 106.715 188.075 105.905C189.429 103.632 191.312 101.847 192.293 99.3375C193.317 96.6435 193.529 93.7092 192.903 90.8964C192.903 90.8423 192.97 90.8423 192.984 90.8964C193.488 92.7831 193.592 94.7545 193.287 96.6836C192.983 98.6127 192.278 100.457 191.217 102.097C189.863 104.187 187.831 106.047 187.31 108.631C186.755 111.336 188.448 113.501 189.233 116.003C189.48 116.738 189.578 117.514 189.52 118.286C189.461 119.059 189.249 119.812 188.894 120.501C188.278 121.526 187.822 122.639 187.54 123.802C187.388 125.483 187.844 127.163 188.827 128.536C191.637 132.886 197.046 134.996 201.847 134.962C202.016 134.962 202.05 135.233 201.847 135.233C199.672 135.278 197.509 134.894 195.484 134.101C193.458 133.308 191.61 132.123 190.045 130.613C188.545 129.24 187.527 127.421 187.141 125.425Z" fill="#263238"/>
<path d="M156.74 282.783C158.548 283.405 210.37 283.77 212.354 282.539C213.106 282.08 214.555 261.369 214.128 259.347C212.693 252.481 205.834 231.676 205.834 231.676L171.168 231.331L180.417 259.015L180.532 265.103C180.532 265.103 160.599 273.801 158.568 275.39C156.537 276.98 154.932 282.167 156.74 282.783Z" fill="#DD6A57"/>
<path d="M156.578 282.857C158.399 283.48 210.506 283.852 212.504 282.614C213.431 282.039 213.973 270.974 214.291 259.286L180.397 258.948L180.505 265.035C180.505 265.035 160.491 273.828 158.447 275.404C156.402 276.98 154.763 282.235 156.578 282.857Z" fill="#F21564"/>
<path d="M157.343 280.781C166.078 280.632 201.353 280.842 209.985 281.356C210.053 281.356 210.053 281.403 209.985 281.41C201.326 281.748 166.078 281.254 157.343 280.923C157.161 280.916 157.161 280.781 157.343 280.781Z" fill="#263238"/>
<path d="M179.287 263.107C182.733 262.492 186.931 263.046 189.538 265.515C189.639 265.61 189.504 265.752 189.396 265.718C186.119 264.632 182.734 263.902 179.3 263.54C179.243 263.542 179.187 263.521 179.145 263.482C179.103 263.442 179.079 263.388 179.077 263.331C179.075 263.273 179.096 263.217 179.136 263.176C179.175 263.134 179.229 263.109 179.287 263.107Z" fill="#263238"/>
<path d="M176.795 264.582C180.234 263.966 184.439 264.521 187.046 266.99C187.147 267.084 187.012 267.226 186.897 267.193C183.622 266.109 180.239 265.379 176.809 265.015C176.751 265.016 176.695 264.995 176.653 264.956C176.611 264.917 176.587 264.862 176.585 264.805C176.583 264.748 176.604 264.692 176.644 264.65C176.683 264.608 176.738 264.584 176.795 264.582Z" fill="#263238"/>
<path d="M174.304 266.056C177.743 265.441 181.948 266.002 184.554 268.464C184.656 268.559 184.52 268.701 184.405 268.667C181.13 267.585 177.748 266.858 174.317 266.496C174.265 266.489 174.217 266.463 174.182 266.424C174.147 266.385 174.127 266.334 174.125 266.282C174.123 266.229 174.141 266.178 174.173 266.137C174.206 266.095 174.252 266.067 174.304 266.056Z" fill="#263238"/>
<path d="M171.812 267.538C175.251 266.915 179.456 267.477 182.063 269.939C182.164 270.04 182.029 270.182 181.914 270.142C178.638 269.06 175.256 268.332 171.825 267.97C171.768 267.972 171.712 267.951 171.67 267.912C171.628 267.873 171.604 267.818 171.602 267.761C171.6 267.703 171.621 267.648 171.661 267.606C171.7 267.564 171.754 267.539 171.812 267.538Z" fill="#263238"/>
<path d="M174.5 260.023C176.917 261.93 180.079 262.729 182.909 263.79C183.2 263.905 183.437 263.628 183.451 263.364C183.465 263.364 183.48 263.361 183.492 263.354C183.505 263.347 183.516 263.337 183.524 263.325C183.532 263.313 183.537 263.299 183.539 263.285C183.54 263.27 183.538 263.256 183.532 263.243C182.514 260.195 180.708 257.47 178.298 255.343C176.87 254.125 174.358 253.273 172.997 255.119C171.636 256.966 173.092 258.907 174.5 260.023ZM173.647 257.25C173.065 253.483 177.1 255.485 178.116 256.425C178.765 257.041 179.369 257.703 179.923 258.407C181.055 259.866 182.111 261.383 183.085 262.952C181.731 262.343 180.33 261.856 178.948 261.295C177.303 260.625 173.965 259.333 173.647 257.25Z" fill="#263238"/>
<path d="M195.048 258.096C194.229 255.945 191.582 256.066 189.882 256.878C186.99 258.28 184.518 260.417 182.712 263.074C182.704 263.085 182.699 263.098 182.696 263.112C182.694 263.126 182.695 263.141 182.698 263.154C182.702 263.168 182.709 263.181 182.719 263.191C182.728 263.202 182.74 263.21 182.753 263.216C182.734 263.28 182.73 263.348 182.742 263.414C182.754 263.48 182.781 263.542 182.821 263.596C182.861 263.65 182.913 263.693 182.973 263.724C183.033 263.754 183.099 263.77 183.166 263.77C186.179 263.5 189.436 263.581 192.279 262.418C193.938 261.721 195.807 260.125 195.048 258.096ZM187.682 262.438C186.206 262.607 184.723 262.702 183.254 262.925C184.615 261.677 186.039 260.498 187.519 259.394C188.246 258.871 189.006 258.397 189.794 257.974C191.027 257.345 195.455 256.492 193.857 260.003C192.977 261.89 189.415 262.235 187.682 262.438Z" fill="#263238"/>
<path d="M237.71 180.15C231.353 186.461 222.497 190.445 214.961 194.354C208.488 197.682 202.997 200.929 200.919 205.501C199.097 209.559 214.209 254.071 214.209 254.071L177.526 257.385C177.526 257.385 161.567 213.827 165.562 195.078C166.239 192 169.293 188.017 173.687 183.668C189.388 168.179 221.941 148.05 221.941 148.05H241.935C241.935 148.05 250.229 167.705 237.71 180.15Z" fill="#455A64"/>
<path d="M239.682 152.399C239.6 151.493 239.505 150.586 239.417 149.693C239.417 149.605 239.268 149.605 239.282 149.693C240.108 156.971 240.792 164.952 237.359 171.709C234.055 178.202 227.433 182.112 221.536 185.967L210.838 193.069L205.476 196.6C204.006 197.525 202.584 198.525 201.217 199.596C199.97 200.561 198.915 201.752 198.11 203.106C197.284 204.641 196.93 206.384 197.094 208.118C197.967 219.82 209.566 250.811 209.836 251.812C209.856 251.857 209.892 251.893 209.937 251.913C209.982 251.934 210.033 251.937 210.08 251.923C210.127 251.909 210.167 251.879 210.194 251.837C210.22 251.795 210.23 251.746 210.222 251.697C207.704 243.892 200.913 226.522 197.873 210.858C197.487 208.829 197.195 206.725 197.825 204.73C198.381 203.142 199.343 201.726 200.615 200.624C201.855 199.524 203.184 198.529 204.589 197.648L210.006 194.05L220.629 187.036C226.431 183.201 232.972 179.481 236.743 173.421C240.704 167.117 240.325 159.501 239.682 152.399Z" fill="#263238"/>
<path d="M237.711 180.15C231.353 186.461 222.497 190.445 214.961 194.354C201.643 190.864 184.825 186.501 173.66 183.695C189.361 168.206 221.915 148.077 221.915 148.077H241.909C241.909 148.077 250.23 167.705 237.711 180.15Z" fill="#263238"/>
<path d="M88.8304 256.56C90.3741 257.683 139.739 273.436 142.001 272.847C142.86 272.631 145.576 265.583 148.616 256.973C149.293 255.113 149.97 253.192 150.606 251.23C154.946 238.528 159.252 224.946 159.252 224.946L126.259 214.314L118.513 240.889L116.814 246.726C116.814 246.726 95.2084 249.14 92.798 250.053C90.3877 250.966 87.2867 255.431 88.8304 256.56Z" fill="#DD6A57"/>
<path d="M88.6542 256.58C90.2047 257.717 139.847 273.551 142.143 272.962C143.192 272.692 147.004 262.282 150.796 251.224L118.526 240.828L116.813 246.692C116.813 246.692 95.0931 249.12 92.6692 250.033C90.2453 250.946 87.1037 255.451 88.6542 256.58Z" fill="#F21564"/>
<path d="M90.0016 254.822C98.3837 257.277 131.98 267.95 140.105 271.014C140.172 271.014 140.159 271.082 140.105 271.062C131.736 268.816 98.228 257.866 90.0016 254.964C89.7782 254.896 89.8188 254.774 90.0016 254.822Z" fill="#263238"/>
<path d="M116.211 244.473C119.684 244.906 123.53 246.685 125.284 249.817C125.351 249.938 125.182 250.033 125.081 249.965C122.275 247.958 119.263 246.255 116.096 244.886C116.048 244.865 116.01 244.827 115.988 244.78C115.966 244.733 115.961 244.68 115.975 244.63C115.989 244.58 116.02 244.537 116.064 244.508C116.107 244.479 116.159 244.467 116.211 244.473Z" fill="#263238"/>
<path d="M113.395 245.143C116.861 245.576 120.707 247.355 122.468 250.486C122.535 250.601 122.359 250.696 122.264 250.635C119.457 248.626 116.443 246.923 113.273 245.555C113.224 245.535 113.184 245.497 113.161 245.449C113.138 245.401 113.134 245.346 113.149 245.295C113.164 245.244 113.198 245.2 113.243 245.172C113.288 245.144 113.342 245.134 113.395 245.143Z" fill="#263238"/>
<path d="M110.577 245.806C114.044 246.245 117.89 248.024 119.643 251.149C119.718 251.271 119.542 251.366 119.447 251.298C116.638 249.294 113.624 247.593 110.456 246.225C110.41 246.201 110.375 246.162 110.355 246.115C110.335 246.068 110.332 246.015 110.347 245.966C110.361 245.917 110.392 245.874 110.434 245.845C110.476 245.816 110.526 245.802 110.577 245.806Z" fill="#263238"/>
<path d="M107.788 246.475C111.261 246.908 115.107 248.694 116.86 251.819C116.928 251.94 116.759 252.035 116.657 251.967C113.852 249.961 110.84 248.26 107.673 246.895C107.628 246.871 107.593 246.832 107.573 246.786C107.554 246.74 107.55 246.688 107.563 246.639C107.577 246.591 107.606 246.548 107.647 246.518C107.688 246.489 107.737 246.473 107.788 246.475Z" fill="#263238"/>
<path d="M112.562 240.077C114.302 242.613 117.084 244.311 119.468 246.164C119.523 246.202 119.588 246.226 119.655 246.234C119.722 246.242 119.79 246.234 119.853 246.21C119.916 246.186 119.972 246.147 120.017 246.097C120.062 246.047 120.094 245.986 120.111 245.921C120.125 245.924 120.139 245.924 120.153 245.92C120.167 245.917 120.18 245.91 120.191 245.901C120.203 245.892 120.211 245.881 120.217 245.868C120.223 245.855 120.226 245.84 120.226 245.826C120.156 242.614 119.243 239.477 117.579 236.729C116.577 235.146 114.437 233.584 112.582 234.943C110.727 236.303 111.546 238.623 112.562 240.077ZM112.562 237.175C113.13 233.401 116.387 236.499 117.078 237.716C117.514 238.498 117.894 239.309 118.215 240.145C118.859 241.876 119.415 243.639 119.881 245.427C118.764 244.439 117.572 243.553 116.421 242.613C115.06 241.511 112.257 239.286 112.568 237.202L112.562 237.175Z" fill="#263238"/>
<path d="M132.751 244.365C132.609 242.072 130.043 241.43 128.181 241.66C124.997 242.152 121.999 243.473 119.487 245.488C119.476 245.497 119.467 245.508 119.461 245.521C119.454 245.534 119.451 245.548 119.451 245.562C119.451 245.577 119.454 245.591 119.461 245.604C119.467 245.617 119.476 245.628 119.487 245.637C119.443 245.692 119.414 245.757 119.401 245.827C119.389 245.896 119.394 245.968 119.416 246.035C119.438 246.102 119.477 246.163 119.528 246.211C119.58 246.26 119.642 246.295 119.711 246.313C122.669 246.949 125.757 247.997 128.824 247.713C130.611 247.517 132.88 246.536 132.751 244.365ZM124.396 246.32C122.933 246.036 121.491 245.691 120.022 245.468C121.693 244.677 123.403 243.975 125.147 243.364C125.995 243.079 126.862 242.853 127.741 242.688C129.095 242.451 133.584 242.958 131.045 245.813C129.643 247.375 126.136 246.651 124.396 246.32Z" fill="#263238"/>
<path d="M117.084 237.743L153.646 248.491L164.98 206.806C165.969 193.029 168.454 186.346 176.565 183.81C190.377 179.535 224.122 195.308 239.404 184.729C251.814 176.126 241.916 148.016 241.916 148.016H206.031C206.031 148.016 201.698 153.285 200.899 156.383C200.899 156.383 156.463 152.96 146.517 165.554C133.226 182.464 117.084 237.743 117.084 237.743Z" fill="#455A64"/>
<path d="M182.794 183.208C180.655 183.023 178.501 183.19 176.416 183.701C174.435 184.235 172.589 185.18 170.999 186.474C169.459 187.727 168.211 189.302 167.343 191.087C166.328 193.177 165.989 195.545 165.63 197.851C165.434 199.204 165.305 200.557 165.231 201.909C165.156 203.262 165.102 205.142 165.102 206.299C165.102 206.4 165.237 206.407 165.237 206.299C165.257 205.083 165.359 203.869 165.542 202.667C165.691 201.524 165.894 200.387 166.091 199.251C166.416 196.988 166.944 194.758 167.668 192.589C168.367 190.731 169.443 189.038 170.828 187.616C172.214 186.193 173.879 185.072 175.718 184.324C176.832 183.874 177.996 183.561 179.185 183.39C180.388 183.261 181.599 183.222 182.807 183.275C182.807 183.275 182.821 183.208 182.794 183.208Z" fill="#263238"/>
<path d="M234.231 161.618C232.985 161.336 231.778 160.905 230.636 160.333C229.495 159.811 228.46 159.084 227.582 158.189C226.919 157.322 226.475 156.308 226.289 155.233C226.147 154.651 226.066 154.056 225.971 153.468C225.876 152.879 225.707 152.176 225.659 151.526C225.659 151.445 225.517 151.452 225.524 151.526C225.829 153.975 225.138 156.707 226.966 158.791C227.899 159.739 229.032 160.467 230.284 160.921C231.523 161.463 232.847 161.784 234.197 161.868C234.227 161.866 234.256 161.855 234.278 161.834C234.3 161.814 234.314 161.787 234.318 161.757C234.322 161.727 234.315 161.697 234.3 161.672C234.284 161.646 234.259 161.627 234.231 161.618Z" fill="#263238"/>
<path d="M240.948 155.97C240.623 154.649 240.244 153.346 239.81 152.061C239.81 151.98 239.648 152.013 239.682 152.101C241.436 157.463 242.207 163.098 241.957 168.733C241.925 171.399 241.563 174.05 240.88 176.627C240.224 179.088 238.627 181.194 236.432 182.491C234.167 183.672 231.709 184.439 229.173 184.756C226.332 185.2 223.457 185.402 220.581 185.358C214.725 185.304 208.909 184.513 203.106 183.83C197.48 183.153 191.853 182.389 186.213 181.882C181.596 181.469 176.674 181.422 172.401 183.465C168.339 185.419 165.685 189.146 163.951 193.198C162.002 197.777 160.898 202.714 159.578 207.496C158.007 213.198 149.896 244.291 149.774 245.623C149.774 245.752 149.956 245.745 149.97 245.623C150.254 242.701 157.276 216.986 158.853 211.243L161.23 202.64C161.859 200.347 162.482 198.047 163.261 195.802C164.764 191.52 166.971 187.225 170.878 184.669C175.042 181.963 180.228 181.74 185.042 182.092C187.75 182.281 190.459 182.646 193.167 182.964L202.057 184.019C207.731 184.696 213.411 185.487 219.126 185.663C221.983 185.771 224.845 185.656 227.684 185.318C230.252 185.068 232.774 184.467 235.179 183.532C237.308 182.709 239.096 181.194 240.257 179.231C241.449 177.1 241.855 174.631 242.119 172.244C242.68 166.792 242.284 161.285 240.948 155.97Z" fill="#263238"/>
<path d="M214.616 114.691C209.876 130.248 205.909 142.321 201.318 145.128C197.615 147.407 174.594 151.655 170.119 151.892C168.352 151.986 166.883 152.04 165.84 152.081C163.267 152.169 159.536 135.077 161.419 133.061C161.852 132.601 163.558 132.284 165.948 132.054C173.985 131.276 189.754 131.492 190.722 130.626C191.69 129.761 196.992 123.146 204.142 114.509C209.071 108.543 213.018 106.859 214.562 108.604C215.442 109.612 215.53 111.688 214.616 114.691Z" fill="#DD6A57"/>
<path d="M170.112 151.919C167.394 153.035 164.605 153.973 161.764 154.726C159.503 155.219 152.962 156.477 152.15 154.049C151.608 152.392 155.373 151.195 158.02 150.295C159.408 149.822 161.175 148.51 160.83 147.59C160.234 146.021 156.645 147.326 154.255 148.51C149.651 150.796 143.422 155.043 140.863 152.615C139.895 151.695 141.188 150.228 143.03 148.821C140.084 150.404 136.977 151.662 135.859 150.681C135.223 150.126 135.237 149.423 135.663 148.652C135.294 148.788 134.894 148.815 134.511 148.728C134.127 148.642 133.777 148.446 133.503 148.165C132.65 147.143 133.192 145.757 134.289 144.37C134.117 144.34 133.956 144.27 133.817 144.165C133.678 144.06 133.566 143.924 133.49 143.768C131.743 140.677 142.034 132.811 145.46 132.236C155.521 130.532 166.003 132.081 166.003 132.081C169.686 135.449 170.126 151.912 170.112 151.919Z" fill="#DD6A57"/>
<path d="M156.151 141.739C153.766 141.93 151.453 142.649 149.38 143.843C146.963 145.277 144.986 147.326 142.732 148.976C142.671 149.024 142.732 149.118 142.799 149.071C143.869 148.212 145.027 147.455 146.124 146.636C147.221 145.818 148.256 144.993 149.387 144.276C151.423 142.938 153.74 142.084 156.158 141.78C156.158 141.78 156.178 141.732 156.151 141.739Z" fill="#263238"/>
<path d="M154.581 137.417C151.894 137.867 149.26 138.59 146.72 139.575C144.012 140.745 141.771 142.808 139.597 144.783C138.297 145.973 137.02 147.191 135.765 148.435C135.711 148.489 135.765 148.577 135.84 148.53C138.047 146.483 140.304 144.503 142.61 142.591C144.767 140.795 147.259 139.446 149.943 138.621C151.473 138.154 153.03 137.803 154.588 137.451L154.581 137.417Z" fill="#263238"/>
<path d="M152.042 133.562C149.482 133.914 147.241 134.238 144.912 135.422C141.831 137.018 138.771 139.852 137.694 140.833C136.51 141.942 135.359 143.092 134.228 144.255C134.18 144.303 134.228 144.384 134.309 144.337C136.895 141.808 139.641 139.447 142.529 137.268C143.892 136.205 145.41 135.356 147.031 134.752C148.668 134.232 150.347 133.852 152.048 133.616C152.048 133.616 152.055 133.562 152.042 133.562Z" fill="#263238"/>
<path d="M216.052 112.094C215.456 116.511 212.091 124.992 212.091 124.992L195.53 123.105C195.53 123.105 204.426 111.729 211.136 107.549C213.831 105.878 216.661 107.63 216.052 112.094Z" fill="#F21564"/>
<path d="M212.233 122.74C209.789 122.3 207.351 121.895 204.887 121.597C203.655 121.448 202.429 121.32 201.197 121.205C199.965 121.09 198.719 121.11 197.493 120.981C197.426 120.981 197.419 121.083 197.493 121.09C198.719 121.151 199.958 121.387 201.183 121.516C202.409 121.644 203.641 121.786 204.873 121.928C207.324 122.219 209.782 122.503 212.233 122.848C212.294 122.855 212.294 122.754 212.233 122.74Z" fill="#263238"/>
<path d="M209.944 112.993C210.641 112.369 211.48 111.924 212.388 111.695C212.044 112.01 211.659 112.279 211.244 112.493C210.834 112.715 210.397 112.883 209.944 112.993ZM207.804 120.819C207.365 120.681 206.91 120.599 206.45 120.576C206.847 120.822 207.275 121.014 207.723 121.144C208.162 121.285 208.617 121.367 209.077 121.387C208.681 121.14 208.253 120.949 207.804 120.819ZM204.379 113.785C204.237 114.223 204.155 114.678 204.135 115.138C204.38 114.741 204.569 114.314 204.697 113.866C204.838 113.428 204.92 112.973 204.94 112.513C204.7 112.912 204.511 113.339 204.379 113.785Z" fill="white"/>
<path d="M216.052 112.094C216.052 112.337 215.984 112.601 215.93 112.858C215.876 113.115 215.849 113.271 215.795 113.494C214.865 117.418 213.627 121.263 212.091 124.992L211.414 124.918L210.771 124.843L205.564 124.248L204.792 124.167L199.599 123.579L198.922 123.497L197.013 123.281L211.109 107.549C214.088 106.385 216.648 107.63 216.052 112.094Z" fill="#263238"/>
<path d="M200.073 156.734C200.073 156.734 215.808 159.163 244.861 154.299C244.861 154.299 230.507 118.736 220.486 109.659C215.936 105.52 211.894 106.527 208.651 109.659C207.845 110.444 198.19 124.918 197.655 129.74C197.188 134.002 200.973 138.384 200.973 138.384L200.073 156.734Z" fill="#F21564"/>
<path d="M228.929 139.879C228.613 139.535 228.345 139.151 228.13 138.736C227.903 138.329 227.734 137.892 227.629 137.438C227.945 137.781 228.214 138.166 228.428 138.581C228.65 138.99 228.819 139.427 228.929 139.879ZM214.589 123.951C214.374 123.534 214.103 123.15 213.783 122.808C213.894 123.26 214.062 123.697 214.284 124.106C214.499 124.521 214.767 124.905 215.083 125.249C214.98 124.796 214.813 124.358 214.589 123.951ZM239.505 151.932C239.289 151.521 239.02 151.139 238.706 150.796C238.816 151.248 238.985 151.685 239.207 152.094C239.422 152.509 239.69 152.894 240.006 153.238C239.897 152.782 239.729 152.343 239.505 151.932ZM210.703 143.728C210.488 143.313 210.22 142.929 209.904 142.585C210.014 143.037 210.182 143.474 210.405 143.883C210.619 144.298 210.888 144.682 211.204 145.026C211.095 144.573 210.926 144.137 210.703 143.728ZM217.108 108.807C216.898 108.389 216.629 108.004 216.309 107.664C216.538 108.571 216.984 109.409 217.609 110.105C217.504 109.65 217.333 109.213 217.101 108.807H217.108ZM218.827 138.202C219.242 137.986 219.626 137.718 219.972 137.404C219.516 137.512 219.077 137.681 218.665 137.904C218.251 138.12 217.866 138.388 217.521 138.702C217.976 138.594 218.416 138.425 218.827 138.202ZM203.539 132.033C203.951 131.817 204.333 131.549 204.677 131.235C204.222 131.339 203.784 131.508 203.377 131.736C202.962 131.95 202.577 132.218 202.232 132.534C202.695 132.427 203.141 132.258 203.559 132.033H203.539ZM211.224 112.493C211.639 112.279 212.024 112.01 212.368 111.695C211.46 111.924 210.621 112.369 209.924 112.993C210.384 112.885 210.828 112.717 211.244 112.493H211.224ZM213.804 153.61C214.225 153.401 214.617 153.137 214.968 152.825C214.06 153.054 213.221 153.499 212.524 154.124C212.978 154.009 213.415 153.836 213.824 153.61H213.804ZM227.264 120.542C227.676 120.326 228.058 120.057 228.401 119.744C227.493 119.972 226.654 120.418 225.957 121.042C226.42 120.935 226.866 120.767 227.284 120.542H227.264ZM232.078 148.205C232.493 147.991 232.878 147.723 233.222 147.407C232.766 147.51 232.328 147.679 231.922 147.908C231.507 148.122 231.122 148.39 230.778 148.706C231.238 148.597 231.682 148.429 232.098 148.205H232.078ZM221.989 145.27C221.551 145.129 221.095 145.047 220.635 145.026C221.031 145.273 221.46 145.464 221.908 145.595C222.347 145.732 222.802 145.814 223.262 145.838C222.872 145.593 222.451 145.402 222.01 145.27H221.989ZM202.95 140.468C202.512 140.327 202.056 140.245 201.596 140.224C201.992 140.471 202.421 140.662 202.869 140.792C203.308 140.93 203.763 141.012 204.223 141.036C203.833 140.791 203.412 140.6 202.97 140.468H202.95ZM222.544 128.192C222.106 128.05 221.651 127.968 221.19 127.948C221.59 128.194 222.02 128.385 222.47 128.516C222.909 128.655 223.364 128.736 223.824 128.76C223.431 128.516 223.008 128.325 222.565 128.192H222.544ZM207.784 120.819C207.345 120.681 206.89 120.599 206.43 120.576C206.826 120.822 207.255 121.014 207.703 121.144C208.142 121.285 208.597 121.367 209.057 121.387C208.667 121.142 208.246 120.951 207.805 120.819H207.784ZM237.23 140.914C236.792 140.773 236.336 140.691 235.876 140.671C236.273 140.915 236.701 141.106 237.149 141.239C237.588 141.376 238.043 141.458 238.503 141.482C238.113 141.237 237.692 141.046 237.25 140.914H237.23ZM231.854 129.991C231.713 130.429 231.631 130.884 231.61 131.343C231.857 130.948 232.049 130.52 232.179 130.072C232.318 129.633 232.4 129.179 232.423 128.719C232.184 129.117 232 129.544 231.874 129.991H231.854ZM211.251 133.562C211.11 134 211.028 134.455 211.007 134.915C211.254 134.519 211.446 134.091 211.576 133.643C211.715 133.205 211.795 132.75 211.813 132.29C211.578 132.689 211.396 133.116 211.271 133.562H211.251ZM204.893 152.149C204.752 152.587 204.67 153.042 204.65 153.501C204.895 153.103 205.087 152.673 205.218 152.223C205.357 151.784 205.439 151.33 205.462 150.87C205.214 151.268 205.023 151.698 204.893 152.149ZM225.144 153.501C225.003 153.939 224.921 154.394 224.901 154.854C225.146 154.458 225.335 154.03 225.463 153.583C225.604 153.145 225.686 152.69 225.706 152.23C225.467 152.629 225.278 153.056 225.144 153.501ZM220.066 116.024C219.925 116.462 219.843 116.917 219.823 117.376C220.067 116.979 220.258 116.552 220.391 116.105C220.529 115.666 220.611 115.211 220.635 114.752C220.389 115.146 220.197 115.571 220.066 116.017V116.024ZM200.729 124.688C200.588 125.126 200.506 125.581 200.486 126.041C200.731 125.642 200.923 125.212 201.054 124.762C201.196 124.324 201.278 123.869 201.298 123.41C201.052 123.808 200.861 124.238 200.729 124.688Z" fill="white"/>
<path d="M215.334 108.239C215.334 109.05 213.052 115.002 209.518 115.746C208.367 115.997 206.721 109.787 206.721 109.787L206.498 109.355L203.329 103.321L209.579 96.4561L210.5 95.5227C210.5 95.5227 211.258 97.2272 212.179 99.3645L212.307 99.6689C212.361 99.7907 212.416 99.8989 212.463 100.014C212.605 100.332 212.747 100.69 212.883 100.981C213.018 101.272 213.093 101.475 213.194 101.739C213.296 102.002 213.397 102.259 213.506 102.516C214.245 104.38 214.856 106.292 215.334 108.239Z" fill="#DD6A57"/>
<path d="M212.179 99.3916C212.015 101.369 211.422 103.287 210.441 105.012C209.46 106.737 208.114 108.228 206.498 109.382L203.329 103.348L209.579 96.4832L210.5 95.5498C210.5 95.5498 211.258 97.2272 212.179 99.3916Z" fill="#263238"/>
<path d="M191.623 95.2928C192.977 107.17 200.242 107.711 202.808 107.42C205.137 107.15 213.025 105.952 212.917 94.0009C212.808 82.0494 206.857 78.9111 201.501 79.2357C196.146 79.5604 190.282 83.4089 191.623 95.2928Z" fill="#DD6A57"/>
<path d="M193.099 93.054C193.37 92.9796 193.613 92.8714 193.877 92.7767C194.165 92.7141 194.424 92.5598 194.615 92.3371C194.663 92.2562 194.683 92.1616 194.671 92.0684C194.658 91.9751 194.615 91.8887 194.548 91.823C194.396 91.7127 194.217 91.645 194.03 91.6272C193.843 91.6093 193.655 91.6419 193.485 91.7216C193.112 91.8272 192.793 92.0686 192.591 92.398C192.552 92.4754 192.536 92.5623 192.544 92.6486C192.552 92.7349 192.585 92.817 192.638 92.8856C192.691 92.9542 192.763 93.0064 192.844 93.0362C192.926 93.066 193.014 93.0722 193.099 93.054Z" fill="#263238"/>
<path d="M201.224 91.9515C200.948 91.9483 200.672 91.9279 200.398 91.8906C200.104 91.9088 199.811 91.8305 199.565 91.6674C199.499 91.6011 199.457 91.5148 199.444 91.4218C199.432 91.3289 199.451 91.2345 199.498 91.1534C199.616 91.0072 199.771 90.8952 199.947 90.8286C200.124 90.7621 200.314 90.7434 200.5 90.7746C200.885 90.7757 201.255 90.9232 201.536 91.1872C201.596 91.2504 201.636 91.3295 201.652 91.415C201.668 91.5006 201.659 91.5889 201.626 91.6695C201.594 91.7501 201.538 91.8196 201.467 91.8696C201.396 91.9196 201.311 91.948 201.224 91.9515Z" fill="#263238"/>
<path d="M199.714 95.0899C199.714 95.0899 199.782 95.0899 199.789 95.1507C199.85 95.9624 200.059 96.8823 200.825 97.0716V97.119C199.911 97.0919 199.646 95.8677 199.714 95.0899Z" fill="#263238"/>
<path d="M200.344 94.1633C201.637 93.9198 202.03 96.5171 200.831 96.7403C199.633 96.9635 199.261 94.3662 200.344 94.1633Z" fill="#263238"/>
<path d="M200.872 94.2241C201.122 94.3324 201.386 94.5623 201.664 94.5488C201.942 94.5353 202.185 94.2241 202.341 93.9265C202.341 93.9265 202.382 93.9265 202.388 93.9265C202.464 94.1583 202.449 94.4103 202.346 94.6313C202.243 94.8524 202.06 95.026 201.833 95.1169C201.352 95.259 200.939 94.8667 200.736 94.3865C200.716 94.3256 200.777 94.1768 200.872 94.2241Z" fill="#263238"/>
<path d="M195.211 95.5971C195.211 95.5971 195.15 95.6445 195.157 95.6783C195.312 96.4764 195.353 97.4166 194.67 97.8021C194.67 97.8021 194.67 97.8495 194.67 97.8427C195.549 97.5789 195.481 96.3276 195.211 95.5971Z" fill="#263238"/>
<path d="M194.359 94.8667C193.045 94.9749 193.363 97.5722 194.575 97.4842C195.787 97.3963 195.455 94.7788 194.359 94.8667Z" fill="#263238"/>
<path d="M193.837 95.1034C193.647 95.2725 193.471 95.543 193.228 95.5904C192.984 95.6377 192.699 95.3875 192.483 95.1372H192.442C192.49 95.6377 192.72 96.1382 193.207 96.1788C193.695 96.2194 193.925 95.7459 193.986 95.2319C193.999 95.171 193.911 95.0425 193.837 95.1034Z" fill="#263238"/>
<path d="M197.026 99.2361C197.026 99.2361 197.026 100.46 197.108 101.028C197.108 101.083 197.257 101.089 197.453 101.076C197.952 101.101 198.448 100.988 198.886 100.749C199.325 100.511 199.689 100.155 199.938 99.7231C199.972 99.6622 199.89 99.6148 199.843 99.6622C199.185 100.255 198.355 100.622 197.473 100.711C197.412 100.555 197.541 98.6071 197.473 98.6138C197.035 98.7116 196.614 98.871 196.221 99.0873C196.139 96.5306 196.478 93.9807 196.363 91.4375C196.363 91.3428 196.221 91.3361 196.207 91.4375C195.764 94.1576 195.596 96.9153 195.706 99.669C195.706 99.953 196.816 99.3916 197.026 99.2361Z" fill="#263238"/>
<path d="M197.494 100.792C197.874 101.218 198.356 101.542 198.895 101.732C199.19 101.827 199.507 101.827 199.802 101.732C200.48 101.522 200.425 100.92 200.27 100.413C200.184 100.144 200.068 99.8851 199.924 99.6418C199.257 100.274 198.406 100.677 197.494 100.792Z" fill="#263238"/>
<path d="M198.895 101.732C199.19 101.827 199.507 101.827 199.802 101.732C200.479 101.522 200.425 100.92 200.269 100.413C199.925 100.446 199.602 100.595 199.352 100.834C199.103 101.073 198.942 101.39 198.895 101.732Z" fill="#FF9CBD"/>
<path d="M212.138 95.0154C210.838 95.0154 207.189 91.7283 206.607 85.4786C206.607 85.4786 207.514 91.0587 208.002 91.85C208.489 92.6414 205.97 89.9832 205.415 84.951C203.913 86.2119 202.237 87.2506 200.439 88.0353C198.103 88.8808 196.64 88.9755 196.458 88.8131C196.275 88.6508 199.701 87.2778 200.567 86.1076C200.567 86.1076 194.474 89.5368 191.535 89.9832C191.203 90.0374 190.262 83.1181 194.562 79.8377C198.861 76.5573 206.268 79.1613 208.34 80.8928C208.34 80.8928 210.622 81.0416 213.337 84.2003C216.052 87.3589 213.547 94.9952 212.138 95.0154Z" fill="#263238"/>
<path d="M201.596 98.837C200.6 98.8316 199.647 98.4321 198.945 97.726C198.243 97.0199 197.85 96.0647 197.852 95.0696C197.854 94.3669 198.054 93.6789 198.428 93.0839C198.802 92.4888 199.336 92.0107 199.969 91.7038C200.602 91.397 201.308 91.2738 202.008 91.3482C202.707 91.4226 203.372 91.6916 203.926 92.1247C204.48 92.5578 204.901 93.1376 205.141 93.798C205.382 94.4584 205.432 95.173 205.286 95.8604C205.14 96.5478 204.803 97.1805 204.315 97.6864C203.827 98.1923 203.206 98.5511 202.524 98.722C202.221 98.7981 201.909 98.8367 201.596 98.837ZM198.353 95.0696C198.35 95.7134 198.539 96.3434 198.895 96.8801C199.251 97.4167 199.758 97.8358 200.353 98.0843C200.947 98.3328 201.602 98.3996 202.234 98.2761C202.867 98.1527 203.448 97.8446 203.905 97.3908C204.362 96.937 204.675 96.358 204.802 95.727C204.93 95.096 204.867 94.4414 204.622 93.846C204.377 93.2506 203.96 92.7412 203.425 92.3823C202.89 92.0234 202.261 91.8312 201.617 91.8298C201.347 91.8285 201.078 91.8626 200.818 91.9313C200.116 92.1059 199.492 92.5093 199.046 93.0778C198.6 93.6462 198.356 94.3472 198.353 95.0696Z" fill="#F21564"/>
<path d="M193.722 99.8313C192.198 100.027 190.736 98.5191 190.472 96.4494C190.332 95.5231 190.489 94.5764 190.919 93.7439C191.081 93.3757 191.336 93.0557 191.659 92.8148C191.982 92.5738 192.361 92.4201 192.761 92.3684C193.16 92.3167 193.566 92.3688 193.94 92.5197C194.313 92.6707 194.642 92.9152 194.893 93.2299C195.519 93.9271 195.912 94.8018 196.017 95.7325C196.267 97.6736 195.34 99.4119 193.986 99.7907L193.722 99.8313ZM191.359 93.9807C190.98 94.7181 190.843 95.5555 190.966 96.375C191.196 98.1539 192.408 99.466 193.674 99.3037C194.94 99.1414 195.76 97.5654 195.529 95.7866C195.437 94.9629 195.092 94.188 194.541 93.5681C194.333 93.3233 194.07 93.1313 193.773 93.0079C193.477 92.8844 193.155 92.833 192.835 92.8579L192.652 92.8917C192.372 92.9725 192.112 93.1112 191.889 93.2988C191.667 93.4864 191.486 93.7187 191.359 93.9807Z" fill="#F21564"/>
<path d="M198.028 95.4822L198.299 95.0629C197.676 94.657 196.268 94.1903 195.502 95.2793L195.909 95.5769C196.613 94.5962 197.974 95.4484 198.028 95.4822Z" fill="#F21564"/>
<path d="M214.765 94.2918L215.178 94.0009C215.042 93.8115 213.824 92.1274 212.706 92.0868C211.589 92.0462 205.049 93.5478 204.771 93.6086L204.88 94.1024C206.775 93.6695 211.867 92.5603 212.693 92.5873C213.519 92.6144 214.426 93.8251 214.765 94.2918Z" fill="#F21564"/>
<path d="M213.411 98.377C213.247 98.4755 213.075 98.5592 212.896 98.6273C212.718 98.6946 212.531 98.7357 212.341 98.749C212.099 98.7754 211.854 98.7477 211.624 98.6678C211.442 98.6065 211.269 98.5224 211.109 98.4176C210.885 98.2634 210.69 98.0711 210.533 97.8494V94.5893C210.533 94.5893 212.355 90.4094 214.196 90.991C216.038 91.5727 215.246 97.261 213.411 98.377Z" fill="#DD6A57"/>
<path d="M213.959 92.6279C213.993 92.6279 214.006 92.6618 213.959 92.6753C212.7 93.5072 212.232 94.9208 211.995 96.3345C212.047 96.1817 212.132 96.0421 212.243 95.9251C212.354 95.8081 212.489 95.7166 212.639 95.6568C212.789 95.597 212.95 95.5704 213.111 95.5788C213.273 95.5872 213.43 95.6304 213.573 95.7054C213.614 95.7054 213.573 95.7866 213.573 95.7866C213.319 95.7565 213.062 95.8053 212.837 95.9263C212.611 96.0473 212.429 96.2347 212.314 96.463C212.13 96.8499 211.989 97.2559 211.894 97.6737C211.853 97.8089 211.616 97.7887 211.637 97.6399C211.264 95.8745 212.124 93.169 213.959 92.6279Z" fill="#263238"/>
<path d="M213.174 97.9171C213.174 98.0268 213.141 98.134 213.08 98.2252C213.019 98.3164 212.933 98.3875 212.831 98.4295C212.73 98.4715 212.618 98.4825 212.51 98.4611C212.403 98.4397 212.304 98.3868 212.226 98.3093C212.148 98.2317 212.096 98.1329 212.074 98.0253C212.053 97.9177 212.064 97.8062 212.106 97.7048C212.148 97.6035 212.219 97.5169 212.31 97.4559C212.402 97.395 212.509 97.3625 212.619 97.3625C212.766 97.3625 212.907 97.4209 213.011 97.5249C213.115 97.6289 213.174 97.77 213.174 97.9171Z" fill="white"/>
<path d="M214.128 96.8691C214.128 96.9468 214.105 97.0227 214.062 97.0873C214.019 97.1519 213.958 97.2022 213.886 97.2319C213.814 97.2617 213.735 97.2694 213.659 97.2543C213.583 97.2391 213.513 97.2017 213.458 97.1468C213.403 97.0919 213.366 97.0219 213.351 96.9457C213.335 96.8696 213.343 96.7906 213.373 96.7189C213.403 96.6471 213.453 96.5858 213.518 96.5426C213.582 96.4995 213.658 96.4764 213.736 96.4764C213.84 96.4764 213.94 96.5178 214.013 96.5915C214.087 96.6651 214.128 96.765 214.128 96.8691Z" fill="white"/>
<path d="M222.633 111.627C231.53 123.727 243.514 144.154 237.928 148.55C228.747 155.767 202.267 159.501 196.2 160.109C193.58 160.367 188.691 143.2 190.479 141.029C192.266 138.858 220.202 137.864 220.432 136.159C220.561 135.192 218.462 126.825 215.95 116.416C213.046 104.41 220.08 108.184 222.633 111.627Z" fill="#DD6A57"/>
<path d="M195.083 139.717C195.083 139.717 187.073 139.494 181.832 139.595C178.907 139.649 173.904 140.197 171.771 141.218C168.589 142.747 156.246 151.175 158.23 154.212C160.024 156.958 169.74 148.368 169.74 148.368C169.74 148.368 159.164 156.207 161.954 159.081C164.743 161.956 174.371 150.836 174.371 150.836C174.371 150.836 163.721 159.095 167.052 161.658C169.571 163.586 178.88 153.975 178.88 153.975C178.88 153.975 169.78 161.138 172.279 163.228C175.048 165.541 184.195 157.208 184.195 157.208C191.453 161.455 196.653 160.515 200.269 159.406C201.129 159.122 195.083 139.717 195.083 139.717Z" fill="#DD6A57"/>
<path d="M173.179 145.439C171.907 146.311 170.613 147.184 169.422 148.144C168.23 149.105 167.079 150.174 165.982 151.235C164.531 152.634 163.241 154.19 162.136 155.875C164.31 153.021 168.514 149.443 169.706 148.435C170.898 147.428 172.028 146.406 173.213 145.432C173.247 145.459 173.207 145.419 173.179 145.439Z" fill="#263238"/>
<path d="M176.802 149.666C175.231 150.843 173.62 151.966 172.096 153.217C170.573 154.469 169.253 155.781 167.831 157.127C167.716 157.235 167.831 157.255 167.925 157.127C169.401 155.842 170.871 154.759 172.36 153.488C173.85 152.216 175.299 150.884 176.836 149.673L176.802 149.666Z" fill="#263238"/>
<path d="M180.566 152.73C178.108 154.487 175.839 156.493 173.795 158.716C173.694 158.824 173.795 158.838 173.931 158.716C176.145 156.687 177.864 155.077 180.634 152.798C180.667 152.784 180.62 152.696 180.566 152.73Z" fill="#263238"/>
<path d="M201.075 138.966C199.951 138.966 197.574 139.345 194.94 139.406C189.016 139.527 180.647 139.331 177.661 139.406C169.591 139.649 164.567 145.493 162.265 147.522C160.888 148.75 159.634 150.109 158.521 151.58C157.945 152.385 157.383 153.528 158.115 154.448C159.001 155.564 162.448 154.448 166.07 151.33C166.199 151.215 166.117 151.141 165.982 151.242C160.918 155.179 158.941 154.678 158.433 153.948C158.108 153.495 158.433 152.723 158.758 152.142C159.265 151.299 159.875 150.522 160.572 149.829C162.905 147.423 165.478 145.26 168.25 143.376C171.228 141.247 174.75 140.007 178.406 139.798C181.006 139.636 188.982 139.872 194.954 139.697C197.567 139.615 199.937 139.149 201.047 139.061C201.169 139.095 201.156 138.966 201.075 138.966Z" fill="#263238"/>
<path d="M234 126.988L216.999 126.555C216.999 126.555 215.171 118.215 214.805 113.46C214.324 107.163 216.552 105.506 222.084 110.93C225.78 114.563 234 126.988 234 126.988Z" fill="#F21564"/>
<path d="M217.602 110.105C216.977 109.409 216.531 108.571 216.302 107.664C216.927 108.36 217.373 109.198 217.602 110.105ZM227.284 120.542C227.696 120.326 228.078 120.057 228.421 119.744C227.513 119.972 226.675 120.418 225.977 121.042C226.433 120.934 226.872 120.765 227.284 120.542ZM220.066 116.017C219.925 116.455 219.843 116.91 219.823 117.37C220.067 116.972 220.258 116.545 220.391 116.098C220.529 115.659 220.611 115.205 220.635 114.745C220.388 115.141 220.197 115.569 220.066 116.017Z" fill="white"/>
<path d="M219.078 126.616C218.895 126.575 217.149 126.474 217.047 126.501C216.857 125.513 216.681 124.526 216.478 123.545C216.377 123.051 216.268 122.557 216.153 122.07C216.038 121.583 215.903 120.914 215.794 120.44C215.794 120.366 215.679 120.379 215.686 120.44C215.774 121.076 215.855 121.543 215.937 122.091C216.018 122.638 216.086 123.071 216.18 123.558C216.37 124.586 216.532 125.689 216.776 126.71C217.553 126.744 218.331 126.728 219.105 126.663L219.078 126.616Z" fill="#263238"/>
<path d="M232.315 125.33C229.843 125.101 227.379 124.898 224.901 124.81C223.662 124.769 222.429 124.742 221.19 124.735C219.951 124.728 218.712 124.85 217.48 124.823C217.466 124.823 217.452 124.829 217.442 124.839C217.431 124.849 217.426 124.863 217.426 124.877C217.426 124.892 217.431 124.905 217.442 124.916C217.452 124.926 217.466 124.931 217.48 124.931C218.712 124.891 219.965 125.019 221.197 125.046L224.907 125.141C227.379 125.222 229.85 125.297 232.321 125.439C232.369 125.439 232.369 125.337 232.315 125.33Z" fill="#263238"/>
<path d="M150.898 159H188.401V156.092L150.898 154.881V159Z" fill="#455A64"/>
<path d="M121.418 158.953H146.165C148.271 158.953 145.217 152.947 137.512 150.64C129.807 148.334 118.988 156.701 121.418 158.953Z" fill="#37474F"/>
<path d="M131.127 158.953C130.725 157.687 130.184 156.469 129.516 155.321C129.184 154.762 128.798 154.236 128.365 153.752C127.915 153.264 127.429 152.812 126.909 152.399C127.58 152.598 128.201 152.937 128.73 153.393C129.27 153.844 129.728 154.384 130.085 154.989C130.446 155.591 130.722 156.24 130.904 156.917C131.091 157.579 131.166 158.267 131.127 158.953Z" fill="#263238"/>
<path d="M128.195 153.238C126.895 154.076 125.595 154.841 124.377 155.713C123.763 156.131 123.188 156.602 122.657 157.12C122.105 157.625 121.68 158.253 121.418 158.953C121.43 158.147 121.73 157.372 122.264 156.768C122.756 156.151 123.335 155.608 123.984 155.158C124.625 154.712 125.305 154.323 126.015 153.995C126.713 153.666 127.444 153.412 128.195 153.238Z" fill="#263238"/>
<path d="M103.666 147.326H163.81L154.249 102.591H94.0986L103.666 147.326Z" fill="#455A64"/>
<path d="M101.444 147.326H161.588L152.021 102.591H91.8772L101.444 147.326Z" fill="#37474F"/>
<path d="M133.883 131.289H135.291L133.151 121.252H131.736L133.883 131.289Z" fill="#263238"/>
<path d="M131.1 131.289H132.508L130.369 121.252H128.954L131.1 131.289Z" fill="#263238"/>
<path d="M128.318 131.289H129.726L127.587 121.252H126.172L128.318 131.289Z" fill="#263238"/>
<path d="M125.535 131.289H126.943L124.804 121.252H123.388L125.535 131.289Z" fill="#263238"/>
<path d="M122.745 131.289H124.16L122.014 121.252H120.606L122.745 131.289Z" fill="#263238"/>
<path d="M119.963 131.289H121.378L119.232 121.252H117.824L119.963 131.289Z" fill="#263238"/>
<path d="M117.181 131.289H118.596L116.449 121.252H115.041L117.181 131.289Z" fill="#263238"/>
<path d="M118.453 159.007H148.034V156.714L118.453 155.754V159.007Z" fill="#455A64"/>
<path d="M110.409 159H126.293L135.86 133.941H119.976L110.409 159Z" fill="#455A64"/>
<path d="M107.796 159H123.68L133.24 133.941H117.363L107.796 159Z" fill="#263238"/>
<path d="M250.291 159H37.0552V162.876H250.291V159Z" fill="#37474F"/>
<path d="M245.213 162.876H42.1328V172.602H245.213V162.876Z" fill="#37474F"/>
<path d="M245.213 162.876H42.1328V167.739H245.213V162.876Z" fill="#263238"/>
<path d="M69.6632 248.626H51.4636V251.826H69.6632V248.626Z" fill="#37474F"/>
<path d="M79.5344 295.404H77.5709L61.5379 220.645L60.6238 216.384L57.7463 202.964L56.6765 197.959L52.6412 179.183L51.2329 172.602H58.2338L59.378 179.183L60.1228 183.499L60.6238 186.373L63.5014 202.964L64.429 208.308L79.5344 295.404Z" fill="#37474F"/>
<path d="M58.2338 172.602L59.378 179.183H52.6412L51.2329 172.602H58.2338Z" fill="#263238"/>
<path d="M64.429 208.308L61.5379 220.645L60.6238 216.384L57.7463 202.964L56.6765 197.959L60.1228 183.499L60.6238 186.373L63.5014 202.964L64.429 208.308Z" fill="#263238"/>
<path d="M70.0144 172.602L68.606 179.183L63.5009 202.964L60.6234 216.384L43.6764 295.404H41.7129L57.7459 202.964L60.6234 186.373L61.8692 179.183L63.0067 172.602H70.0144Z" fill="#37474F"/>
<path d="M70.015 172.602L68.6067 179.183H61.8699L63.0074 172.602H70.015Z" fill="#263238"/>
<path d="M235.761 248.626H217.561V251.826H235.761V248.626Z" fill="#37474F"/>
<path d="M245.632 295.404H243.662L227.636 220.645L226.722 216.384L223.838 202.964L222.768 197.959L218.739 179.183L217.324 172.602H224.332L225.469 179.183L226.221 183.499L226.722 186.373L229.593 202.964L230.52 208.308L245.632 295.404Z" fill="#37474F"/>
<path d="M224.332 172.602L225.469 179.183H218.739L217.324 172.602H224.332Z" fill="#263238"/>
<path d="M230.52 208.308L227.636 220.645L226.722 216.384L223.838 202.964L222.768 197.959L226.221 183.499L226.722 186.373L229.593 202.964L230.52 208.308Z" fill="#263238"/>
<path d="M236.106 172.602L234.698 179.183L229.593 202.964L226.722 216.384L209.768 295.404H207.812L223.838 202.964L226.722 186.373L227.961 179.183L229.105 172.602H236.106Z" fill="#37474F"/>
<path d="M236.107 172.602L234.699 179.183H227.962L229.106 172.602H236.107Z" fill="#263238"/>
<path d="M55.0999 155.159L53.7593 154.983L59.5888 110.646L76.7728 99.6893L82.318 103.315L81.58 104.444L76.7593 101.299L60.8482 111.445L55.0999 155.159Z" fill="#263238"/>
<path d="M59.0806 111.046C59.0792 111.272 59.1454 111.494 59.2706 111.683C59.3958 111.872 59.5745 112.02 59.7838 112.107C59.9932 112.194 60.2238 112.218 60.4464 112.174C60.669 112.13 60.8735 112.021 61.0339 111.861C61.1944 111.7 61.3035 111.496 61.3474 111.274C61.3913 111.051 61.3681 110.821 61.2807 110.612C61.1932 110.403 61.0455 110.224 60.8563 110.099C60.6671 109.974 60.4449 109.908 60.2181 109.909C59.9164 109.909 59.6271 110.029 59.4137 110.242C59.2004 110.455 59.0806 110.744 59.0806 111.046Z" fill="#F21564"/>
<path d="M76.7117 101.63C77.3399 101.63 77.8492 101.122 77.8492 100.494C77.8492 99.8666 77.3399 99.3578 76.7117 99.3578C76.0835 99.3578 75.5742 99.8666 75.5742 100.494C75.5742 101.122 76.0835 101.63 76.7117 101.63Z" fill="#F21564"/>
<path d="M91.8372 104.87L84.2608 113.318L80.7671 109.003L78.6411 106.372L84.3149 100.048L87.1654 101.881L91.8372 104.87Z" fill="#F21564"/>
<path opacity="0.1" d="M91.8374 104.87L84.261 113.318L80.7673 109.003L87.1656 101.881L91.8374 104.87Z" fill="black"/>
<path d="M102.813 109.037L89.6098 123.755L80.8418 112.581L90.7338 101.556L102.813 109.037Z" fill="#F21564"/>
<path d="M64.7956 159.007H45.2622L46.4606 152.879H63.5972L64.7956 159.007Z" fill="#F21564"/>
<path d="M262.249 215.903C261.679 219.866 261.884 223.902 262.852 227.787C263.31 229.587 263.919 231.345 264.673 233.043C265.621 235.214 266.609 237.338 266.372 239.718C266.142 239.874 266.934 239.847 266.955 239.617C273.319 235.998 281.485 235.335 286.38 229.417C288.702 226.61 289.873 223.059 290.442 219.508C291.045 215.64 291.207 211.392 290.212 207.543C289.366 204.317 287.504 201.206 284.45 199.623C281.397 198.04 277.219 198.135 273.922 199.156C266.792 201.368 263.258 209.031 262.249 215.903Z" fill="#F21564"/>
<path d="M258.985 262.965C259.852 260.077 260.719 257.182 261.612 254.301C263.359 248.646 265.174 243.019 267.185 237.453C268.39 234.125 269.658 230.826 270.99 227.557C270.848 225.496 270.594 223.443 270.231 221.409C269.703 218.947 268.925 216.566 268.2 214.152C268.189 214.117 268.191 214.08 268.207 214.048C268.223 214.015 268.251 213.991 268.285 213.979C268.319 213.967 268.356 213.97 268.389 213.986C268.421 214.001 268.446 214.03 268.457 214.064C269.886 217.391 271.755 221.639 271.795 225.562C273.353 221.862 275.011 218.217 276.799 214.625C277.004 211.586 276.911 208.535 276.521 205.514C276.516 205.486 276.522 205.456 276.539 205.432C276.555 205.408 276.581 205.391 276.609 205.386C276.638 205.38 276.668 205.387 276.692 205.403C276.716 205.42 276.733 205.445 276.738 205.474C277.278 208.118 277.487 210.82 277.361 213.516C278.715 210.81 280.164 208.152 281.701 205.528C281.836 205.291 282.168 205.528 282.046 205.765C279.656 210.364 277.435 215.065 275.35 219.82C278.282 217.284 281.669 215.327 285.33 214.05C285.493 213.996 285.608 214.226 285.445 214.287C281.451 216.007 277.796 218.426 274.653 221.429C273.159 224.915 271.734 228.427 270.38 231.967C274.362 228.065 279.812 225.501 285.08 224.128C285.262 224.081 285.31 224.351 285.134 224.405C279.04 226.238 274.301 229.695 269.656 233.875C269.114 235.304 268.586 236.738 268.072 238.176C266.099 243.619 264.226 249.1 262.452 254.619C261.599 257.257 260.752 259.908 259.926 262.553C259.039 265.407 258.342 268.417 257.218 271.17C257.11 271.433 256.636 271.373 256.697 271.055C257.322 268.321 258.086 265.621 258.985 262.965Z" fill="#263238"/>
<path d="M269.541 210.317C270.671 212.052 271.45 213.991 271.836 216.025C271.836 216.079 271.761 216.106 271.741 216.025C271.03 214.109 270.2 212.238 269.256 210.425C269.162 210.317 269.432 210.174 269.541 210.317Z" fill="#263238"/>
<path d="M280.894 223.587C282.664 222.604 284.598 221.953 286.602 221.666C286.656 221.666 286.69 221.734 286.602 221.754C285.681 222.139 284.72 222.43 283.792 222.762C282.864 223.093 281.944 223.553 281.002 223.878C280.968 223.88 280.933 223.871 280.904 223.852C280.875 223.833 280.853 223.805 280.841 223.772C280.829 223.74 280.827 223.704 280.837 223.671C280.846 223.637 280.867 223.608 280.894 223.587Z" fill="#263238"/>
<path d="M284.09 207.652C284.667 207.216 285.284 206.835 285.932 206.515C285.954 206.502 285.98 206.497 286.004 206.503C286.029 206.509 286.051 206.524 286.064 206.546C286.078 206.567 286.082 206.593 286.076 206.618C286.07 206.643 286.055 206.664 286.034 206.678C285.469 207.126 284.864 207.52 284.226 207.854C284.111 207.922 283.975 207.726 284.09 207.652Z" fill="#263238"/>
<path d="M240.793 237.5C245.376 238.853 249.987 240.111 254.571 241.457C254.97 241.578 262.696 226.746 259.913 219.103C257.327 212.028 251.402 206.738 244.34 204.331C241.07 203.221 237.048 202.301 233.589 203.052C230.515 203.729 228.341 206.245 227.346 209.14C225.992 213.063 226.439 217.75 227.177 221.754C227.769 225.517 229.325 229.063 231.693 232.048C234.117 234.936 237.224 236.438 240.793 237.5Z" fill="#F21564"/>
<path d="M234.15 223.397C237.047 224.812 240.051 225.995 243.135 226.935C245.192 227.489 247.199 228.215 249.134 229.106C247.204 224.791 245.071 220.57 242.823 216.39C239.858 215.531 236.73 214.199 234.516 212.102C234.491 212.081 234.475 212.05 234.473 212.017C234.47 211.984 234.481 211.951 234.502 211.926C234.524 211.901 234.554 211.886 234.587 211.883C234.62 211.881 234.653 211.891 234.678 211.913C237.123 213.637 239.817 214.672 242.519 215.836C241.909 214.713 241.291 213.586 240.664 212.454C240.494 212.143 240.921 211.832 241.131 212.136C243.538 215.631 245.714 219.28 247.644 223.059C248.138 219.747 248.296 216.393 248.118 213.049C248.115 213.039 248.114 213.028 248.116 213.017C248.117 213.007 248.121 212.997 248.128 212.988C248.134 212.98 248.142 212.973 248.152 212.968C248.161 212.963 248.172 212.96 248.182 212.96C248.193 212.96 248.204 212.963 248.213 212.968C248.223 212.973 248.231 212.98 248.237 212.988C248.244 212.997 248.248 213.007 248.249 213.017C248.251 213.028 248.25 213.039 248.247 213.049C248.82 216.696 248.784 220.412 248.138 224.047C249.743 227.253 251.206 230.54 252.526 233.861C253.047 231.866 253.724 229.897 254.178 227.882C254.877 225.007 255.106 222.037 254.855 219.089C254.855 219.001 254.97 218.994 254.984 219.089C255.798 224.557 255.135 230.143 253.061 235.268C253.826 237.297 254.557 239.279 255.227 241.288C258.685 251.561 260.735 262.254 261.321 273.077C261.321 273.129 261.3 273.179 261.263 273.216C261.227 273.252 261.177 273.273 261.125 273.273C261.073 273.273 261.023 273.252 260.986 273.216C260.949 273.179 260.928 273.129 260.928 273.077C259.73 262.406 257.443 251.886 254.103 241.68C252.749 237.689 251.239 233.814 249.56 230.006C246.852 229.208 244.144 228.125 241.496 227.205C238.849 226.286 236.242 225.264 234.049 223.56C233.961 223.492 234.055 223.35 234.15 223.397Z" fill="#263238"/>
<path d="M229.878 219.109C232.681 220.11 235.335 221.504 238.138 222.491C238.267 222.539 238.192 222.748 238.057 222.721C235.098 222.106 232.16 221.193 229.77 219.251C229.661 219.177 229.777 219.055 229.878 219.109Z" fill="#263238"/>
<path d="M252.763 213.022C252.763 212.873 252.953 212.792 252.993 212.941C253.765 215.525 254.293 218.264 253.548 220.902C253.548 221.003 253.352 221.01 253.345 220.902C253.217 218.257 253.359 215.673 252.763 213.022Z" fill="#263238"/>
<path d="M241.171 207.09C242.064 208.373 242.491 209.921 242.383 211.48C242.383 211.575 242.221 211.635 242.194 211.48C241.855 210.005 241.286 208.659 240.839 207.225C240.837 207.186 240.847 207.147 240.869 207.114C240.89 207.081 240.921 207.055 240.957 207.04C240.994 207.025 241.034 207.022 241.072 207.031C241.111 207.04 241.145 207.061 241.171 207.09Z" fill="#263238"/>
<path d="M295.336 244.04C293.982 248.302 290.8 254.186 285.742 254.24C282.465 254.24 279.161 253.882 275.877 253.834C272.357 253.78 268.836 253.787 265.322 253.997C265.038 253.997 265.742 243.472 274.198 238.339C276.568 236.898 279.466 236.445 282.154 235.863C285.232 235.136 288.39 234.806 291.552 234.882C293.495 234.963 295.113 235.376 295.804 237.358C296.494 239.34 295.959 242.018 295.336 244.04Z" fill="#F21564"/>
<path d="M291.681 238.724C289.65 239.252 287.551 239.854 285.486 240.51C286.024 239.927 286.594 239.374 287.192 238.853C288.079 238.115 289.054 237.5 290.002 236.884C290.083 236.83 290.036 236.675 289.934 236.715C287.933 237.546 286.205 238.918 284.944 240.679C282.378 241.511 279.832 242.424 277.381 243.432C275.688 244.123 274.064 244.974 272.533 245.975C273.025 244.909 273.612 243.891 274.287 242.931C275.411 241.477 276.928 240.665 278.397 239.637C278.427 239.619 278.448 239.59 278.456 239.557C278.464 239.523 278.459 239.488 278.441 239.458C278.423 239.428 278.394 239.407 278.36 239.399C278.327 239.391 278.291 239.396 278.261 239.414C276.721 240.075 275.336 241.05 274.195 242.278C273.055 243.506 272.184 244.959 271.64 246.543C269.9 247.811 268.31 249.272 266.9 250.899C261.301 257.25 256.893 265.698 256.88 274.315C256.88 274.524 257.211 274.579 257.252 274.369C258.686 265.916 262.372 258.005 267.923 251.467C268.322 251 268.735 250.561 269.148 250.114C270.681 249.908 272.226 249.793 273.772 249.769C275.573 249.769 277.361 250.033 279.155 250.182C282.107 250.419 285.371 250.459 288.032 248.971C288.058 248.957 288.079 248.933 288.089 248.904C288.099 248.876 288.098 248.844 288.086 248.816C288.074 248.788 288.052 248.766 288.025 248.753C287.997 248.741 287.966 248.739 287.937 248.748C282.006 250.906 275.75 248.173 269.825 249.458C272.374 247.033 275.361 245.114 278.627 243.804L279.175 243.587C282.987 244.04 287.009 245.035 290.72 243.797C290.743 243.791 290.763 243.775 290.775 243.754C290.787 243.733 290.79 243.709 290.784 243.685C290.778 243.662 290.762 243.642 290.741 243.63C290.72 243.618 290.695 243.615 290.672 243.621C287.084 244.514 283.644 243.391 280.11 243.215C283.962 241.714 287.889 240.51 291.755 239.035C292.026 238.913 292.033 238.616 291.681 238.724Z" fill="#263238"/>
<path d="M293.359 242.458C291.519 242.695 289.668 242.835 287.814 242.877C287.773 242.877 287.76 242.945 287.814 242.951C289.681 243.299 291.605 243.178 293.413 242.6C293.488 242.573 293.447 242.444 293.359 242.458Z" fill="#263238"/>
<path d="M280.833 238.805C279.809 239.264 278.88 239.908 278.091 240.706C277.99 240.794 278.125 240.97 278.227 240.889C278.694 240.55 279.174 240.212 279.655 239.921C280.122 239.665 280.574 239.382 281.009 239.076C281.118 238.974 280.982 238.724 280.833 238.805Z" fill="#263238"/>
<path d="M250.975 252.522C251.036 252.657 250.833 252.793 250.752 252.644C250.738 252.666 250.719 252.685 250.697 252.699C250.674 252.713 250.649 252.722 250.623 252.725C247.219 253.538 243.769 254.141 240.291 254.531C237.495 254.774 234.272 254.93 231.821 253.313C228.503 251.115 226.323 245.238 228.117 241.504C230.236 237.074 236.628 239.475 239.837 241.058C244.775 243.465 248.714 247.52 250.975 252.522Z" fill="#F21564"/>
<path d="M253.453 254.571C251.59 252.769 249.519 251.194 247.285 249.877C245.676 247.334 243.543 245.162 241.029 243.506C240.907 243.425 240.805 243.614 240.914 243.702C242.914 245.302 244.688 247.166 246.188 249.242C243.695 247.883 241.107 246.707 238.442 245.725C237.495 243.961 236.049 242.514 234.285 241.565C234.251 241.565 234.211 241.565 234.245 241.619C235.698 242.724 236.966 244.053 238.002 245.555C236.425 244.967 234.84 244.426 233.263 243.898C233.121 243.851 233.067 244.067 233.202 244.122C236.032 245.224 238.916 246.387 241.719 247.727C238.304 248.271 234.823 248.271 231.408 247.727C231.39 247.724 231.371 247.728 231.356 247.737C231.341 247.747 231.329 247.762 231.324 247.78C231.319 247.797 231.321 247.816 231.329 247.832C231.337 247.849 231.35 247.862 231.367 247.869C234.93 248.924 238.715 248.982 242.309 248.038C244.093 248.902 245.825 249.871 247.495 250.939C246.088 250.823 244.672 250.939 243.304 251.284C240.886 251.844 238.412 252.123 235.931 252.116C235.836 252.116 235.815 252.265 235.931 252.279C240.203 253.016 244.245 251.075 248.483 251.602C250.057 252.671 251.534 253.875 252.898 255.201C255.542 257.841 257.719 260.91 259.337 264.277C261.117 267.903 262.086 271.718 263.528 275.492C263.537 275.527 263.559 275.557 263.59 275.575C263.622 275.593 263.659 275.599 263.694 275.59C263.729 275.581 263.759 275.558 263.777 275.527C263.796 275.496 263.801 275.459 263.792 275.424C262.526 267.984 258.843 259.834 253.453 254.571Z" fill="#263238"/>
<path d="M240.555 244.433C240.273 243.92 239.902 243.462 239.458 243.08C239.102 242.69 238.675 242.371 238.199 242.14C238.158 242.14 238.131 242.18 238.158 242.207C238.51 242.606 238.998 242.884 239.377 243.276C239.756 243.668 240.054 244.108 240.454 244.487C240.464 244.493 240.475 244.496 240.486 244.496C240.498 244.496 240.509 244.493 240.519 244.488C240.53 244.483 240.538 244.475 240.545 244.465C240.551 244.455 240.554 244.444 240.555 244.433Z" fill="#263238"/>
<path d="M233.506 246.726C232.87 246.57 232.2 246.584 231.557 246.448C230.915 246.295 230.282 246.108 229.661 245.887C229.644 245.884 229.627 245.887 229.612 245.895C229.597 245.903 229.585 245.917 229.579 245.932C229.572 245.948 229.572 245.966 229.577 245.982C229.582 245.999 229.592 246.013 229.607 246.022C230.773 246.74 232.142 247.058 233.506 246.928C233.527 246.921 233.545 246.907 233.558 246.889C233.57 246.871 233.577 246.849 233.577 246.827C233.577 246.805 233.57 246.783 233.558 246.765C233.545 246.747 233.527 246.733 233.506 246.726Z" fill="#263238"/>
<path d="M273.786 262.39L273.088 270.304L270.725 297.014H249.784L246.825 270.304L245.951 262.39H273.786Z" fill="#455A64"/>
<path d="M273.786 262.39L273.088 270.304H246.825L245.951 262.39H273.786Z" fill="#263238"/>
<path d="M275.857 260.233H243.879V266.652H275.857V260.233Z" fill="#455A64"/>
</svg>
