<svg width="440" height="426" viewBox="0 0 440 426" fill="none" xmlns="http://www.w3.org/2000/svg">
<path d="M302.268 35.9794C304.637 21.3206 294.675 7.51683 280.016 5.14774C265.357 2.77865 251.553 12.7414 249.184 27.4001C246.815 42.0589 256.778 55.8627 271.437 58.2318C286.095 60.6008 299.899 50.6381 302.268 35.9794Z" fill="#EBEBEB"/>
<path d="M302.393 37.5046C304.674 23.5602 295.219 10.407 281.274 8.12597C267.33 5.84498 254.177 15.3 251.896 29.2445C249.615 43.1889 259.07 56.3421 273.014 58.6231C286.959 60.9041 300.112 51.4491 302.393 37.5046Z" fill="#DBDBDB"/>
<path d="M287.685 55.1103C299.994 50.0805 305.896 36.0241 300.866 23.7144C295.836 11.4047 281.78 5.50317 269.47 10.5329C257.161 15.5627 251.259 29.6191 256.289 41.9288C261.319 54.2385 275.375 60.14 287.685 55.1103Z" fill="white"/>
<path d="M277.461 11.1448H276.848V14.7824H277.461V11.1448Z" fill="#EBEBEB"/>
<path d="M266.317 13.9994L265.786 14.3058L267.604 17.4564L268.135 17.15L266.317 13.9994Z" fill="#EBEBEB"/>
<path d="M258.355 20.862L258.049 21.3953L261.214 23.2141L261.52 22.6809L258.355 20.862Z" fill="#EBEBEB"/>
<path d="M258.568 33.0706H254.931V33.6836H258.568V33.0706Z" fill="#EBEBEB"/>
<path d="M260.914 42.4218L257.764 44.2411L258.07 44.7719L261.22 42.9526L260.914 42.4218Z" fill="#EBEBEB"/>
<path d="M267.595 49.3163L265.778 52.4676L266.309 52.7738L268.127 49.6226L267.595 49.3163Z" fill="#EBEBEB"/>
<path d="M277.461 51.9725H276.848V55.6102H277.461V51.9725Z" fill="#EBEBEB"/>
<path d="M286.727 49.3523L286.196 49.6588L288.015 52.8091L288.546 52.5026L286.727 49.3523Z" fill="#EBEBEB"/>
<path d="M293.404 42.4099L293.098 42.9408L296.239 44.7546L296.546 44.2237L293.404 42.4099Z" fill="#EBEBEB"/>
<path d="M299.388 33.0706H295.75V33.6836H299.388V33.0706Z" fill="#EBEBEB"/>
<path d="M296.244 21.9911L293.103 23.8049L293.409 24.3358L296.551 22.522L296.244 21.9911Z" fill="#EBEBEB"/>
<path d="M288.025 13.9865L286.208 17.1378L286.739 17.444L288.556 14.2927L288.025 13.9865Z" fill="#EBEBEB"/>
<path d="M280.706 25.6856L270.191 46.3576L270.738 46.6355L281.253 25.9635L280.706 25.6856Z" fill="#EBEBEB"/>
<path d="M275.93 25.1368L275.132 25.2966L279.615 47.6931L280.413 47.5333L275.93 25.1368Z" fill="#DBDBDB"/>
<path d="M198.409 206.352H25.8916V7.12494H198.409V206.352ZM29.9011 202.332H194.389V11.1444H29.9111L29.9011 202.332Z" fill="#EBEBEB"/>
<path d="M112.59 12.1997H108.57V204.342H112.59V12.1997Z" fill="#EBEBEB"/>
<path d="M202.066 15.2544H22.2432V20.8516H202.066V15.2544Z" fill="#EBEBEB"/>
<path d="M202.066 21.5552H22.2432V27.1523H202.066V21.5552Z" fill="#EBEBEB"/>
<path d="M202.066 27.8459H22.2432V33.443H202.066V27.8459Z" fill="#EBEBEB"/>
<path d="M202.066 34.1461H22.2432V39.7432H202.066V34.1461Z" fill="#EBEBEB"/>
<path d="M202.066 40.4463H22.2432V46.0435H202.066V40.4463Z" fill="#EBEBEB"/>
<path d="M202.066 46.7369H22.2432V52.334H202.066V46.7369Z" fill="#EBEBEB"/>
<path d="M202.066 53.038H22.2432V58.6352H202.066V53.038Z" fill="#EBEBEB"/>
<path d="M202.066 59.3384H22.2432V64.9355H202.066V59.3384Z" fill="#EBEBEB"/>
<path d="M202.066 65.6293H22.2432V71.2264H202.066V65.6293Z" fill="#EBEBEB"/>
<path d="M190.126 14.1191H189.121V143.135H190.126V14.1191Z" fill="#263238"/>
<path d="M191.405 147.818H187.838L188.732 142.693H190.511L191.405 147.818Z" fill="#263238"/>
<path d="M193.745 14.1191H192.74V200.755H193.745V14.1191Z" fill="#263238"/>
<path d="M195.022 204.523H191.465L192.349 199.398H194.138L195.022 204.523Z" fill="#263238"/>
<path d="M208.296 6.34119H16.0029V18.048H208.296V6.34119Z" fill="#DBDBDB"/>
<path d="M432.021 52.4446H323.615V188.957H432.021V52.4446Z" fill="#EBEBEB"/>
<path d="M418.224 80.6516H337.04V83.2342H418.224V80.6516Z" fill="#DBDBDB"/>
<path d="M405.784 86.0581H337.04V88.6406H405.784V86.0581Z" fill="#DBDBDB"/>
<path d="M389.464 91.4537H337.04V94.0363H389.464V91.4537Z" fill="#DBDBDB"/>
<path d="M415.39 96.8606H337.04V99.4431H415.39V96.8606Z" fill="#DBDBDB"/>
<path d="M408.728 102.257H337.04V104.839H408.728V102.257Z" fill="#DBDBDB"/>
<path d="M411.431 113.059H337.04V115.642H411.431V113.059Z" fill="#DBDBDB"/>
<path d="M365.538 118.465H337.04V121.048H365.538V118.465Z" fill="#DBDBDB"/>
<path d="M394.509 123.861H337.04V126.444H394.509V123.861Z" fill="#DBDBDB"/>
<path d="M415.39 129.268H337.04V131.85H415.39V129.268Z" fill="#DBDBDB"/>
<path d="M404.598 134.664H337.04V137.246H404.598V134.664Z" fill="#DBDBDB"/>
<path d="M410.245 145.467H337.04V148.049H410.245V145.467Z" fill="#DBDBDB"/>
<path d="M381.355 150.873H337.04V153.455H381.355V150.873Z" fill="#DBDBDB"/>
<path d="M381.355 167.222H337.04V169.805H381.355V167.222Z" fill="#DBDBDB"/>
<path d="M411.382 178.014C415.916 178.014 419.592 174.338 419.592 169.804C419.592 165.27 415.916 161.594 411.382 161.594C406.848 161.594 403.172 165.27 403.172 169.804C403.172 174.338 406.848 178.014 411.382 178.014Z" fill="#F21564"/>
<path d="M228.544 318.215H427.62L431.761 236.539H224.404L228.544 318.215Z" fill="#EBEBEB"/>
<path d="M418.184 273.93H334.95L333.393 245.572H420.003L418.184 273.93ZM335.905 272.925H417.239L418.928 246.577H334.458L335.905 272.925Z" fill="#DBDBDB"/>
<path d="M416.647 306.548H338.217L336.94 280.954H418.245L416.647 306.548ZM339.171 305.543H415.703L417.18 281.959H337.996L339.171 305.543Z" fill="#DBDBDB"/>
<path d="M384.581 262.805H370.593L369.719 255.962H385.466L384.581 262.805ZM371.518 261.801H383.737L384.36 256.967H370.895L371.518 261.801Z" fill="#DBDBDB"/>
<path d="M384.581 297.173H370.593L369.719 290.33H385.466L384.581 297.173ZM371.518 296.168H383.737L384.36 291.334H370.895L371.518 296.168Z" fill="#DBDBDB"/>
<path d="M320.29 273.93H237.056L235.498 245.572H322.108L320.29 273.93ZM238.01 272.925H319.345L321.003 246.577H236.593L238.01 272.925Z" fill="#DBDBDB"/>
<path d="M318.754 306.548H240.323L239.047 280.954H320.351L318.754 306.548ZM241.278 305.543H317.809L319.286 281.959H240.102L241.278 305.543Z" fill="#DBDBDB"/>
<path d="M286.685 262.805H272.697L271.823 255.962H287.57L286.685 262.805ZM273.622 261.801H285.831L286.454 256.967H272.989L273.622 261.801Z" fill="#DBDBDB"/>
<path d="M286.685 297.173H272.697L271.823 290.33H287.57L286.685 297.173ZM273.622 296.168H285.831L286.454 291.334H272.989L273.622 296.168Z" fill="#DBDBDB"/>
<path d="M246.402 318.216L245.146 327.119L242.634 344.996H237.72V318.216H246.402Z" fill="#EBEBEB"/>
<path d="M246.402 318.216L245.146 327.119H237.72V318.216H246.402Z" fill="#DBDBDB"/>
<path d="M409.763 318.216L411.009 327.119L413.531 344.996H418.445V318.216H409.763Z" fill="#EBEBEB"/>
<path d="M409.763 318.216L411.009 327.119H418.445V318.216H409.763Z" fill="#DBDBDB"/>
<path d="M221.522 425.505C321.662 425.505 402.842 414.928 402.842 401.88C402.842 388.833 321.662 378.256 221.522 378.256C121.382 378.256 40.2021 388.833 40.2021 401.88C40.2021 414.928 121.382 425.505 221.522 425.505Z" fill="#EBEBEB"/>
<path d="M55.1936 376.025C85.1735 376.025 109.477 370.204 109.477 363.022C109.477 355.841 85.1735 350.019 55.1936 350.019C25.2137 350.019 0.910156 355.841 0.910156 363.022C0.910156 370.204 25.2137 376.025 55.1936 376.025Z" fill="#EBEBEB"/>
<path d="M3.86328 344.994L58.2773 344.753L112.691 344.663L221.52 344.502L330.348 344.663L384.762 344.753L439.176 344.994L384.762 345.246L330.348 345.336L221.52 345.497L112.691 345.336L58.2773 345.246L3.86328 344.994Z" fill="#263238"/>
<path d="M307.566 330.635C307.566 330.635 307.566 373.916 307.566 373.946C307.566 382.216 307.495 389.471 307.083 393.219C307.088 393.228 307.091 393.239 307.091 393.249C307.091 393.26 307.088 393.27 307.083 393.28C307.083 394.169 306.877 395.046 306.48 395.842L306.43 395.892C303.978 397.57 237.857 399.841 235.526 399.138C233.195 398.435 234.993 391.742 237.536 389.602C240.078 387.461 264.969 375.282 264.969 375.282L265.381 332.022L307.566 330.635Z" fill="#AD6359"/>
<path d="M307.555 365.052V373.945C307.555 382.215 307.484 389.471 307.072 393.219C307.078 393.228 307.081 393.238 307.081 393.249C307.081 393.26 307.078 393.27 307.072 393.279C306.968 394.153 306.766 395.013 306.47 395.842L306.419 395.892C303.967 397.57 237.846 399.841 235.515 399.138C233.184 398.434 234.983 391.742 237.525 389.601C240.067 387.461 264.958 375.282 264.958 375.282L264.837 366.238L307.555 365.052Z" fill="#C7C7C7"/>
<path d="M235.516 399.138C237.847 399.841 303.968 397.58 306.43 395.892C307.375 395.269 307.606 385.612 307.555 373.945V373.573L264.878 374.578L264.929 375.302C264.929 375.302 240.008 387.491 237.495 389.631C234.983 391.772 233.174 398.464 235.516 399.138Z" fill="#263238"/>
<path d="M236.17 396.555C247.314 395.892 292.293 394.305 303.346 394.546C303.437 394.546 303.437 394.606 303.346 394.616C292.293 395.5 247.335 396.736 236.18 396.777C235.949 396.736 235.939 396.566 236.17 396.555Z" fill="#455A64"/>
<path d="M261.331 375.533C265.692 374.528 271.078 375.051 274.535 378.066C274.675 378.186 274.535 378.367 274.364 378.327C270.125 377.12 265.769 376.369 261.371 376.086C261.305 376.079 261.244 376.05 261.198 376.002C261.152 375.955 261.124 375.892 261.119 375.827C261.114 375.761 261.133 375.695 261.171 375.641C261.21 375.588 261.266 375.55 261.331 375.533Z" fill="#455A64"/>
<path d="M258.236 377.553C262.587 376.548 267.983 377.071 271.44 380.086C271.571 380.196 271.44 380.387 271.259 380.347C267.021 379.138 262.665 378.387 258.266 378.106C258.201 378.098 258.141 378.067 258.096 378.018C258.051 377.97 258.025 377.908 258.021 377.842C258.017 377.776 258.037 377.712 258.076 377.659C258.116 377.606 258.172 377.569 258.236 377.553Z" fill="#455A64"/>
<path d="M255.132 379.563C259.494 378.558 264.88 379.09 268.336 382.095C268.477 382.216 268.336 382.406 268.166 382.366C263.927 381.156 259.571 380.401 255.173 380.115C255.107 380.109 255.045 380.079 254.999 380.031C254.953 379.984 254.925 379.922 254.921 379.856C254.916 379.79 254.934 379.724 254.973 379.671C255.012 379.617 255.068 379.579 255.132 379.563Z" fill="#455A64"/>
<path d="M311.353 170.186L311.312 173.05L309.695 299.524L309.685 300.006L308.73 375.764L262.445 374.839L271.379 170.337L271.499 167.604L271.951 143.878H311.041L311.353 170.186Z" fill="#455A64"/>
<path d="M264.388 367.122C271.613 367.052 269.533 366.972 276.758 366.992C280.295 366.992 303.538 367.082 306.834 367.665C306.904 367.665 306.904 367.806 306.834 367.816C303.518 368.318 280.285 367.816 276.748 367.755C269.523 367.605 271.603 367.564 264.378 367.333C264.355 367.325 264.336 367.31 264.323 367.291C264.31 367.271 264.304 367.248 264.305 367.224C264.306 367.201 264.315 367.178 264.33 367.16C264.344 367.141 264.365 367.128 264.388 367.122Z" fill="#263238"/>
<path d="M285.119 183.491C285.119 183.47 285.111 183.45 285.096 183.434C285.081 183.419 285.06 183.411 285.039 183.411C285.018 183.411 284.997 183.419 284.982 183.434C284.967 183.45 284.959 183.47 284.959 183.491C284.959 195.6 284.466 202.383 284.175 214.482C283.883 226.58 283.532 238.679 283.17 250.768C282.517 274.955 281.542 299.122 280.648 323.3C280.145 336.859 279.519 350.411 278.769 363.957C278.769 363.976 278.776 363.994 278.789 364.007C278.802 364.02 278.82 364.027 278.839 364.027C278.858 364.027 278.875 364.02 278.889 364.007C278.902 363.994 278.909 363.976 278.909 363.957C280.668 339.84 282.346 315.643 283.311 291.455C284.275 267.268 284.959 243.091 285.069 218.903C285.17 205.327 285.089 197.067 285.119 183.491Z" fill="#263238"/>
<path d="M311.343 170.186L309.695 299.524L278.675 143.878H311.032L311.343 170.186Z" fill="#263238"/>
<path d="M359.478 328.293C359.478 328.293 365.306 371.171 365.306 371.201C366.472 379.401 367.316 386.606 367.436 390.374C367.436 390.374 367.436 390.374 367.436 390.435C367.554 391.313 367.471 392.206 367.195 393.047C367.194 393.068 367.194 393.088 367.195 393.108C364.984 395.118 299.768 406.272 297.366 405.89C294.965 405.508 295.849 398.635 298.029 396.173C300.21 393.711 323.282 378.286 323.282 378.286L317.856 335.368L359.478 328.293Z" fill="#AD6359"/>
<path d="M364.11 362.399C364.11 362.399 365.306 371.172 365.306 371.202C366.472 379.402 367.316 386.607 367.436 390.375C367.436 390.375 367.436 390.375 367.436 390.435C367.455 391.312 367.374 392.189 367.195 393.048C367.194 393.068 367.194 393.088 367.195 393.108C364.984 395.118 299.768 406.272 297.366 405.89C294.965 405.508 295.849 398.635 298.029 396.173C300.21 393.711 323.282 378.286 323.282 378.286L321.905 369.323L364.11 362.399Z" fill="#C7C7C7"/>
<path d="M297.326 405.89C299.738 406.272 364.944 395.108 367.155 393.108C368.009 392.355 366.934 382.768 365.306 371.202L365.246 370.84L323.101 377.573L323.242 378.286C323.242 378.286 300.19 393.721 297.99 396.183C295.789 398.645 294.874 405.499 297.326 405.89Z" fill="#263238"/>
<path d="M297.627 403.237C308.58 401.087 352.895 393.439 363.949 392.183C364.039 392.183 364.049 392.234 363.949 392.254C353.146 394.625 308.741 401.911 297.687 403.458C297.426 403.488 297.396 403.287 297.627 403.237Z" fill="#455A64"/>
<path d="M319.726 379.02C323.916 377.472 329.323 377.231 333.151 379.743C333.302 379.844 333.151 380.055 333.01 380.035C328.649 379.405 324.232 379.247 319.836 379.562C319.771 379.564 319.706 379.542 319.655 379.501C319.603 379.46 319.568 379.402 319.554 379.337C319.541 379.273 319.551 379.205 319.583 379.147C319.614 379.089 319.665 379.044 319.726 379.02Z" fill="#455A64"/>
<path d="M316.921 381.432C321.112 379.885 326.518 379.644 330.346 382.166C330.497 382.256 330.346 382.467 330.206 382.447C325.844 381.822 321.427 381.664 317.032 381.975C316.966 381.976 316.902 381.955 316.85 381.913C316.798 381.872 316.763 381.814 316.75 381.75C316.737 381.685 316.747 381.618 316.778 381.56C316.809 381.502 316.86 381.457 316.921 381.432Z" fill="#455A64"/>
<path d="M314.128 383.853C318.319 382.306 323.715 382.065 327.553 384.577C327.704 384.677 327.553 384.888 327.413 384.868C323.052 384.234 318.634 384.076 314.239 384.396C314.173 384.398 314.109 384.376 314.057 384.335C314.005 384.293 313.97 384.236 313.957 384.171C313.944 384.106 313.954 384.039 313.985 383.981C314.016 383.923 314.067 383.878 314.128 383.853Z" fill="#455A64"/>
<path d="M275.933 143.839C276.103 144.643 278.837 157.324 281.67 168.217C283.73 176.176 285.851 183.17 287.067 183.893C288.443 184.707 295.156 187.682 297.407 188.616L307.687 286.923L321.584 377.945L367.025 370.911L334.688 171.704L329.422 143.839H275.933Z" fill="#455A64"/>
<path d="M321.856 368.81C328.99 367.664 326.88 367.885 334.075 366.8C337.572 366.278 360.564 362.871 363.91 362.962C363.98 362.962 364 363.082 363.91 363.102C360.714 364.107 337.662 367.122 334.155 367.564C326.991 368.488 329.041 368.147 321.866 369.001C321.849 368.992 321.834 368.979 321.823 368.963C321.813 368.946 321.807 368.928 321.806 368.908C321.805 368.889 321.809 368.87 321.818 368.852C321.826 368.835 321.84 368.821 321.856 368.81Z" fill="#263238"/>
<path d="M348.133 341.629C346.997 335.318 345.872 329.007 344.706 322.697C342.381 310.075 340.037 297.457 337.672 284.843C332.929 259.594 328.239 234.324 323.604 209.035C321.011 194.766 321.071 196.102 318.81 181.763C318.81 181.672 318.629 181.682 318.65 181.763C320.82 194.505 319.795 191.711 321.845 204.473C323.895 217.235 326.045 229.725 328.306 242.317C332.848 267.629 337.612 292.902 342.425 318.165C343.765 325.252 345.135 332.33 346.535 339.398C347.942 346.613 349.549 353.788 351.037 360.982C351.037 361.143 351.328 361.133 351.298 360.982C350.253 354.541 349.308 348.07 348.133 341.629Z" fill="#263238"/>
<path d="M335.642 182.707C334.436 182.396 333.139 182.295 331.913 182.104C330.909 181.943 329.904 181.762 328.899 181.551C327.008 181.213 325.216 180.458 323.653 179.341C321.945 178.014 321.071 175.994 320.247 174.055C319.751 172.91 319.249 171.764 318.739 170.618L317.986 168.96C317.635 168.31 317.323 167.638 317.051 166.951C317.051 166.85 316.86 166.951 316.901 166.951C317.072 167.42 317.213 167.9 317.323 168.388C317.493 168.94 317.644 169.493 317.815 170.046C318.127 171.051 318.428 172.055 318.75 173.06C319.239 174.873 319.944 176.621 320.85 178.266C322.679 181.16 325.934 182.335 329.19 182.747C330.125 182.858 331.069 182.928 332.014 182.978C333.197 183.084 334.388 183.084 335.571 182.978C335.599 182.971 335.624 182.957 335.644 182.936C335.664 182.916 335.679 182.891 335.686 182.863C335.693 182.836 335.693 182.807 335.685 182.779C335.677 182.752 335.662 182.727 335.642 182.707Z" fill="#263238"/>
<path d="M283.5 182.155C288.292 183.895 292.923 186.054 297.337 188.606C297.374 188.623 297.403 188.655 297.417 188.693C297.431 188.732 297.43 188.775 297.412 188.812C297.395 188.849 297.364 188.878 297.325 188.892C297.286 188.906 297.244 188.905 297.206 188.887C292.544 186.877 287.791 184.968 283.249 182.717C283.186 182.677 283.139 182.616 283.118 182.544C283.096 182.473 283.101 182.396 283.132 182.328C283.162 182.259 283.216 182.204 283.284 182.173C283.351 182.141 283.428 182.134 283.5 182.155Z" fill="#263238"/>
<path d="M282.091 150.259C282.091 150.099 282.392 150.058 282.392 150.259C282.389 155.461 282.651 160.66 283.176 165.835C283.387 168.237 285.317 181.501 289.487 180.536C290.18 180.376 290.492 179.682 290.642 178.637C290.627 177.263 290.442 175.896 290.09 174.567C289.627 171.784 289.256 169 289.024 166.197C288.534 160.973 288.591 155.712 289.195 150.501C289.195 150.466 289.209 150.433 289.234 150.408C289.258 150.384 289.291 150.37 289.326 150.37C289.361 150.37 289.394 150.384 289.418 150.408C289.443 150.433 289.457 150.466 289.457 150.501C289.34 157.747 289.763 164.992 290.723 172.176C291.245 175.623 292.984 180.818 289.376 181.35C285.769 181.883 283.347 173.191 282.875 170.809C281.724 164.022 281.46 157.114 282.091 150.259Z" fill="#263238"/>
<path d="M289.376 180.838C289.743 181.736 290.055 182.656 290.311 183.591C290.58 184.315 290.712 185.081 290.703 185.852C290.697 185.884 290.682 185.913 290.66 185.935C290.637 185.958 290.609 185.974 290.577 185.98C290.546 185.987 290.514 185.984 290.484 185.972C290.455 185.96 290.429 185.939 290.411 185.913C289.963 185.236 289.624 184.494 289.407 183.712C289.085 182.868 288.753 182.014 288.462 181.16C288.419 181.038 288.427 180.905 288.482 180.789C288.538 180.673 288.637 180.584 288.758 180.542C288.88 180.499 289.013 180.506 289.129 180.562C289.245 180.617 289.334 180.717 289.376 180.838Z" fill="#263238"/>
<path d="M335.159 174.627C329.652 174.266 271.5 167.593 271.5 167.593L271.952 143.868H275.972H329.461L334.727 171.733L335.159 174.627Z" fill="#263238"/>
<path d="M294.432 89.3842C287.78 110.205 276.515 131.7 273.259 135.93C264.527 147.305 238.29 158.51 230.281 159.957C226.814 160.58 218.504 138.221 220.654 135.146C222.805 132.071 255.413 119.611 257.011 117.953C258.116 116.797 271.873 99.0712 281.128 88.3793C292.694 75.0848 296.181 83.9378 294.432 89.3842Z" fill="#AD6359"/>
<path d="M227.619 130.805L240.502 156.932C240.502 156.932 267.885 145.064 274.406 136.593C280.928 128.122 292.745 99.4125 294.504 90.2681C296.262 81.1237 293.228 74.592 280.978 87.9569C268.729 101.322 258.579 114.636 256.389 116.867C254.198 119.098 227.619 130.805 227.619 130.805Z" fill="#EBEBEB"/>
<path d="M228.703 129.479L244.138 156.55C244.138 156.55 268.255 145.024 274.405 137.458C280.555 129.891 290.694 106.658 293.869 94.1172C297.045 81.5764 295.186 72.6832 280.987 88.0277C266.788 103.372 258.759 114.516 255.865 117.018C254.488 118.104 228.703 129.479 228.703 129.479Z" fill="#37474F"/>
<path d="M235.206 131.981C235.988 131.981 236.623 131.346 236.623 130.564C236.623 129.781 235.988 129.147 235.206 129.147C234.423 129.147 233.789 129.781 233.789 130.564C233.789 131.346 234.423 131.981 235.206 131.981Z" fill="#263238"/>
<path d="M241.887 128.906C242.669 128.906 243.303 128.272 243.303 127.489C243.303 126.707 242.669 126.072 241.887 126.072C241.104 126.072 240.47 126.707 240.47 127.489C240.47 128.272 241.104 128.906 241.887 128.906Z" fill="#263238"/>
<path d="M293.871 94.0769C290.695 106.618 280.566 129.81 274.406 137.417C271.774 140.663 265.885 144.622 259.986 148.099L291.067 80.0287C295.881 78.7224 296.031 85.5555 293.871 94.0769Z" fill="#263238"/>
<path d="M338.195 164.669C338.035 164.85 268.517 165.061 267.854 164.348C266.96 163.343 282.666 87.9773 289.801 78.7224C291.318 76.7126 296.352 76.18 300.633 76.7126C301.75 76.8386 302.853 77.0639 303.929 77.3859H304.05C304.918 77.642 305.737 78.0429 306.471 78.5717C318.369 88.0778 328.398 121.309 330.739 131.287C334.658 147.757 338.768 164.016 338.195 164.669Z" fill="#EBEBEB"/>
<path d="M306.27 77.6878C306.27 77.6878 300.612 108.538 299.627 116.556C298.643 124.575 300.09 166.931 300.09 166.931L343.742 170.157C343.742 170.157 334.306 142.121 334.195 140.342C334.195 140.342 326.357 106.759 319.012 92.7308C315.803 86.9217 311.472 81.8082 306.27 77.6878Z" fill="#37474F"/>
<path d="M343.742 170.156L323.946 168.689L309.817 80.7924V80.8527L318.68 92.2078C318.781 92.3887 318.881 92.5696 318.972 92.7505C326.317 106.819 334.156 140.362 334.156 140.362C334.306 142.12 343.742 170.156 343.742 170.156Z" fill="#263238"/>
<path d="M289.379 78.3605C289.379 78.3605 284.747 109.602 284.244 112.185C283.742 114.767 276.728 165.714 276.728 165.714L265.805 166.056L271.502 142.763C271.502 142.763 284.174 85.0128 289.379 78.3605Z" fill="#37474F"/>
<path d="M295.758 95.5038L292.663 89.4745L288.664 93.8357L289.649 98.1768L293.588 98.6893L295.758 95.5038Z" fill="#263238"/>
<path d="M293.589 98.6897L295.478 143.045L287.168 157.716L282.847 141.206L289.65 98.1772L293.589 98.6897Z" fill="#263238"/>
<path d="M291.846 221.279L291.791 273.372L377.768 273.462L377.823 221.369L291.846 221.279Z" fill="#F21564"/>
<path opacity="0.1" d="M291.842 221.285L291.816 245.814L377.794 245.904L377.819 221.375L291.842 221.285Z" fill="black"/>
<path d="M289.794 237.918L379.841 238.013L379.867 213.705L289.82 213.61L289.794 237.918Z" fill="#F21564"/>
<path d="M315.897 199.78L315.876 213.637L322.398 213.647L322.408 205.759L347.279 205.789L347.269 213.677H353.79L353.801 199.81L315.897 199.78Z" fill="#263238"/>
<path d="M361.602 243.79L367.471 243.796L367.483 232.18L361.614 232.174L361.602 243.79Z" fill="#263238"/>
<path d="M302.144 243.741L308.012 243.747L308.024 232.131L302.156 232.125L302.144 243.741Z" fill="#263238"/>
<path d="M315.876 86.9524C335.27 104.548 347.58 129.68 348.414 134.754C350.424 147.024 352.966 168.528 352.534 177.964C352.373 181.461 325.874 177.221 325.925 173.482C326.095 161.786 324.538 136.061 324.468 135.609C323.995 132.463 318.227 118.325 312.409 102.99C306.591 87.6559 307.716 79.5666 315.876 86.9524Z" fill="#AD6359"/>
<path d="M323.131 210.14C323.904 210.492 324.766 210.598 325.601 210.446C326.437 210.293 327.205 209.888 327.804 209.286C328.56 210.514 329.723 211.439 331.09 211.899C333.532 212.602 335.702 209.075 335.702 209.075C336.755 210.186 338.117 210.956 339.611 211.286C342.013 211.718 344.716 208.472 344.716 208.472C346.244 208.953 347.893 208.875 349.369 208.251C351.871 207.075 353.991 199.901 354.514 195.77C355.036 191.64 352.634 179.431 352.413 177.06L325.925 173.502C325.925 173.502 318.328 191.369 318.408 196.313C318.479 200.503 320.217 208.693 323.131 210.14Z" fill="#AD6359"/>
<path d="M327.403 209.045C326.267 204.634 326.498 200.122 326.478 195.62C326.478 195.598 326.486 195.578 326.502 195.563C326.517 195.548 326.537 195.539 326.558 195.539C326.58 195.539 326.6 195.548 326.615 195.563C326.63 195.578 326.639 195.598 326.639 195.62C326.639 200.102 327.463 204.533 327.644 209.015C327.648 209.047 327.639 209.079 327.619 209.104C327.599 209.13 327.57 209.147 327.538 209.15C327.506 209.154 327.474 209.146 327.448 209.126C327.423 209.106 327.407 209.077 327.403 209.045Z" fill="#263238"/>
<path d="M335.371 208.944C335.209 207.917 335.182 206.873 335.291 205.839C335.291 204.744 335.411 203.639 335.502 202.543C335.676 200.346 335.9 198.155 336.175 195.971C336.175 195.871 336.336 195.871 336.326 195.971C336.165 198.162 336.034 200.353 335.954 202.543C335.954 203.649 335.894 204.744 335.874 205.839C335.918 206.878 335.85 207.919 335.673 208.944C335.661 208.975 335.641 209.002 335.614 209.02C335.587 209.039 335.555 209.049 335.522 209.049C335.489 209.049 335.457 209.039 335.43 209.02C335.403 209.002 335.383 208.975 335.371 208.944Z" fill="#263238"/>
<path d="M344.715 208.382C344.586 207.449 344.613 206.502 344.795 205.578C344.895 204.573 344.986 203.568 345.076 202.564C345.257 200.554 345.428 198.544 345.529 196.534C345.529 196.434 345.689 196.434 345.689 196.534C345.589 198.544 345.519 200.614 345.408 202.654L345.227 205.669C345.248 206.587 345.109 207.502 344.815 208.372C344.811 208.381 344.804 208.388 344.795 208.394C344.787 208.4 344.778 208.403 344.768 208.404C344.758 208.405 344.748 208.404 344.738 208.4C344.729 208.396 344.721 208.39 344.715 208.382Z" fill="#263238"/>
<path d="M324.63 173.623L354.003 175.211C354.003 175.211 351.832 143.055 349.501 134.121C347.17 125.188 327.273 95.4136 315.526 84.6212C304.472 74.4619 304.472 82.9129 308.663 94.8207C312.853 106.729 323.223 135.508 323.575 137.608C323.927 139.709 324.63 173.623 324.63 173.623Z" fill="#37474F"/>
<path d="M325.945 167.694C327.071 167.594 328.206 167.694 329.332 167.694C330.457 167.694 331.583 167.744 332.708 167.795C334.879 167.885 337.049 168.016 339.22 168.156L345.721 168.589C347.962 168.739 350.253 168.78 352.474 169.111C352.489 169.117 352.503 169.127 352.512 169.141C352.521 169.154 352.526 169.17 352.526 169.187C352.526 169.203 352.521 169.219 352.512 169.232C352.503 169.246 352.489 169.256 352.474 169.262C350.233 169.352 347.952 169.151 345.711 169.071L339.079 168.8C336.868 168.699 334.658 168.589 332.447 168.448C331.362 168.388 330.276 168.307 329.201 168.187C328.126 168.066 327 168.056 325.935 167.845C325.835 167.825 325.865 167.704 325.945 167.694Z" fill="#263238"/>
<path d="M293.709 88.6711C294.855 88.6208 302.462 82.6418 304.763 78.0395C304.924 77.7179 304.331 74.442 303.808 70.4325C303.497 68.0007 303.205 65.2775 303.125 62.7754C303.125 62.2629 301.396 63.2678 301.396 63.2678L298.181 64.1521L287.569 67.1064C288.569 70.2047 289.183 73.4143 289.398 76.6628C289.41 76.9993 289.386 77.3361 289.328 77.6677C289.332 77.7245 289.332 77.7816 289.328 77.8385C289.097 79.8181 291.86 88.7414 293.709 88.6711Z" fill="#AD6359"/>
<path d="M289.368 77.6875C289.373 77.7443 289.373 77.8015 289.368 77.8583C289.906 77.9093 290.448 77.9093 290.986 77.8583C301.537 77.2755 302.412 63.79 302.412 63.79L298.241 64.1116L287.63 67.0659C288.629 70.1642 289.244 73.3739 289.459 76.6223C289.468 76.9796 289.438 77.3369 289.368 77.6875Z" fill="#263238"/>
<path d="M302.734 41.572C305.266 46.8074 304.844 63.1467 301.478 67.2968C296.614 73.3261 287.409 75.2454 281.983 69.1056C276.728 63.1668 277.662 41.8835 281.531 37.9544C287.229 32.2467 298.996 33.8344 302.734 41.572Z" fill="#AD6359"/>
<path d="M288.724 53.4898C288.724 53.4898 288.805 53.4898 288.805 53.5903C288.744 54.6856 288.865 55.9618 289.809 56.3437C289.809 56.3437 289.809 56.414 289.809 56.404C288.634 56.213 288.493 54.5248 288.724 53.4898Z" fill="#263238"/>
<path d="M289.728 52.3646C291.497 52.2642 291.567 55.8214 289.919 55.9119C288.271 56.0023 288.241 52.445 289.728 52.3646Z" fill="#263238"/>
<path d="M282.353 53.7915C282.353 53.7915 282.272 53.8417 282.272 53.892C282.322 54.9873 282.202 56.2635 281.207 56.6453V56.7056C282.433 56.5047 282.584 54.7964 282.353 53.7915Z" fill="#263238"/>
<path d="M281.35 52.6456C279.581 52.5452 279.501 56.1024 281.149 56.1929C282.797 56.2833 282.817 52.7863 281.35 52.6456Z" fill="#263238"/>
<path d="M291.105 50.7168C290.613 50.5962 290.18 50.4153 289.718 50.2545C289.205 50.1634 288.737 49.9013 288.392 49.5109C288.306 49.3698 288.27 49.2036 288.29 49.0395C288.31 48.8753 288.385 48.7227 288.502 48.6065C288.765 48.405 289.077 48.2774 289.405 48.2368C289.734 48.1961 290.067 48.244 290.371 48.3754C291.029 48.5493 291.598 48.9611 291.969 49.531C292.046 49.6656 292.083 49.8196 292.074 49.9745C292.066 50.1294 292.012 50.2784 291.921 50.4038C291.83 50.5291 291.704 50.6253 291.559 50.6809C291.414 50.7364 291.257 50.7489 291.105 50.7168Z" fill="#263238"/>
<path d="M279.942 50.8874C280.417 50.7828 280.887 50.652 281.348 50.4955C281.862 50.424 282.338 50.1877 282.705 49.8223C282.798 49.685 282.843 49.5204 282.832 49.3546C282.821 49.1889 282.755 49.0316 282.645 48.9078C282.392 48.6923 282.086 48.5487 281.759 48.4921C281.432 48.4355 281.096 48.468 280.786 48.5863C280.121 48.7267 279.534 49.1102 279.138 49.6615C279.054 49.7921 279.011 49.9439 279.012 50.0987C279.013 50.2535 279.058 50.4048 279.143 50.5343C279.228 50.6637 279.349 50.766 279.49 50.8286C279.632 50.8912 279.789 50.9117 279.942 50.8874Z" fill="#263238"/>
<path d="M285.379 61.7698C285.851 62.3681 286.471 62.8323 287.178 63.1163C287.567 63.2617 287.992 63.2827 288.394 63.1766C289.278 62.9254 289.278 62.1718 289.107 61.4282C289.008 61.0786 288.87 60.7415 288.695 60.4233C287.761 61.213 286.599 61.6846 285.379 61.7698Z" fill="#263238"/>
<path d="M287.176 63.117C287.565 63.2623 287.99 63.2834 288.392 63.1773C289.276 62.9261 289.276 62.1724 289.105 61.4288C288.642 61.456 288.201 61.6367 287.851 61.9424C287.502 62.2481 287.264 62.6613 287.176 63.117Z" fill="#FF9ABB"/>
<path d="M279.278 43.4211C279.851 42.0142 280.524 40.5974 281.358 40.2959C282.192 39.9944 282.785 42.0444 284.705 42.1348C287.287 42.2655 288.493 39.8739 292.101 39.5523C297.276 39.0901 299.637 43.3809 299.908 50.7366C300.14 57.2984 304.129 57.841 304.129 57.841C304.129 57.841 306.259 43.3105 302.119 38.5876C297.979 33.8647 288.533 31.9253 282.323 36.5779C280.022 38.3364 279.278 43.4211 279.278 43.4211Z" fill="#263238"/>
<path d="M300.762 55.3187C300.762 55.3187 303.667 49.6813 306.179 50.646C308.691 51.6107 306.993 59.4487 304.38 60.8455C304.058 61.0465 303.698 61.1801 303.323 61.2383C302.947 61.2966 302.564 61.2782 302.196 61.1843C301.828 61.0904 301.483 60.9229 301.181 60.692C300.879 60.4611 300.628 60.1715 300.441 59.8406L300.762 55.3187Z" fill="#AD6359"/>
<path d="M305.638 52.8875C305.638 52.8875 305.698 52.9378 305.638 52.9579C303.819 53.9627 303.046 55.9122 302.623 57.8617C302.708 57.6526 302.837 57.4646 303.002 57.3108C303.167 57.157 303.364 57.0411 303.578 56.9713C303.793 56.9014 304.02 56.8792 304.244 56.9063C304.468 56.9334 304.683 57.0091 304.874 57.1281C304.925 57.1281 304.874 57.2386 304.874 57.2386C304.522 57.1759 304.158 57.2244 303.834 57.3774C303.51 57.5305 303.241 57.7805 303.066 58.0928C302.772 58.6148 302.536 59.1674 302.362 59.7408C302.302 59.9317 301.97 59.8815 302.011 59.6704C301.588 57.1783 303.035 53.4904 305.638 52.8875Z" fill="#263238"/>
<path d="M289.317 78.0694L293.106 87.3745L304.602 75.6175L307.877 79.3757C307.877 79.3757 296.643 98.0061 296.573 97.1922L292.734 89.2135L287.237 94.7805L287.649 80.8227L289.317 78.0694Z" fill="#EBEBEB"/>
<path d="M287.047 87.8766C287.198 85.5754 287.278 83.2441 287.53 80.953C287.53 80.8726 287.67 80.8425 287.69 80.953C288.153 83.1738 287.55 92.0067 287.56 94.0867C287.791 93.8456 292.655 89.193 292.705 89.2633C293.539 90.5295 296.353 96.2975 296.543 96.8702C298.322 93.9059 305.125 83.1336 307.235 80.33C307.248 80.3188 307.264 80.312 307.281 80.3106C307.299 80.3092 307.316 80.3133 307.33 80.3222C307.345 80.3312 307.356 80.3446 307.362 80.3604C307.369 80.3763 307.37 80.3938 307.366 80.4104C305.828 83.4853 296.825 98.0058 296.684 98.0058C295.202 95.2621 293.86 92.4448 292.665 89.5648C291.841 90.5697 286.927 95.8453 286.907 95.5036C286.821 92.9606 286.868 90.4148 287.047 87.8766Z" fill="#263238"/>
<path d="M159.516 87.656C172.158 112.607 185 172.628 186.196 180.657C187.01 186.114 158.32 191.048 158.32 187.269C158.32 182.426 152.532 125.771 153.085 103.382C153.387 91.0324 156.904 82.501 159.516 87.656Z" fill="#EB9481"/>
<path d="M158.213 184.877C157.751 188.163 158.846 199.548 160.997 207.989C162.001 212.109 166.302 223.615 169.528 223.062C172.754 222.51 171.799 219.043 171.799 219.043C171.799 219.043 174.331 223.625 177.517 222.771C180.702 221.917 179.064 216.551 179.064 216.551C179.064 216.551 181.998 221.083 185.093 219.998C188.188 218.912 185.646 213.798 185.646 213.798C185.646 213.798 188.148 218.068 190.339 216.089C192.982 213.707 187.495 206.371 186.571 201.759C186.36 200.754 183.797 180.235 183.797 180.235L158.213 184.877Z" fill="#EB9481"/>
<path d="M185.684 213.727C181.665 208.321 180.841 205.256 180.339 198.654C180.331 198.632 180.317 198.612 180.298 198.598C180.279 198.584 180.257 198.577 180.233 198.577C180.209 198.577 180.186 198.584 180.168 198.598C180.149 198.612 180.135 198.632 180.127 198.654C180.037 205.176 180.519 209.165 185.433 213.958C185.674 214.169 185.875 213.978 185.684 213.727Z" fill="#263238"/>
<path d="M179.142 216.843C175.454 210.864 174.53 207.548 173.485 200.664C173.485 200.564 173.304 200.574 173.314 200.664C173.766 207.508 174.319 211.477 178.811 216.974C179.012 217.235 179.313 217.114 179.142 216.843Z" fill="#263238"/>
<path d="M171.507 218.591C168.362 212.562 167.196 208.954 167.045 202.141C167.037 202.114 167.021 202.09 166.998 202.073C166.976 202.056 166.948 202.046 166.92 202.046C166.891 202.046 166.864 202.056 166.841 202.073C166.818 202.09 166.802 202.114 166.794 202.141C166.271 209.105 167.698 213.597 171.316 218.681C171.567 218.973 171.708 218.933 171.507 218.591Z" fill="#263238"/>
<path d="M186.015 179.23C186.015 179.23 190.638 186.265 191.984 189.852C193.331 193.439 193.482 208.482 190.226 208.703C186.025 208.985 184.197 200.293 183.895 195.921C183.895 195.921 174.168 196.575 171.535 190.616C168.902 184.657 186.015 179.23 186.015 179.23Z" fill="#EB9481"/>
<path d="M189.05 208.392C185.031 205.89 184.97 200.122 184.337 195.901C184.331 195.839 184.309 195.778 184.274 195.725C184.239 195.673 184.192 195.629 184.137 195.599C184.082 195.568 184.02 195.551 183.957 195.55C183.894 195.548 183.831 195.562 183.774 195.59C179.685 195.59 173.907 194.404 171.435 190.867C171.429 190.853 171.421 190.841 171.411 190.831C171.4 190.821 171.388 190.813 171.374 190.808C171.36 190.803 171.345 190.801 171.331 190.803C171.316 190.804 171.302 190.809 171.29 190.816C171.277 190.824 171.266 190.834 171.258 190.846C171.25 190.858 171.244 190.871 171.242 190.886C171.239 190.9 171.24 190.915 171.244 190.929C171.248 190.943 171.254 190.956 171.264 190.967C173.394 195.128 178.981 196.755 183.463 196.464C184.046 200.795 184.357 206.583 189.02 208.432C189.05 208.442 189.07 208.412 189.05 208.392Z" fill="#263238"/>
<path d="M188.952 177.542L156.363 182.566C156.363 182.566 151.168 122.063 150.977 101.754C150.786 81.4457 158.082 76.4716 165.91 97.2424C173.738 118.013 188.952 177.542 188.952 177.542Z" fill="#F21564"/>
<path d="M156.202 177.471C169.536 174.457 183.996 173.341 186.509 172.97C186.629 172.97 186.639 173.14 186.509 173.15C184.037 173.392 167.637 176.477 156.202 177.672C156.111 177.682 156.101 177.492 156.202 177.471Z" fill="#263238"/>
<path d="M228.432 399.087C226.171 399.82 159.9 398.826 157.468 397.228C157.177 397.047 157.136 391.058 157.217 382.848L153.991 334.081L195.925 334.202L199.241 376.407C199.241 376.407 208.646 380.748 216.404 384.546C219.798 386.089 223.097 387.834 226.282 389.772C228.784 391.862 230.693 398.363 228.432 399.087Z" fill="#EB9481"/>
<path d="M228.432 399.087C226.171 399.821 159.899 398.826 157.467 397.228C157.176 397.047 157.136 391.058 157.216 382.848C173.585 386.496 217.237 392.405 218.513 388.978C219.026 387.601 217.981 386.044 216.423 384.607C219.818 386.149 223.116 387.894 226.301 389.832C228.783 391.862 230.693 398.363 228.432 399.087Z" fill="#263238"/>
<path d="M136.283 156.59C136.283 156.59 148.161 282.622 148.422 284.149C148.422 284.35 148.553 286.682 148.663 290.47C149.327 311.261 150.954 376.096 150.954 376.096H200.776C200.776 376.096 197.53 299.303 195.661 281.396C193.28 258.535 178.639 156.59 178.639 156.59H136.283Z" fill="#37474F"/>
<path d="M154.364 288.41C152.83 262.243 150.522 236.117 147.44 210.03C145.692 195.359 143.581 180.738 141.491 166.107C141.491 165.976 141.27 165.986 141.29 166.107C145.149 192.143 147.872 218.361 150.224 244.598C152.575 270.835 154.243 297.012 155.248 323.28C155.861 338.152 156.323 353.044 156.796 367.926C156.808 367.991 156.842 368.049 156.893 368.09C156.943 368.132 157.007 368.155 157.072 368.155C157.137 368.155 157.201 368.132 157.251 368.09C157.302 368.049 157.336 367.991 157.348 367.926C156.685 341.438 155.921 314.909 154.364 288.41Z" fill="#263238"/>
<path d="M197.63 368.067C196.323 367.896 194.907 367.946 193.61 367.906C192.123 367.906 190.596 367.836 189.129 367.785C186.245 367.675 183.35 367.594 180.466 367.554C174.648 367.454 168.82 367.494 163.012 367.675L158.208 367.846C156.5 367.906 154.792 368.067 153.084 368.057C152.963 368.057 152.963 368.207 153.084 368.207C156.008 368.207 158.972 368.459 161.906 368.569C164.841 368.68 167.674 368.72 170.558 368.76C176.377 368.84 182.215 368.76 188.023 368.579C189.621 368.519 191.219 368.499 192.816 368.449L195.389 368.318C196.153 368.318 196.906 368.318 197.67 368.248C197.77 368.248 197.76 368.087 197.63 368.067Z" fill="#263238"/>
<path d="M172.278 156.59L149.517 320.747C149.196 308.508 148.874 297.193 148.663 290.47C148.553 286.682 148.462 284.35 148.422 284.15C148.141 282.622 136.283 156.59 136.283 156.59H172.278Z" fill="#263238"/>
<path d="M144.967 407.83C142.596 407.639 81.8007 381.231 80.1728 378.819C79.9718 378.548 82.1826 373.001 85.4685 365.454L98.8736 318.225L137.662 333.79L126.719 375.724C126.719 375.724 133.753 383.351 139.44 389.792C141.981 392.526 144.356 395.408 146.555 398.424C148.072 401.288 147.329 408.031 144.967 407.83Z" fill="#EB9481"/>
<path d="M144.967 407.83C142.596 407.639 81.8007 381.231 80.1728 378.819C79.9718 378.548 82.1826 373.001 85.4685 365.454C99.1851 375.121 137.2 397.349 139.732 394.676C140.737 393.611 140.365 391.762 139.481 389.832C142.021 392.566 144.397 395.449 146.595 398.464C148.072 401.288 147.329 408.031 144.967 407.83Z" fill="#263238"/>
<path d="M81.1064 360.59L129.712 375.663C129.712 375.663 153.448 292.409 155.266 272.854C157.065 253.47 158.804 213.868 159.577 185.139C159.577 185.139 167.697 180.335 169.757 177.713C171.817 175.09 173.666 165.654 177.725 156.61H118.257C104.048 184.214 114.74 196.494 114.74 202.513C114.74 231.574 110.348 270.151 108.952 275.869C106.037 287.787 81.1064 360.59 81.1064 360.59Z" fill="#37474F"/>
<path d="M129.603 365.032C128.387 364.53 127.01 364.218 125.744 363.827C124.307 363.394 122.86 362.993 121.433 362.55C118.68 361.696 115.906 360.882 113.133 360.098C107.539 358.504 101.905 357.037 96.2307 355.697L91.548 354.622C89.89 354.24 88.1917 353.949 86.5236 353.506C86.393 353.506 86.3629 353.617 86.5236 353.657C89.3574 354.401 92.1509 355.416 94.9545 356.28C97.7582 357.144 100.491 357.918 103.265 358.712C108.862 360.289 114.509 361.726 120.177 363.043C121.745 363.394 123.292 363.786 124.85 364.158L127.352 364.711C128.095 364.882 128.819 365.123 129.573 365.233C129.599 365.237 129.626 365.231 129.648 365.215C129.67 365.199 129.684 365.175 129.688 365.148C129.692 365.121 129.685 365.094 129.669 365.072C129.653 365.051 129.629 365.036 129.603 365.032Z" fill="#263238"/>
<path d="M171.145 177.06C168.307 178.364 165.613 179.96 163.106 181.823C160.443 183.652 157.991 185.752 155.428 187.711C155.328 187.792 155.428 187.953 155.529 187.882C158.232 186.154 161.066 184.636 163.739 182.858C166.423 181.23 168.952 179.359 171.295 177.271C171.366 177.19 171.275 177.009 171.145 177.06Z" fill="#263238"/>
<path d="M171.515 160.309C171.173 162.157 170.721 163.996 170.319 165.835C169.917 167.674 169.666 169.322 169.214 171.031C168.84 172.683 167.999 174.193 166.792 175.382C166.119 176.015 165.365 176.567 164.641 177.15C164.26 177.462 163.838 177.753 163.436 178.075C163.486 177.824 163.526 177.582 163.566 177.321C163.697 176.628 163.817 175.924 163.928 175.221C164.189 173.663 164.44 172.096 164.682 170.538C165.154 167.463 165.586 164.358 166.229 161.313C166.236 161.287 166.232 161.259 166.217 161.235C166.203 161.211 166.18 161.194 166.154 161.188C166.127 161.181 166.099 161.185 166.075 161.199C166.052 161.214 166.035 161.236 166.028 161.263C165.264 164.278 164.42 167.292 163.757 170.307C163.426 171.794 162.26 179.15 162.21 179.672C162.159 180.195 162.109 180.748 162.089 181.29C162.024 181.841 162.024 182.398 162.089 182.948C162.089 183.079 162.29 183.059 162.34 182.948C162.565 182.438 162.724 181.901 162.813 181.351C162.943 180.828 163.064 180.296 163.154 179.763C163.154 179.572 163.215 179.371 163.245 179.17C163.968 178.728 164.641 178.165 165.325 177.663C166.008 177.16 166.792 176.658 167.485 176.035C168.763 174.957 169.684 173.517 170.128 171.905C170.575 170.169 170.867 168.397 171.002 166.609C171.233 164.519 171.404 162.419 171.696 160.339C171.726 160.309 171.535 160.208 171.515 160.309Z" fill="#263238"/>
<path d="M170.27 80.1798C169.315 91.9871 168.13 104.126 165.376 115.662C163.226 124.646 158.342 131.63 148.595 132.564C139.551 133.428 127.04 131.559 120.408 124.716C117.313 121.53 116.64 117.531 117.454 113.27C118.589 107.352 127.804 75.3162 130.608 65.3076C132.316 59.2181 134.004 53.0381 136.778 47.3103C142.586 35.2518 148.836 36.2567 149.7 36.1059C150.514 35.7241 155.579 34.257 162.09 37.352C163.804 38.1517 165.329 39.3046 166.565 40.7351C167.802 42.1656 168.722 43.8412 169.265 45.6523C172.722 56.4245 171.195 69.1262 170.27 80.1798Z" fill="#263238"/>
<path d="M147.551 37.5827C139.583 40.0547 136.668 47.9933 133.855 55.0676C129.936 64.9254 126.177 74.8536 122.902 84.9526C121.334 89.8062 119.887 94.6999 118.55 99.6238C117.294 104.347 115.656 109.341 115.315 114.235C114.752 122.274 121.585 126.977 128.539 129.097C128.608 129.119 128.684 129.114 128.749 129.081C128.814 129.048 128.863 128.99 128.886 128.921C128.908 128.852 128.902 128.776 128.869 128.711C128.837 128.646 128.779 128.597 128.71 128.574C124.771 127.218 120.801 125.56 118.199 122.113C114.853 117.732 115.998 112.768 117.134 107.824C119.083 99.4027 121.505 91.1125 124.168 82.9127C126.831 74.7129 129.906 66.5935 133.041 58.5445C136.055 50.8773 138.839 40.6275 147.531 37.7134C147.662 37.7134 147.632 37.5526 147.551 37.5827Z" fill="#263238"/>
<path d="M171.487 54.6855C170.904 48.3648 168.532 41.9537 162.332 39.2908C170.311 43.0892 171.095 52.4848 171.155 60.2424C171.222 68.4221 170.991 76.5884 170.462 84.7413C169.959 92.5894 169.276 100.478 168.06 108.245C166.744 116.626 164.141 124.323 158.232 130.544C158.219 130.555 158.208 130.57 158.201 130.586C158.193 130.602 158.189 130.619 158.188 130.637C158.187 130.655 158.189 130.672 158.195 130.689C158.201 130.706 158.21 130.721 158.222 130.735C158.234 130.748 158.248 130.758 158.264 130.766C158.28 130.774 158.298 130.778 158.316 130.779C158.333 130.78 158.351 130.777 158.368 130.772C158.385 130.766 158.4 130.756 158.413 130.745C164.071 125.811 166.754 118.314 168.13 111.139C169.791 101.615 170.822 91.9903 171.215 82.3296C171.738 73.2355 172.331 63.8399 171.487 54.6855Z" fill="#263238"/>
<path d="M147.077 81.7873C147.459 82.7922 153.317 88.922 158.06 88.0879C159.598 87.8066 158.462 79.3153 158.462 79.3153L158.522 78.6722L159.346 69.6283L148.162 64.3427L146.564 63.6594C146.564 63.6594 146.494 66.1515 146.454 69.2465C146.454 69.3972 146.454 69.5379 146.454 69.6886C146.444 69.8593 146.444 70.0304 146.454 70.2011C146.454 70.6634 146.454 71.1356 146.454 71.6079C146.454 72.0802 146.454 72.3114 146.454 72.6832C146.454 73.055 146.454 73.4368 146.454 73.8086C146.48 76.4792 146.688 79.145 147.077 81.7873Z" fill="#EB9481"/>
<path d="M146.454 69.2465C147.66 71.5982 149.363 73.6594 151.446 75.2871C153.528 76.9147 155.939 78.0698 158.513 78.6722L159.337 69.6283L148.162 64.3427L146.565 63.6594C146.565 63.6594 146.494 66.1515 146.454 69.2465Z" fill="#263238"/>
<path d="M170.843 56.3135C172.109 72.1905 162.744 74.7429 159.317 75.0142C156.202 75.2554 145.58 75.6975 142.686 60.0214C139.792 44.3454 146.776 38.7181 153.86 37.8137C160.945 36.9093 169.587 40.4264 170.843 56.3135Z" fill="#EB9481"/>
<path d="M168.17 52.9372C167.808 52.8838 167.449 52.81 167.095 52.7161C166.702 52.6924 166.328 52.5407 166.03 52.284C165.954 52.1843 165.913 52.0625 165.913 51.9373C165.913 51.8121 165.954 51.6903 166.03 51.5906C166.209 51.4177 166.431 51.2951 166.672 51.2351C166.914 51.1752 167.167 51.1799 167.407 51.249C167.919 51.3134 168.387 51.5725 168.713 51.9725C168.784 52.0661 168.826 52.1786 168.835 52.296C168.843 52.4134 168.816 52.5306 168.759 52.6331C168.701 52.7357 168.614 52.8191 168.51 52.8731C168.405 52.9272 168.287 52.9494 168.17 52.9372Z" fill="#263238"/>
<path d="M157.597 53.1579C157.969 53.1077 158.301 53.0072 158.673 52.9268C159.047 52.8849 159.398 52.7268 159.678 52.4746C159.755 52.3756 159.797 52.2536 159.797 52.1279C159.797 52.0023 159.755 51.8802 159.678 51.7812C159.496 51.6092 159.272 51.4886 159.028 51.4321C158.784 51.3756 158.53 51.3851 158.291 51.4597C157.785 51.5408 157.327 51.8055 157.005 52.2033C156.932 52.3004 156.89 52.4173 156.884 52.5387C156.879 52.66 156.91 52.7801 156.975 52.8833C157.039 52.9865 157.132 53.0679 157.244 53.1169C157.355 53.1659 157.478 53.1802 157.597 53.1579Z" fill="#263238"/>
<path d="M160.081 57.1678C160.081 57.1678 160.001 57.1678 160.001 57.2583C160.071 58.3435 160.001 59.5996 158.996 59.9915C158.996 59.9915 158.996 60.0619 158.996 60.0518C160.222 59.8207 160.323 58.1828 160.081 57.1678Z" fill="#263238"/>
<path d="M159.076 56.0624C157.327 55.9921 157.307 59.4891 158.925 59.5594C160.543 59.6298 160.543 56.1227 159.076 56.0624Z" fill="#263238"/>
<path d="M158.392 56.2434C158.081 56.4444 157.779 56.786 157.387 56.8262C156.996 56.8664 156.644 56.4946 156.383 56.1429H156.322C156.322 56.8061 156.553 57.4995 157.327 57.6C158.101 57.7004 158.463 57.1076 158.633 56.4343C158.623 56.3539 158.513 56.163 158.392 56.2434Z" fill="#263238"/>
<path d="M166.112 56.9266C166.112 56.9266 166.192 56.9266 166.192 57.017C166.142 58.1023 166.263 59.3584 167.247 59.7302C167.247 59.7302 167.247 59.8005 167.247 59.7905C166.042 59.6096 165.891 57.9415 166.112 56.9266Z" fill="#263238"/>
<path d="M167.095 55.8011C168.833 55.7006 168.923 59.1976 167.306 59.2981C165.688 59.3986 165.627 55.8916 167.095 55.8011Z" fill="#263238"/>
<path d="M167.827 56.0223C168.108 56.1931 168.39 56.5247 168.721 56.5448C169.053 56.5649 169.375 56.173 169.616 55.8012H169.666C169.666 56.4644 169.495 57.1678 168.862 57.3085C168.229 57.4492 167.857 56.8764 167.656 56.2233C167.626 56.1328 167.717 55.9419 167.827 56.0223Z" fill="#263238"/>
<path d="M164.52 61.83C164.52 61.83 164.751 63.4478 164.751 64.2115C164.751 64.2919 164.57 64.3221 164.309 64.3422C163.653 64.4662 162.976 64.407 162.352 64.1712C161.728 63.9354 161.181 63.5321 160.771 63.0057C160.757 62.9897 160.749 62.9685 160.75 62.9469C160.751 62.9252 160.761 62.9048 160.777 62.8901C160.793 62.8755 160.814 62.8678 160.835 62.8687C160.857 62.8696 160.877 62.8791 160.892 62.8951C161.867 63.5586 163.031 63.8867 164.208 63.8297C164.258 63.6186 163.716 61.0663 163.836 61.0562C164.431 61.1038 165.015 61.2323 165.575 61.4381C165.193 58.0516 164.268 54.7556 163.927 51.3893C163.927 51.3627 163.937 51.3371 163.956 51.3183C163.975 51.2994 164.001 51.2888 164.027 51.2888C164.054 51.2888 164.08 51.2994 164.098 51.3183C164.117 51.3371 164.128 51.3627 164.128 51.3893C165.23 54.8936 165.98 58.4987 166.369 62.1515C166.399 62.4932 164.821 61.9305 164.52 61.83Z" fill="#263238"/>
<path d="M165.749 57.9817C165.508 55.3891 166.703 53.1583 168.412 52.9573C170.12 52.7564 171.718 54.7661 171.959 57.3587C172.2 59.9513 170.954 62.1821 169.296 62.3831C167.638 62.5841 165.99 60.5743 165.749 57.9817ZM166.382 57.9214C166.593 60.1623 167.869 61.8806 169.236 61.7601C170.602 61.6395 171.547 59.7001 171.336 57.4592C171.125 55.2183 169.839 53.5 168.472 53.6206C167.105 53.7411 166.171 55.6806 166.382 57.9214Z" fill="#263238"/>
<path d="M153.942 59.0968C153.92 58.2379 154.15 57.3915 154.603 56.6614C155.056 55.9313 155.712 55.3493 156.491 54.9869C157.27 54.6244 158.138 54.4974 158.988 54.6212C159.838 54.7451 160.633 55.1145 161.277 55.6841C161.92 56.2537 162.383 56.9988 162.608 57.8277C162.834 58.6567 162.813 59.5335 162.547 60.3505C162.281 61.1676 161.783 61.8893 161.113 62.427C160.443 62.9647 159.63 63.2951 158.775 63.3776C157.568 63.4464 156.382 63.035 155.477 62.2331C154.571 61.4312 154.019 60.3038 153.942 59.0968ZM154.575 59.0365C154.703 59.759 155.038 60.4287 155.541 60.9637C156.043 61.4986 156.69 61.8758 157.403 62.0491C158.116 62.2224 158.864 62.1844 159.556 61.9396C160.247 61.6949 160.853 61.254 161.298 60.6708C161.744 60.0877 162.009 59.3874 162.063 58.6557C162.117 57.9239 161.957 57.1922 161.602 56.55C161.247 55.9078 160.713 55.3829 160.065 55.0392C159.416 54.6956 158.682 54.5482 157.951 54.6151C156.918 54.755 155.982 55.299 155.349 56.1279C154.716 56.9567 154.438 58.0027 154.575 59.0365Z" fill="#263238"/>
<path d="M162.462 57.861C164.733 56.8562 165.869 57.4892 165.879 57.4993L166.221 56.9667C166.17 56.9667 164.824 56.0824 162.201 57.2882L162.462 57.861Z" fill="#263238"/>
<path d="M154.193 58.6554L154.253 58.0223C153.831 58.0223 144.084 57.1179 143.039 57.1581C141.994 57.1983 139.512 58.8764 139.24 59.0674L139.602 59.5899C140.634 58.8092 141.789 58.2048 143.019 57.8012H143.139C143.903 57.8113 150.726 58.3439 154.193 58.6554Z" fill="#263238"/>
<path d="M143.138 58.8864C144.857 58.786 149.338 54.0329 149.479 45.7125C149.479 45.7125 148.836 53.1788 148.283 54.2741C147.731 55.3694 150.785 51.6011 150.986 44.8986C153.103 46.4087 155.424 47.6099 157.88 48.4659C161.045 49.3502 162.985 49.32 163.216 49.0889C163.447 48.8578 158.774 47.3907 157.508 45.9436C157.508 45.9436 165.949 49.8526 169.828 50.1541C170.28 50.1541 170.833 40.9393 164.803 37.0203C158.774 33.1013 149.278 37.3419 146.716 39.8139C146.716 39.8139 143.701 40.2359 140.455 44.6875C137.21 49.1391 141.289 58.997 143.138 58.8864Z" fill="#263238"/>
<path d="M145.308 61.0463C145.308 61.0463 141.861 56.0219 139.6 57.2679C137.339 58.514 139.892 65.719 142.534 66.7238C142.865 66.8761 143.222 66.9601 143.586 66.9709C143.949 66.9818 144.311 66.9192 144.65 66.7869C144.988 66.6546 145.297 66.4554 145.557 66.2011C145.817 65.9468 146.022 65.6427 146.162 65.307L145.308 61.0463Z" fill="#EB9481"/>
<path d="M140.384 59.3184V59.3887C142.233 60.1625 143.197 61.8908 143.871 63.6795C143.765 63.4917 143.62 63.3293 143.445 63.2036C143.27 63.0778 143.07 62.9919 142.859 62.9517C142.647 62.9114 142.429 62.918 142.22 62.9708C142.012 63.0236 141.817 63.1215 141.65 63.2575C141.65 63.2575 141.65 63.368 141.7 63.358C142.027 63.2553 142.378 63.2572 142.704 63.3635C143.03 63.4698 143.315 63.6751 143.519 63.9508C143.859 64.4111 144.149 64.9063 144.383 65.428C144.464 65.5988 144.765 65.5084 144.705 65.3175C144.745 62.9058 142.926 59.5796 140.384 59.3184Z" fill="#263238"/>
<path d="M144.755 66.3623C144.757 66.5933 144.69 66.8196 144.564 67.0127C144.437 67.2057 144.255 67.3566 144.043 67.4464C143.83 67.5362 143.595 67.5607 143.368 67.5169C143.141 67.473 142.933 67.3628 142.769 67.2002C142.605 67.0376 142.493 66.8299 142.447 66.6035C142.401 66.3771 142.424 66.1422 142.512 65.9287C142.6 65.7151 142.749 65.5324 142.941 65.4039C143.133 65.2754 143.358 65.2067 143.589 65.2067C143.897 65.2067 144.192 65.3281 144.41 65.5446C144.628 65.761 144.752 66.0549 144.755 66.3623Z" fill="white"/>
<path d="M180.319 161.966C180.319 161.966 126.799 162.76 113.515 161.826C113.515 161.826 124.347 100.428 138.637 84.9125C139.169 84.3296 139.732 83.7761 140.325 83.2545C141.199 82.5209 141.078 76.6625 141.49 76.2203C141.902 75.7782 159.267 78.0593 159.488 78.4813C159.709 78.9034 160.603 84.4302 160.603 84.4302C164.542 89.4546 177.214 106.819 178.691 113.984C180.168 121.148 175.516 129.057 175.516 129.057L180.319 161.966Z" fill="#F21564"/>
<path d="M134.546 95.8654C131.381 111.119 133.26 144.099 140.575 150.129C152.634 159.997 181.615 162.881 189.704 163.835C193.191 164.247 200.134 141.426 197.743 138.482C195.351 135.538 159.728 130.956 158.03 129.438C156.854 128.353 151.318 108.426 146.544 97.1918C140.123 81.988 135.702 90.2381 134.546 95.8654Z" fill="#EB9481"/>
<path d="M191.711 136.644C191.711 136.644 202.403 136.533 209.397 136.794C213.306 136.935 219.969 137.799 222.792 139.206C227.003 141.326 243.282 152.882 240.559 156.892C238.097 160.52 233.253 155.746 233.253 155.746C233.253 155.746 239.041 160.459 235.494 163.313C231.947 166.167 226.209 159.354 226.209 159.354C226.209 159.354 232.7 163.936 228.621 166.609C225.083 168.94 217.657 161.786 217.657 161.786C217.657 161.786 225.003 165.805 221.607 168.589C217.858 171.603 205.378 162.278 205.378 162.278C196.434 164.288 190.797 164.288 184.225 163.213C183.019 163.012 191.711 136.644 191.711 136.644Z" fill="#EB9481"/>
<path d="M228 160.941L226.543 159.404C225.641 158.385 224.682 157.419 223.669 156.51C222.664 155.646 221.659 154.822 220.554 154.038C219.449 153.254 218.203 152.47 217.097 151.616C217.007 151.546 216.906 151.676 217.007 151.737C218.104 152.583 219.157 153.485 220.162 154.44C221.167 155.344 222.172 156.269 223.177 157.183C224.182 158.098 225.186 158.912 226.191 159.786C226.684 160.218 227.196 160.67 227.648 161.122C228.077 161.587 228.544 162.014 229.045 162.399C229.095 162.399 229.156 162.399 229.126 162.318C228.801 161.82 228.423 161.359 228 160.941Z" fill="#263238"/>
<path d="M234.442 156.751C232.829 154.803 231.083 152.969 229.216 151.264C227.326 149.57 225.269 148.072 223.077 146.792C222.996 146.792 222.916 146.853 222.976 146.913C224.865 148.611 226.785 150.279 228.704 151.937C229.638 152.751 233.779 156.59 234.261 156.962C234.371 157.022 234.512 156.861 234.442 156.751Z" fill="#263238"/>
<path d="M222.042 165.041C220.478 163.243 218.799 161.548 217.017 159.967C215.056 158.522 212.99 157.226 210.837 156.088C210.757 156.088 210.676 156.168 210.747 156.218C212.696 157.665 214.666 159.062 216.545 160.6C217.469 161.353 220.946 164.549 221.891 165.182C221.991 165.242 222.102 165.122 222.042 165.041Z" fill="#263238"/>
<path d="M181.688 164.78L194.439 135.046C194.439 135.046 159.51 129.268 158.435 128.564C157.36 127.861 150.989 104.668 146.899 95.5642C142.809 86.46 135.785 81.1141 133.072 100.659C130.358 120.204 134.288 144.07 138.217 149.034C142.98 155.043 161.841 162.65 181.688 164.78Z" fill="#F21564"/>
<path d="M163.738 161.022C158.513 159.605 153.418 157.133 148.424 154.992C144.133 153.194 139.752 150.973 137.37 146.763C136.26 144.619 135.484 142.318 135.069 139.939C134.517 137.287 134.064 134.604 133.683 131.9C133.22 128.819 132.805 125.73 132.436 122.635C132.256 121.048 132.075 119.46 131.914 117.872C131.753 116.285 131.462 114.697 131.401 113.099C131.401 113.078 131.393 113.057 131.378 113.042C131.363 113.027 131.342 113.019 131.321 113.019C131.3 113.019 131.279 113.027 131.264 113.042C131.249 113.057 131.241 113.078 131.241 113.099C131.351 114.566 131.241 116.043 131.361 117.521C131.361 118.526 131.482 119.45 131.552 120.415L131.271 119.802C130.961 119.098 130.726 118.364 130.567 117.611C130.567 117.521 130.397 117.561 130.417 117.611C130.598 118.365 130.778 119.128 130.989 119.872C131.09 120.234 131.211 120.596 131.351 120.957C131.435 121.2 131.533 121.438 131.643 121.671C131.884 124.558 132.195 127.432 132.577 130.293C132.949 133.066 133.381 135.819 133.873 138.573C134.238 141.008 134.885 143.392 135.803 145.677C136.715 147.831 138.111 149.746 139.883 151.274C141.718 152.782 143.746 154.039 145.912 155.013C150.81 157.275 155.872 159.163 161.055 160.66C167.255 162.609 169.145 162.479 163.738 161.022Z" fill="#263238"/>
<path d="M176.851 131.95C175.565 131.78 160.361 128.584 159.768 128.413C159.471 128.323 159.203 128.157 158.99 127.931C158.777 127.706 158.626 127.429 158.552 127.127C158.08 125.901 157.668 124.645 157.226 123.409C156.462 121.279 155.685 119.158 154.895 117.048C154.895 116.576 154.804 116.043 154.754 115.631C154.704 115.219 154.603 114.506 154.513 113.943C154.312 112.727 153.95 111.531 153.799 110.315C153.799 110.195 153.608 110.235 153.639 110.315C153.945 111.513 154.127 112.739 154.181 113.973C154.231 114.456 154.262 114.978 154.292 115.43C153.829 114.194 153.357 112.958 152.865 111.732C152.292 110.305 151.639 108.868 151.177 107.401C151.177 107.301 150.996 107.351 151.026 107.401C151.548 108.718 151.92 110.115 152.332 111.421C152.744 112.727 153.186 114.134 153.628 115.491C154.493 118.154 155.407 120.796 156.332 123.449C156.774 124.725 157.206 126.022 157.678 127.288C157.808 127.762 158.063 128.192 158.417 128.534C158.77 128.875 159.209 129.115 159.688 129.227C162.331 129.941 175.253 132.081 176.821 132.141C176.982 132.242 177.022 131.971 176.851 131.95Z" fill="#263238"/>
<path d="M187.975 135.508C185.966 139.779 183.956 144.019 182.137 148.381C180.297 152.671 178.684 157.055 177.304 161.514C177.296 161.534 177.296 161.557 177.304 161.576C177.313 161.596 177.329 161.612 177.349 161.62C177.369 161.628 177.391 161.628 177.411 161.619C177.431 161.611 177.446 161.595 177.454 161.575C179.464 157.384 181.223 153.033 183.001 148.722C184.78 144.411 186.398 139.98 188.197 135.659C188.287 135.478 188.056 135.337 187.975 135.508Z" fill="#263238"/>
<path d="M225.538 132.112C224 132.976 215.198 130.544 211.63 133.217C209.269 134.986 206.958 139.246 206.455 144.803C205.943 150.541 210.475 150.25 212.153 147.818C214.198 144.617 215.982 141.256 217.489 137.769C219.103 138.091 220.694 138.517 222.252 139.045L225.538 132.112Z" fill="#AD6359"/>
<path d="M214.746 152.139C212.023 149.285 198.417 159.746 202.687 164.499C206.958 169.252 217.821 155.375 214.746 152.139Z" fill="#AD6359"/>
<path d="M219.289 156.229C216.566 153.375 202.96 163.836 207.23 168.589C211.501 173.342 222.364 159.465 219.289 156.229Z" fill="#AD6359"/>
<path d="M222.864 157.675C220 155.455 209.087 166.86 213.66 170.578C218.232 174.296 226.11 160.188 222.864 157.675Z" fill="#AD6359"/>
<path d="M226.754 158.299C223.468 157.043 216.545 170.709 221.84 172.87C227.136 175.03 230.482 159.676 226.754 158.299Z" fill="#AD6359"/>
<path d="M214.343 156.841C213.588 157.347 212.875 157.915 212.213 158.539C211.479 159.183 210.756 159.836 210.093 160.549C209.446 161.224 208.839 161.935 208.274 162.68C207.681 163.483 207.189 164.358 206.586 165.141C206.575 165.148 206.566 165.158 206.559 165.169C206.553 165.181 206.549 165.193 206.549 165.206C206.548 165.219 206.551 165.232 206.557 165.244C206.562 165.255 206.571 165.266 206.581 165.273C206.591 165.281 206.603 165.286 206.616 165.288C206.629 165.29 206.642 165.289 206.654 165.285C206.667 165.281 206.678 165.274 206.687 165.265C206.696 165.256 206.703 165.244 206.706 165.232C207.302 164.474 207.95 163.759 208.646 163.092C209.299 162.408 209.912 161.695 210.565 161.001C211.218 160.308 211.801 159.635 212.444 158.992C213.087 158.348 213.811 157.685 214.454 156.982C214.484 156.891 214.414 156.801 214.343 156.841Z" fill="#263238"/>
<path d="M219.752 158.118C219.169 159.013 217.129 162.479 216.506 163.354C215.883 164.228 215.23 165.102 214.567 165.956C213.903 166.81 213.26 167.745 212.507 168.549C212.446 168.619 212.557 168.73 212.627 168.659C213.381 167.855 214.205 167.122 214.918 166.278C215.632 165.434 216.285 164.58 216.928 163.685C218.044 161.913 219.051 160.074 219.943 158.178C219.943 158.088 219.802 158.038 219.752 158.118Z" fill="#263238"/>
<path d="M223.53 160.067C222.927 161.394 222.405 162.771 221.792 164.087C221.49 164.74 221.179 165.393 220.877 166.097L220.455 167.051C220.323 167.431 220.154 167.798 219.953 168.147C219.893 168.227 220.053 168.317 220.094 168.207C220.295 167.809 220.531 167.429 220.797 167.071C220.968 166.77 221.149 166.469 221.309 166.167C221.651 165.497 221.963 164.844 222.244 164.208C222.831 162.906 223.321 161.562 223.711 160.188C223.727 160.164 223.733 160.135 223.727 160.106C223.722 160.078 223.705 160.053 223.681 160.037C223.657 160.021 223.628 160.016 223.599 160.021C223.571 160.027 223.546 160.043 223.53 160.067Z" fill="#263238"/>
<path d="M232.402 45.8525C231.921 50.4428 230.175 54.8093 227.358 58.465C224.54 62.1206 220.763 64.9217 216.446 66.5557C212.13 68.1898 207.444 68.5925 202.912 67.719C198.38 66.8456 194.18 64.7302 190.78 61.609L178.31 63.4379L184.55 52.6656C182.928 48.6805 182.366 44.3434 182.919 40.0768C183.472 35.8101 185.12 31.7592 187.703 28.3188C190.287 24.8784 193.717 22.1657 197.66 20.445C201.604 18.7242 205.925 18.0541 210.204 18.4998C216.774 19.1864 222.802 22.4531 226.964 27.582C231.127 32.7108 233.082 39.2824 232.402 45.8525Z" fill="white"/>
<path d="M232.402 45.8527C231.918 50.4414 230.18 54.8081 227.377 58.474C226.684 59.3894 225.933 60.2588 225.127 61.0766C224.296 61.8707 223.417 62.6124 222.494 63.2974C220.655 64.6958 218.624 65.8228 216.465 66.6436C214.317 67.4901 212.06 68.028 209.762 68.2414C208.613 68.35 207.458 68.3736 206.305 68.3117C205.149 68.2823 203.996 68.1614 202.858 67.95C198.269 67.1236 193.999 65.036 190.529 61.9207L190.83 62.0111L178.39 63.84L177.485 63.9807L177.938 63.1868L184.138 52.3945V52.8165C182.684 49.256 182.064 45.4101 182.325 41.5731C182.586 37.7361 183.722 34.0097 185.645 30.6791C187.584 27.3561 190.25 24.515 193.443 22.3687C197.411 19.7118 202.055 18.2411 206.829 18.1291C211.604 18.017 216.311 19.2682 220.4 21.736C224.489 24.2039 227.79 27.7861 229.915 32.0628C232.041 36.3395 232.903 41.1335 232.402 45.8829V45.8527ZM232.402 45.8527C232.799 42.1015 232.33 38.3091 231.031 34.7677C229.732 31.2263 227.637 28.0303 224.909 25.4258C222.18 22.8213 218.89 20.8778 215.292 19.745C211.693 18.6122 207.883 18.3204 204.155 18.8919C200.464 19.4339 196.946 20.8084 193.865 22.9114C190.822 25.0486 188.281 27.8227 186.419 31.0408C184.578 34.2691 183.496 37.8737 183.253 41.582C183.025 45.2811 183.622 48.9848 185.002 52.4246L185.092 52.6457L184.972 52.8567L178.701 63.6089L178.259 62.9457L190.73 61.1972H190.9L191.031 61.3077C194.357 64.4223 198.483 66.5515 202.949 67.4576C204.066 67.6801 205.198 67.8178 206.335 67.8696C207.469 67.9499 208.608 67.9499 209.742 67.8696C212.017 67.6937 214.256 67.1999 216.394 66.4024C218.554 65.6304 220.586 64.5398 222.423 63.1667C224.293 61.8434 225.944 60.2363 227.317 58.4036C230.129 54.7643 231.888 50.4229 232.402 45.8527Z" fill="#263238"/>
<path d="M204.706 57.4691L194.074 46.6968L197.642 43.1697L203.862 49.4602L216.774 29.212L221.005 31.9151L204.706 57.4691Z" fill="#F21564"/>
</svg>
