<svg width="28" height="28" viewBox="0 0 28 28" fill="none" xmlns="http://www.w3.org/2000/svg">
<mask id="path-1-inside-1_484_3399" fill="white">
<path d="M11.1104 21.3516C12.3078 21.3922 13.501 21.1893 14.6196 20.7548C15.7381 20.3203 16.7594 19.663 17.6229 18.8219C18.4865 17.9808 19.1748 16.9729 19.6473 15.8577C20.1198 14.7425 20.3667 13.5427 20.3736 12.3292C20.9223 11.6413 21.3298 10.8493 21.572 9.99971C21.5901 9.93259 21.5886 9.8616 21.5678 9.79529C21.547 9.72898 21.5077 9.67019 21.4546 9.62599C21.4016 9.58179 21.3371 9.55406 21.2688 9.54615C21.2006 9.53824 21.1315 9.55048 21.07 9.5814C20.7829 9.72137 20.4598 9.76659 20.146 9.71067C19.8322 9.65475 19.5437 9.50052 19.321 9.26971C19.0367 8.9544 18.6929 8.70009 18.3099 8.52185C17.9268 8.34361 17.5123 8.24507 17.091 8.23207C16.6697 8.21907 16.25 8.29187 15.857 8.44615C15.4639 8.60044 15.1054 8.83307 14.8028 9.13027C14.3883 9.53682 14.0848 10.0451 13.9216 10.6056C13.7585 11.1661 13.7412 11.7599 13.8716 12.3292C11.159 12.4932 9.29667 11.189 7.80679 9.40095C7.76203 9.3496 7.70348 9.31257 7.63829 9.29437C7.5731 9.27618 7.50408 9.27761 7.43968 9.29848C7.37528 9.31936 7.31827 9.35878 7.27562 9.41194C7.23296 9.46509 7.20652 9.52967 7.1995 9.5978C6.91567 11.1927 7.12041 12.8373 7.78624 14.3109C8.45206 15.7844 9.54707 17.0163 10.9242 17.8411C10.0008 18.9138 8.70413 19.5838 7.30476 19.7112C7.22979 19.7238 7.16058 19.7598 7.10683 19.8142C7.05307 19.8686 7.01745 19.9387 7.00496 20.0146C6.99246 20.0906 7.00372 20.1686 7.03715 20.2377C7.07058 20.3068 7.12452 20.3636 7.1914 20.4002C8.40883 21.0165 9.74949 21.342 11.1104 21.3516Z"/>
</mask>
<path d="M20.3736 12.3292L19.5185 11.647L19.282 11.9436L19.2798 12.3229L20.3736 12.3292ZM21.572 9.99971L22.6239 10.2996L22.6261 10.2919L22.6282 10.2842L21.572 9.99971ZM21.07 9.5814L21.5494 10.5647L21.5611 10.5588L21.07 9.5814ZM19.321 9.26971L18.5086 10.0021L18.5209 10.0159L18.5338 10.0292L19.321 9.26971ZM14.8028 9.13027L15.5688 9.91111L15.5691 9.91076L14.8028 9.13027ZM13.8716 12.3292L13.9376 13.421L15.2259 13.3431L14.9378 12.085L13.8716 12.3292ZM7.80679 9.40095L8.64715 8.70074L8.63934 8.69137L8.63133 8.68218L7.80679 9.40095ZM7.1995 9.5978L8.27642 9.78946L8.28347 9.74987L8.28759 9.70987L7.1995 9.5978ZM10.9242 17.8411L11.7532 18.5547L12.6007 17.5701L11.4862 16.9027L10.9242 17.8411ZM7.30476 19.7112L7.20558 18.6219L7.16436 18.6256L7.12355 18.6325L7.30476 19.7112ZM7.1914 20.4002L6.66694 21.3601L6.68203 21.3683L6.69737 21.3761L7.1914 20.4002ZM11.0734 22.4449C12.4188 22.4905 13.7594 22.2624 15.0156 21.7744L14.2235 19.7351C13.2426 20.1162 12.1967 20.294 11.1475 20.2584L11.0734 22.4449ZM15.0156 21.7744C16.2718 21.2864 17.4178 20.5487 18.3862 19.6055L16.8597 18.0383C16.1009 18.7774 15.2044 19.3541 14.2235 19.7351L15.0156 21.7744ZM18.3862 19.6055C19.3545 18.6623 20.1255 17.5329 20.6545 16.2844L18.6401 15.431C18.2242 16.4128 17.6185 17.2993 16.8597 18.0383L18.3862 19.6055ZM20.6545 16.2844C21.1834 15.0359 21.4597 13.6931 21.4675 12.3354L19.2798 12.3229C19.2737 13.3922 19.0561 14.4491 18.6401 15.431L20.6545 16.2844ZM21.2287 13.0113C21.8681 12.2099 22.3422 11.2878 22.6239 10.2996L20.5201 9.6998C20.3174 10.4108 19.9766 11.0728 19.5185 11.647L21.2287 13.0113ZM22.6282 10.2842C22.7005 10.016 22.6947 9.73262 22.6114 9.46752L20.5242 10.1231C20.4826 9.99057 20.4797 9.84914 20.5158 9.7152L22.6282 10.2842ZM22.6114 9.46752C22.5281 9.20233 22.3703 8.96514 22.1549 8.78564L20.7544 10.4663C20.6451 10.3752 20.5659 10.2556 20.5242 10.1231L22.6114 9.46752ZM22.1549 8.78564C21.9393 8.60601 21.6755 8.49212 21.3948 8.45958L21.1429 10.6327C20.9987 10.616 20.8639 10.5576 20.7544 10.4663L22.1549 8.78564ZM21.3948 8.45958C21.1141 8.42704 20.8306 8.47753 20.5789 8.604L21.5611 10.5588C21.4325 10.6234 21.2871 10.6494 21.1429 10.6327L21.3948 8.45958ZM20.5906 8.59821C20.5113 8.63689 20.4231 8.64898 20.3379 8.63379L19.9541 10.7875C20.4964 10.8842 21.0546 10.8059 21.5494 10.5646L20.5906 8.59821ZM20.3379 8.63379C20.2526 8.61859 20.1719 8.5763 20.1082 8.51026L18.5338 10.0292C18.9154 10.4247 19.4118 10.6909 19.9541 10.7875L20.3379 8.63379ZM20.1334 8.5373C19.7513 8.11339 19.2883 7.77065 18.7713 7.53011L17.8484 9.51359C18.0976 9.62953 18.3222 9.79541 18.5086 10.0021L20.1334 8.5373ZM18.7713 7.53011C18.2544 7.28956 17.6944 7.15633 17.1247 7.13875L17.0573 9.32539C17.3303 9.33382 17.5993 9.39767 17.8484 9.51359L18.7713 7.53011ZM17.1247 7.13875C16.5551 7.12117 15.988 7.21962 15.4573 7.42794L16.2567 9.46436C16.5121 9.36411 16.7842 9.31697 17.0573 9.32539L17.1247 7.13875ZM15.4573 7.42794C14.9266 7.63625 14.4436 7.94997 14.0364 8.34978L15.5691 9.91076C15.7673 9.71617 16.0012 9.56463 16.2567 9.46436L15.4573 7.42794ZM14.0367 8.34943C13.4876 8.88813 13.0867 9.56027 12.8714 10.2999L14.9719 10.9113C15.0829 10.5299 15.2891 10.1855 15.5688 9.91111L14.0367 8.34943ZM12.8714 10.2999C12.6561 11.0394 12.6334 11.8224 12.8053 12.5733L14.9378 12.085C14.8491 11.6973 14.8608 11.2928 14.9719 10.9113L12.8714 10.2999ZM13.8056 11.2373C11.5637 11.3729 10.0077 10.3336 8.64715 8.70074L6.96643 10.1012C8.58568 12.0445 10.7543 13.6135 13.9376 13.421L13.8056 11.2373ZM8.63133 8.68218C8.44718 8.47093 8.20466 8.3168 7.93235 8.2408L7.34422 10.3479C7.2023 10.3083 7.07688 10.2283 6.98225 10.1197L8.63133 8.68218ZM7.93235 8.2408C7.65994 8.16477 7.37132 8.17077 7.10239 8.25794L7.77698 10.339C7.63685 10.3844 7.48625 10.3876 7.34422 10.3479L7.93235 8.2408ZM7.10239 8.25794C6.83357 8.34508 6.59774 8.50894 6.42248 8.72735L8.12875 10.0965C8.0388 10.2086 7.91698 10.2936 7.77698 10.339L7.10239 8.25794ZM6.42248 8.72735C6.24734 8.94561 6.13989 9.20923 6.11141 9.48573L8.28759 9.70987C8.27314 9.85011 8.21859 9.98456 8.12875 10.0965L6.42248 8.72735ZM6.12258 9.40615C5.80016 11.2178 6.03259 13.0863 6.78943 14.7613L8.78304 13.8605C8.20824 12.5884 8.03117 11.1675 8.27642 9.78946L6.12258 9.40615ZM6.78943 14.7613C7.54634 16.4364 8.79228 17.8393 10.3622 18.7795L11.4862 16.9027C10.3019 16.1933 9.35778 15.1324 8.78304 13.8605L6.78943 14.7613ZM10.0952 17.1275C9.35558 17.9867 8.31981 18.5204 7.20558 18.6219L7.40395 20.8005C9.08844 20.6472 10.6461 19.8409 11.7532 18.5547L10.0952 17.1275ZM7.12355 18.6325C6.8205 18.6834 6.54287 18.8287 6.3287 19.0454L7.88495 20.583C7.7783 20.6909 7.63908 20.7642 7.48598 20.7899L7.12355 18.6325ZM6.3287 19.0454C6.11472 19.262 5.97465 19.5391 5.92563 19.8371L8.08429 20.1922C8.06025 20.3383 7.99142 20.4752 7.88495 20.583L6.3287 19.0454ZM5.92563 19.8371C5.87661 20.1349 5.9206 20.4413 6.05241 20.7139L8.0219 19.7615C8.08684 19.8958 8.10832 20.0462 8.08429 20.1922L5.92563 19.8371ZM6.05241 20.7139C6.1843 20.9866 6.39836 21.2134 6.66694 21.3601L7.71586 19.4403C7.85068 19.5139 7.95686 19.627 8.0219 19.7615L6.05241 20.7139ZM6.69737 21.3761C8.06519 22.0685 9.57223 22.4346 11.1027 22.4455L11.1182 20.2578C9.92675 20.2493 8.75248 19.9644 7.68544 19.4243L6.69737 21.3761Z" fill="white" mask="url(#path-1-inside-1_484_3399)"/>
<circle cx="14" cy="14" r="13.5" stroke="white"/>
</svg>
