<svg width="28" height="28" viewBox="0 0 28 28" fill="none" xmlns="http://www.w3.org/2000/svg">
<circle cx="14" cy="14" r="13.5" stroke="white"/>
<mask id="path-2-inside-1_484_3396" fill="white">
<path fill-rule="evenodd" clip-rule="evenodd" d="M18.119 11.6263L15.018 14.1231C14.4312 14.5832 13.6085 14.5832 13.0217 14.1231L9.89404 11.6263"/>
</mask>
<path d="M18.805 12.4784C19.2755 12.0995 19.3499 11.4109 18.971 10.9404C18.5921 10.4698 17.9036 10.3955 17.433 10.7743L18.805 12.4784ZM15.018 14.1231L15.6929 14.9839C15.6966 14.981 15.7003 14.978 15.704 14.9751L15.018 14.1231ZM13.0217 14.1231L12.3392 14.978L12.3468 14.9839L13.0217 14.1231ZM10.5765 10.7715C10.1043 10.3946 9.41607 10.4718 9.03918 10.9439C8.66229 11.416 8.73949 12.1043 9.21162 12.4812L10.5765 10.7715ZM17.433 10.7743L14.332 13.2711L15.704 14.9751L18.805 12.4784L17.433 10.7743ZM14.3431 13.2623C14.1525 13.4116 13.8871 13.4116 13.6966 13.2623L12.3468 14.9839C13.3299 15.7547 14.7098 15.7547 15.6929 14.9839L14.3431 13.2623ZM13.7041 13.2682L10.5765 10.7715L9.21162 12.4812L12.3392 14.9779L13.7041 13.2682Z" fill="white" mask="url(#path-2-inside-1_484_3396)"/>
<path d="M20.4475 11.4001C20.4469 11.4108 20.4465 11.4215 20.4465 11.4322V16.178C20.4465 16.1887 20.4469 16.1994 20.4475 16.2101C20.4971 17.0542 20.2007 17.8814 19.6283 18.499C19.0568 19.1158 18.26 19.4697 17.4235 19.4799H10.5725C8.80788 19.4799 7.56596 18.0571 7.56596 16.178V11.4322C7.56596 9.55309 8.80788 8.1303 10.5725 8.1303H17.4235C18.26 8.14049 19.0568 8.49446 19.6283 9.11121C20.2007 9.72881 20.4971 10.556 20.4475 11.4001Z" stroke="white" stroke-width="1.09384" stroke-linecap="round" stroke-linejoin="round"/>
</svg>
