<svg width="28" height="28" viewBox="0 0 28 28" fill="none" xmlns="http://www.w3.org/2000/svg">
<circle cx="14" cy="14" r="14" fill="white"/>
<path d="M12.1104 21.1211C13.3078 21.1616 14.501 20.9587 15.6196 20.5242C16.7381 20.0897 17.7594 19.4324 18.6229 18.5913C19.4865 17.7502 20.1748 16.7423 20.6473 15.6271C21.1198 14.5119 21.3667 13.3121 21.3736 12.0986C21.9223 11.4107 22.3298 10.6187 22.572 9.76912C22.5901 9.702 22.5886 9.63101 22.5678 9.5647C22.547 9.49839 22.5077 9.4396 22.4546 9.3954C22.4016 9.3512 22.3371 9.32347 22.2688 9.31556C22.2006 9.30765 22.1315 9.31989 22.07 9.35081C21.7829 9.49078 21.4598 9.536 21.146 9.48008C20.8322 9.42416 20.5437 9.26993 20.321 9.03912C20.0367 8.72381 19.6929 8.4695 19.3099 8.29126C18.9268 8.11302 18.5123 8.01448 18.091 8.00148C17.6697 7.98848 17.25 8.06128 16.857 8.21556C16.4639 8.36985 16.1054 8.60248 15.8028 8.89968C15.3883 9.30623 15.0848 9.81447 14.9216 10.375C14.7585 10.9355 14.7412 11.5293 14.8716 12.0986C12.159 12.2626 10.2967 10.9584 8.80679 9.17036C8.76203 9.11901 8.70348 9.08198 8.63829 9.06378C8.5731 9.04559 8.50408 9.04702 8.43968 9.06789C8.37528 9.08877 8.31827 9.12819 8.27562 9.18134C8.23296 9.2345 8.20652 9.29908 8.1995 9.36721C7.91567 10.9621 8.12041 12.6067 8.78624 14.0803C9.45206 15.5538 10.5471 16.7857 11.9242 17.6105C11.0008 18.6832 9.70413 19.3532 8.30476 19.4806C8.22979 19.4932 8.16058 19.5292 8.10683 19.5836C8.05307 19.638 8.01745 19.7081 8.00496 19.784C7.99246 19.86 8.00372 19.938 8.03715 20.0071C8.07058 20.0762 8.12452 20.133 8.1914 20.1696C9.40883 20.7859 10.7495 21.1114 12.1104 21.1211Z" fill="#FD8926"/>
</svg>
