<svg width="28" height="28" viewBox="0 0 28 28" fill="none" xmlns="http://www.w3.org/2000/svg">
<circle cx="14" cy="14" r="14" fill="white"/>
<path d="M13.9984 10.9214C12.2948 10.9214 10.9199 12.2963 10.9199 14C10.9199 15.7037 12.2948 17.0786 13.9984 17.0786C15.702 17.0786 17.0769 15.7037 17.0769 14C17.0769 12.2963 15.702 10.9214 13.9984 10.9214ZM13.9984 16.0009C12.8967 16.0009 11.9976 15.1017 11.9976 14C11.9976 12.8983 12.8967 11.9991 13.9984 11.9991C15.1001 11.9991 15.9992 12.8983 15.9992 14C15.9992 15.1017 15.1001 16.0009 13.9984 16.0009ZM17.203 10.0778C16.8052 10.0778 16.484 10.3991 16.484 10.7968C16.484 11.1946 16.8052 11.5158 17.203 11.5158C17.6008 11.5158 17.922 11.1961 17.922 10.7968C17.9221 10.7024 17.9036 10.6088 17.8675 10.5216C17.8314 10.4343 17.7784 10.355 17.7116 10.2882C17.6449 10.2214 17.5656 10.1684 17.4783 10.1323C17.391 10.0962 17.2974 10.0777 17.203 10.0778ZM19.9993 14C19.9993 13.1714 20.0068 12.3504 19.9603 11.5233C19.9138 10.5627 19.6946 9.7101 18.9922 9.00763C18.2882 8.30365 17.4371 8.086 16.4765 8.03947C15.648 7.99294 14.8269 8.00045 13.9999 8.00045C13.1713 8.00045 12.3503 7.99294 11.5233 8.03947C10.5626 8.086 9.71007 8.30515 9.00761 9.00763C8.30365 9.7116 8.086 10.5627 8.03947 11.5233C7.99294 12.3519 8.00045 13.1729 8.00045 14C8.00045 14.8271 7.99294 15.6496 8.03947 16.4767C8.086 17.4373 8.30515 18.2899 9.00761 18.9924C9.71157 19.6963 10.5626 19.914 11.5233 19.9605C12.3518 20.0071 13.1728 19.9996 13.9999 19.9996C14.8284 19.9996 15.6495 20.0071 16.4765 19.9605C17.4371 19.914 18.2897 19.6948 18.9922 18.9924C19.6961 18.2884 19.9138 17.4373 19.9603 16.4767C20.0083 15.6496 19.9993 14.8286 19.9993 14ZM18.6785 17.5394C18.5689 17.8126 18.4368 18.0167 18.2252 18.2269C18.0135 18.4385 17.8109 18.5706 17.5377 18.6802C16.7482 18.9939 14.8735 18.9233 13.9984 18.9233C13.1233 18.9233 11.2471 18.9939 10.4576 18.6817C10.1844 18.5721 9.98025 18.44 9.77011 18.2284C9.55847 18.0167 9.42638 17.8141 9.31681 17.5409C9.00461 16.7499 9.07515 14.8751 9.07515 14C9.07515 13.1249 9.00461 11.2486 9.31681 10.4591C9.42638 10.1859 9.55847 9.98179 9.77011 9.77164C9.98175 9.5615 10.1844 9.42791 10.4576 9.31834C11.2471 9.00613 13.1233 9.07667 13.9984 9.07667C14.8735 9.07667 16.7497 9.00613 17.5392 9.31834C17.8124 9.42791 18.0165 9.56 18.2267 9.77164C18.4383 9.98329 18.5704 10.1859 18.68 10.4591C18.9922 11.2486 18.9216 13.1249 18.9216 14C18.9216 14.8751 18.9922 16.7499 18.6785 17.5394Z" fill="#FD8926"/>
</svg>
